<svg width="32" height="32" viewBox="0 0 32 32" fill="none" xmlns="http://www.w3.org/2000/svg">
<path d="M2 12.1333C2 8.58633 2 6.81283 2.69029 5.45806C3.29749 4.26637 4.26637 3.29749 5.45806 2.69029C6.81283 2 8.58633 2 12.1333 2H19.8667C23.4137 2 25.1872 2 26.5419 2.69029C27.7336 3.29749 28.7025 4.26637 29.3097 5.45806C30 6.81283 30 8.58633 30 12.1333V19.8667C30 23.4137 30 25.1872 29.3097 26.5419C28.7025 27.7336 27.7336 28.7025 26.5419 29.3097C25.1872 30 23.4137 30 19.8667 30H12.1333C8.58633 30 6.81283 30 5.45806 29.3097C4.26637 28.7025 3.29749 27.7336 2.69029 26.5419C2 25.1872 2 23.4137 2 19.8667V12.1333Z" fill="#001E36"/>
<path d="M16.7047 22.6201H9.30404C9.17877 22.6201 9.11616 22.5494 9.11622 22.4082V10.1749C9.10237 10.0754 9.18827 9.98729 9.2853 10.0015H11.5769C11.6523 9.99061 11.7188 10.0602 11.7083 10.1364V20.1927H17.0992C17.2118 20.1927 17.2557 20.2505 17.2306 20.3661L16.8925 22.4467C16.8896 22.5515 16.8037 22.619 16.7047 22.6201Z" fill="#31A8FF"/>
<path d="M18.5848 13.0319H20.6322C20.7452 13.0329 20.8465 13.1129 20.8764 13.2246C21.0265 13.5663 21.0449 13.9783 21.0455 14.3472C21.3966 13.9279 21.82 13.5785 22.2945 13.3166C22.8035 13.0212 23.3805 12.8715 23.9652 12.8831C24.0622 12.8689 24.1481 12.957 24.1343 13.0565V15.3876C24.1343 15.4776 24.0714 15.5224 23.9464 15.5224C23.0798 15.4611 21.7306 15.6711 21.1009 16.3701V22.4312C21.1009 22.5468 21.0508 22.6046 20.9506 22.6046H18.7539C18.646 22.6204 18.5508 22.5208 18.566 22.4119V15.8307C18.566 14.9488 18.5847 14.0404 18.4534 13.1668C18.4331 13.0864 18.5082 13.0117 18.5848 13.0319Z" fill="#31A8FF"/>
</svg>
