<svg width="32" height="32" viewBox="0 0 32 32" fill="none" xmlns="http://www.w3.org/2000/svg">
<path d="M16 2C8.26811 2 2 8.26811 2 16C2 23.7319 8.26811 30.0001 16 30.0001C23.7319 30.0001 30 23.7319 30 16C30 8.26811 23.7319 2 16 2Z" fill="url(#paint0_linear_1_13580)"/>
<path d="M16 24.9427C11.0611 24.9427 7.05725 20.9389 7.05725 16C7.05725 11.0611 11.0611 7.05725 16 7.05725C20.9389 7.05725 24.9427 11.0611 24.9427 16C24.9427 20.9389 20.9389 24.9427 16 24.9427Z" fill="white"/>
<path d="M7.63257 16H16V7.63257C11.3788 7.63257 7.63257 11.3789 7.63257 16ZM16 16V24.3675C20.6211 24.3675 24.3674 20.6212 24.3674 16H16Z" fill="url(#paint1_linear_1_13580)"/>
<path fill-rule="evenodd" clip-rule="evenodd" d="M8.24335 7.35932C8.67353 7.09263 9.13174 7.17946 9.42817 7.46758C9.88366 7.91032 9.81666 8.42224 9.38339 8.93858L7.48713 11.1984L4.66049 8.8265L6.45863 6.68363C6.83079 6.2401 7.35114 5.8859 7.84558 6.30078C7.85472 6.30845 7.86355 6.31581 7.8721 6.32295C8.00649 6.43506 8.0741 6.49146 8.24833 6.80918C8.29196 6.92909 8.32552 7.14639 8.24335 7.35932ZM7.44131 7.22351C7.25945 7.07096 6.97667 7.06483 6.85154 7.21398L5.77152 8.50105L6.43963 9.0617L7.50746 7.78913C7.64175 7.62917 7.64126 7.3913 7.44131 7.22351ZM7.62561 10.0569L8.75144 8.7152C8.90097 8.53704 8.87936 8.25942 8.66121 8.07646C8.46848 7.91468 8.18273 7.95916 8.05457 8.1119L6.91963 9.46451L7.62561 10.0569Z" fill="white"/>
<path d="M17.4391 3.87635L16.4684 6.44933H15.6625L14.6917 3.87635V6.44933H13.954V2.76434H15.0624L16.0654 5.38909L17.0684 2.76434H18.1769V6.44933H17.4391V3.87635Z" fill="white"/>
<path d="M24.9985 9.94894L26.3875 7.98241L25.7759 7.22704L23.5635 8.17684L25.0112 6.28306L24.441 5.57897L22.1292 8.55264L22.8049 9.38035L24.9888 8.48164L24.9967 8.49141L23.6636 10.4407L24.3327 11.2737L27.7221 9.63072L27.1519 8.92663L24.9985 9.94894Z" fill="white"/>
<defs>
<linearGradient id="paint0_linear_1_13580" x1="6.27673" y1="6.2767" x2="25.1832" y2="26.2635" gradientUnits="userSpaceOnUse">
<stop offset="0.0273393" stop-color="#949AA0"/>
<stop offset="0.403335" stop-color="#1A1D1E"/>
<stop offset="1" stop-color="#040606"/>
</linearGradient>
<linearGradient id="paint1_linear_1_13580" x1="16" y1="7.63257" x2="16" y2="24.3675" gradientUnits="userSpaceOnUse">
<stop stop-color="#7CD1F4"/>
<stop offset="1" stop-color="#1274B9"/>
</linearGradient>
</defs>
</svg>
