<svg width="37" height="37" viewBox="0 0 37 37" fill="none" xmlns="http://www.w3.org/2000/svg">
<path fill-rule="evenodd" clip-rule="evenodd" d="M34.6875 18.5C34.6875 27.4401 27.4401 34.6875 18.5 34.6875C9.55989 34.6875 2.3125 27.4401 2.3125 18.5C2.3125 9.55989 9.55989 2.3125 18.5 2.3125C27.4401 2.3125 34.6875 9.55989 34.6875 18.5ZM24.1933 31.1569C22.4562 31.9395 20.529 32.375 18.5 32.375C15.1504 32.375 12.0781 31.1881 9.68059 29.2119C12.1747 25.0267 16.1862 21.8534 20.9547 20.4496C22.3244 23.8859 23.4133 27.4645 24.1933 31.1569ZM26.3032 29.9745C25.5347 26.5187 24.5044 23.1617 23.2342 19.9254C24.2916 19.7484 25.3777 19.6562 26.4853 19.6562C28.4861 19.6562 30.4148 19.9565 32.2299 20.5136C31.659 24.4411 29.4428 27.8352 26.3032 29.9745ZM32.3706 18.1454C30.4971 17.6229 28.523 17.3438 26.4853 17.3438C25.0649 17.3438 23.6762 17.4792 22.3314 17.738C21.9806 16.9284 21.6146 16.127 21.2337 15.3342C24.2609 13.9905 27.0585 12.2237 29.5511 10.109C31.2565 12.3515 32.2949 15.1289 32.3706 18.1454ZM28.0028 8.3899C25.6627 10.3667 23.0368 12.0152 20.1959 13.2646C18.6962 10.3968 16.9988 7.64898 15.1219 5.03912C16.2032 4.76862 17.3348 4.625 18.5 4.625C22.177 4.625 25.5199 6.05531 28.0028 8.3899ZM12.8373 5.82936C8.76407 7.65252 5.73046 11.3821 4.8714 15.8832C5.66075 15.9412 6.45819 15.9707 7.26272 15.9707C11.0412 15.9707 14.6671 15.3194 18.0345 14.1226C16.5051 11.2239 14.766 8.45273 12.8373 5.82936ZM4.62853 18.184C4.62618 18.2891 4.625 18.3944 4.625 18.5C4.625 21.9595 5.89114 25.1234 7.9853 27.5534C10.7439 23.182 15.0104 19.8552 20.0555 18.3048C19.744 17.5973 19.4204 16.8963 19.085 16.2022C15.3975 17.5485 11.4156 18.2832 7.26272 18.2832C6.37664 18.2832 5.49817 18.2498 4.62853 18.184Z" fill="#E84C88"/>
</svg>
