<svg width="32" height="32" viewBox="0 0 32 32" fill="none" xmlns="http://www.w3.org/2000/svg">
<path d="M2 15.998C2 23.7288 8.26889 29.9982 16.0005 29.9982C23.7321 29.9982 30 23.7288 30 15.998C30 8.26515 23.7321 1.99817 16.0005 1.99817C8.26889 1.99817 2 8.26515 2 15.998Z" fill="url(#paint0_linear_1_13582)"/>
<path fill-rule="evenodd" clip-rule="evenodd" d="M19.6458 25.1252C20.0128 24.7717 22.1671 22.6973 23.4061 21.3309C24.587 20.0251 25.1808 18.345 25.0742 16.6027C24.9646 14.8085 24.1272 13.1468 22.7145 11.9265C20.3816 9.90934 16.6108 9.95033 14.309 12.0161C13.4694 12.7684 12.521 13.8005 12.4805 13.8447C11.8753 14.5029 11.92 15.5277 12.577 16.1326C13.235 16.7365 14.2568 16.6936 14.8637 16.0362C14.8718 16.0265 15.7466 15.0745 16.4683 14.4282C17.6801 13.3404 19.6181 13.5289 20.5994 14.3773C21.3469 15.0225 21.7885 15.8825 21.8445 16.7989C21.8972 17.6636 21.5998 18.5015 21.0086 19.1543C19.8409 20.4448 17.6912 22.5134 17.3942 22.7992C17.3732 22.8194 17.3616 22.8306 17.36 22.8322C16.7145 23.4506 16.6909 24.4738 17.309 25.1213C17.6267 25.4533 18.051 25.6215 18.4788 25.6215C18.8799 25.6215 19.2825 25.4721 19.5952 25.174C19.602 25.1674 19.6192 25.1508 19.6458 25.1252ZM9.48282 19.9577C10.631 20.9506 12.1266 21.4462 13.6243 21.4462C15.171 21.4462 16.7196 20.9183 17.8882 19.8685C18.6581 19.177 19.5214 18.2513 19.6891 18.0714C19.7041 18.0554 19.7136 18.0452 19.7168 18.0418C20.3218 17.3836 20.2779 16.3581 19.6204 15.7539C18.9636 15.1481 17.9394 15.1903 17.3349 15.8491C17.3346 15.8495 17.3331 15.8512 17.3305 15.854C17.2615 15.9285 16.4238 16.8338 15.7296 17.4581C14.5171 18.5439 12.5798 18.3581 11.5973 17.5079C10.8507 16.8622 10.4091 16.0019 10.3526 15.0849C10.2998 14.221 10.5978 13.385 11.1889 12.7296C12.4398 11.3493 14.8132 9.07641 14.8376 9.05329C15.4835 8.43554 15.5054 7.41095 14.8887 6.76418C14.2705 6.11828 13.2474 6.09357 12.6019 6.71216L12.5913 6.72234C12.3917 6.91381 10.0892 9.12264 8.79251 10.5552C7.60977 11.8603 7.01831 13.5403 7.12288 15.2819C7.23332 17.0771 8.07073 18.7377 9.48282 19.9577Z" fill="white"/>
<defs>
<linearGradient id="paint0_linear_1_13582" x1="2" y1="29.9982" x2="2" y2="1.99817" gradientUnits="userSpaceOnUse">
<stop stop-color="#2255FF"/>
<stop offset="1" stop-color="#00AAFF"/>
</linearGradient>
</defs>
</svg>
