<svg width="37" height="35" viewBox="0 0 37 35" fill="none" xmlns="http://www.w3.org/2000/svg">
<path d="M0 12.6276C0.818386 10.7517 3.68274 7 8.59305 7C14.8497 7 15.0873 11.7161 15.0873 13.3806C15.0873 17.0466 12.5113 18.811 9.92158 20.5847C7.30415 22.3775 4.67272 24.1798 4.67272 27.9647C4.67272 32.6412 8.52705 34.8869 10.4542 34.9398C1.06918 34.9398 0.118798 28.2421 0.118798 26.9343C0.118798 23.2182 1.86918 21.218 3.45027 19.4114C4.75251 17.9233 5.9399 16.5665 5.9399 14.4902C5.9399 10.3686 0.950384 11.1216 0 12.6276Z" fill="white"/>
<path d="M0 12.6276C0.818386 10.7517 3.68274 7 8.59305 7C14.8497 7 15.0873 11.7161 15.0873 13.3806C15.0873 17.0466 12.5113 18.811 9.92158 20.5847C7.30415 22.3775 4.67272 24.1798 4.67272 27.9647C4.67272 32.6412 8.52705 34.8869 10.4542 34.9398C1.06918 34.9398 0.118798 28.2421 0.118798 26.9343C0.118798 23.2182 1.86918 21.218 3.45027 19.4114C4.75251 17.9233 5.9399 16.5665 5.9399 14.4902C5.9399 10.3686 0.950384 11.1216 0 12.6276Z" fill="url(#paint0_linear_1_13635)"/>
<path d="M14.5726 18.9685C15.8133 18.5326 18.7226 17.304 20.4333 15.8773C20.2749 14.2128 20.9084 12.588 21.5816 11.9539C22.4132 12.6672 22.8488 13.9618 22.9676 14.728C24.4328 15.1243 27.4503 16.7967 27.7987 20.316C27.8938 20.9501 27.8383 21.6634 27.7987 21.9408C27.3763 22.139 26.1752 22.456 24.5912 22.2975C23.6039 22.1987 22.9217 21.7894 22.0538 21.2688C21.1812 20.7453 20.1209 20.1093 18.3741 19.563C16.4733 18.9685 14.8893 18.9685 14.5726 18.9685Z" fill="white"/>
<path d="M14.5726 18.9685C15.8133 18.5326 18.7226 17.304 20.4333 15.8773C20.2749 14.2128 20.9084 12.588 21.5816 11.9539C22.4132 12.6672 22.8488 13.9618 22.9676 14.728C24.4328 15.1243 27.4503 16.7967 27.7987 20.316C27.8938 20.9501 27.8383 21.6634 27.7987 21.9408C27.3763 22.139 26.1752 22.456 24.5912 22.2975C23.6039 22.1987 22.9217 21.7894 22.0538 21.2688C21.1812 20.7453 20.1209 20.1093 18.3741 19.563C16.4733 18.9685 14.8893 18.9685 14.5726 18.9685Z" fill="url(#paint1_linear_1_13635)"/>
<path d="M16.0377 20.2763C13.5034 19.8325 11.497 20.4613 10.8106 20.8312C16.4179 20.2288 19.6149 24.279 20.5125 26.3795C20.4201 26.6041 21.6608 26.6965 22.2152 26.6965C22.8067 26.6965 23.6799 26.3582 24.5102 26.0365C25.2364 25.7551 25.9298 25.4865 26.3731 25.468C27.1335 25.4363 27.7723 25.7454 27.9967 25.9039C28.0231 25.6001 27.9017 24.8418 27.2047 24.2394C26.7372 23.8353 26.1101 23.7965 25.3478 23.7492C24.6895 23.7084 23.9305 23.6614 23.0864 23.3675C22.4247 23.1372 21.7315 22.7394 20.9653 22.2998C19.6224 21.5291 18.0548 20.6296 16.0377 20.2763Z" fill="white"/>
<path d="M16.0377 20.2763C13.5034 19.8325 11.497 20.4613 10.8106 20.8312C16.4179 20.2288 19.6149 24.279 20.5125 26.3795C20.4201 26.6041 21.6608 26.6965 22.2152 26.6965C22.8067 26.6965 23.6799 26.3582 24.5102 26.0365C25.2364 25.7551 25.9298 25.4865 26.3731 25.468C27.1335 25.4363 27.7723 25.7454 27.9967 25.9039C28.0231 25.6001 27.9017 24.8418 27.2047 24.2394C26.7372 23.8353 26.1101 23.7965 25.3478 23.7492C24.6895 23.7084 23.9305 23.6614 23.0864 23.3675C22.4247 23.1372 21.7315 22.7394 20.9653 22.2998C19.6224 21.5291 18.0548 20.6296 16.0377 20.2763Z" fill="url(#paint2_linear_1_13635)"/>
<path fill-rule="evenodd" clip-rule="evenodd" d="M10.8898 33.5923C13.1862 33.5923 15.0477 31.7292 15.0477 29.4311C15.0477 27.1329 13.1862 25.2698 10.8898 25.2698C8.59345 25.2698 6.73189 27.1329 6.73189 29.4311C6.73189 31.7292 8.59345 33.5923 10.8898 33.5923ZM10.8898 31.2937C11.9177 31.2937 12.751 30.4598 12.751 29.4311C12.751 28.4023 11.9177 27.5684 10.8898 27.5684C9.86192 27.5684 9.02865 28.4023 9.02865 29.4311C9.02865 30.4598 9.86192 31.2937 10.8898 31.2937Z" fill="white"/>
<path fill-rule="evenodd" clip-rule="evenodd" d="M10.8898 33.5923C13.1862 33.5923 15.0477 31.7292 15.0477 29.4311C15.0477 27.1329 13.1862 25.2698 10.8898 25.2698C8.59345 25.2698 6.73189 27.1329 6.73189 29.4311C6.73189 31.7292 8.59345 33.5923 10.8898 33.5923ZM10.8898 31.2937C11.9177 31.2937 12.751 30.4598 12.751 29.4311C12.751 28.4023 11.9177 27.5684 10.8898 27.5684C9.86192 27.5684 9.02865 28.4023 9.02865 29.4311C9.02865 30.4598 9.86192 31.2937 10.8898 31.2937Z" fill="url(#paint3_linear_1_13635)"/>
<path d="M6.49429 25.7335C7.04987 24.3754 8.82014 22.0201 12.157 22.0201C16.5525 22.0201 19.4829 25.8247 19.4829 29.7481C19.4829 30.8181 18.8493 32.5223 18.8493 32.5223C20.6709 32.5223 22.73 33.6319 22.73 34.6623C20.7422 34.8964 16.9513 35.0536 12.3769 34.9829C14.8272 34.3272 16.6317 32.0901 16.6317 29.4311C16.6317 26.2574 14.061 23.6846 10.8898 23.6846C9.1258 23.6846 7.54758 24.4807 6.49429 25.7335Z" fill="white"/>
<path d="M6.49429 25.7335C7.04987 24.3754 8.82014 22.0201 12.157 22.0201C16.5525 22.0201 19.4829 25.8247 19.4829 29.7481C19.4829 30.8181 18.8493 32.5223 18.8493 32.5223C20.6709 32.5223 22.73 33.6319 22.73 34.6623C20.7422 34.8964 16.9513 35.0536 12.3769 34.9829C14.8272 34.3272 16.6317 32.0901 16.6317 29.4311C16.6317 26.2574 14.061 23.6846 10.8898 23.6846C9.1258 23.6846 7.54758 24.4807 6.49429 25.7335Z" fill="url(#paint4_linear_1_13635)"/>
<defs>
<linearGradient id="paint0_linear_1_13635" x1="25.0588" y1="7.58823" x2="0.764706" y2="34.7059" gradientUnits="userSpaceOnUse">
<stop stop-color="#FCA336"/>
<stop offset="1" stop-color="#FC7625"/>
</linearGradient>
<linearGradient id="paint1_linear_1_13635" x1="25.0588" y1="7.58823" x2="0.764706" y2="34.7059" gradientUnits="userSpaceOnUse">
<stop stop-color="#FCA336"/>
<stop offset="1" stop-color="#FC7625"/>
</linearGradient>
<linearGradient id="paint2_linear_1_13635" x1="25.0588" y1="7.58823" x2="0.764706" y2="34.7059" gradientUnits="userSpaceOnUse">
<stop stop-color="#FCA336"/>
<stop offset="1" stop-color="#FC7625"/>
</linearGradient>
<linearGradient id="paint3_linear_1_13635" x1="25.0588" y1="7.58823" x2="0.764706" y2="34.7059" gradientUnits="userSpaceOnUse">
<stop stop-color="#FCA336"/>
<stop offset="1" stop-color="#FC7625"/>
</linearGradient>
<linearGradient id="paint4_linear_1_13635" x1="25.0588" y1="7.58823" x2="0.764706" y2="34.7059" gradientUnits="userSpaceOnUse">
<stop stop-color="#FCA336"/>
<stop offset="1" stop-color="#FC7625"/>
</linearGradient>
</defs>
</svg>
