<svg width="32" height="32" viewBox="0 0 32 32" fill="none" xmlns="http://www.w3.org/2000/svg">
<path d="M14.6882 6.11264C10.5834 4.40048 0 12.7318 0 19.7569C0 23.8696 5.20067 28 13.7959 28C24.3257 28 29.3943 20.8336 27.6453 17.3211C26.5301 15.0814 23.7011 14.8852 23.5226 14.2851C23.4071 13.8968 24.8254 11.5668 23.2906 10.3136C20.6728 8.17615 16.2231 11.2491 15.7234 10.7019C15.4114 10.3603 16.9013 7.03572 14.6882 6.11264Z" fill="#E31C34"/>
<path d="M22.5352 18.9447C22.8716 22.3829 18.8378 25.5823 13.5256 26.0906C8.21339 26.5989 3.63431 24.2237 3.29795 20.7855C2.9616 17.3473 6.99534 14.148 12.3076 13.6396C17.6198 13.1313 22.1989 15.5065 22.5352 18.9447Z" fill="white"/>
<path fill-rule="evenodd" clip-rule="evenodd" d="M17.1354 19.1216C17.7856 21.4196 16.0964 23.8959 13.3623 24.6527C10.6282 25.4094 7.88471 24.16 7.23446 21.862C6.58421 19.564 8.27348 17.0877 11.0076 16.3309C13.7416 15.5742 16.4851 16.8236 17.1354 19.1216ZM12.2722 20.6022C12.6337 21.3712 12.1878 22.3343 11.2763 22.7534C10.3648 23.1725 9.3328 22.8889 8.97131 22.1199C8.60983 21.3509 9.05572 20.3877 9.96724 19.9686C10.8788 19.5495 11.9107 19.8331 12.2722 20.6022ZM13.4677 20.2022C13.8229 20.0389 13.9966 19.6636 13.8558 19.364C13.7149 19.0643 13.3128 18.9538 12.9577 19.1171C12.6025 19.2804 12.4287 19.6557 12.5696 19.9554C12.7104 20.255 13.1126 20.3655 13.4677 20.2022Z" fill="black"/>
<path d="M21.8381 4.47733C22.325 4.35816 22.8352 4.29464 23.362 4.29464C26.8512 4.29464 29.6799 7.09218 29.6799 10.5431C29.6799 11.3053 29.5424 12.0332 29.2917 12.7055C29.0699 13.3 29.3775 13.9597 29.9786 14.1789C30.5797 14.3982 31.2467 14.0941 31.4684 13.4996C31.8126 12.5768 32 11.5803 32 10.5431C32 5.82488 28.1326 2 23.362 2C22.6458 2 21.9485 2.08644 21.2807 2.24989C20.6588 2.40212 20.2794 3.02416 20.4333 3.63925C20.5872 4.25433 21.2162 4.62956 21.8381 4.47733Z" fill="#FD9940"/>
<path d="M22.8632 8.48247C23.0221 8.44506 23.1889 8.42499 23.362 8.42499C24.5448 8.42499 25.5036 9.3733 25.5036 10.5431C25.5036 10.7985 25.4584 11.0408 25.3766 11.2645C25.1584 11.8602 25.4699 12.5181 26.0723 12.7339C26.6747 12.9496 27.3399 12.6416 27.558 12.0458C27.7303 11.5753 27.8238 11.0687 27.8238 10.5431C27.8238 8.10601 25.8261 6.13035 23.362 6.13035C23.0066 6.13035 22.6595 6.17166 22.3259 6.2502C21.7026 6.39693 21.3176 7.01559 21.466 7.63201C21.6144 8.24844 22.2399 8.6292 22.8632 8.48247Z" fill="#FD9940"/>
</svg>
