<svg width="32" height="32" viewBox="0 0 32 32" fill="none" xmlns="http://www.w3.org/2000/svg">
<path d="M16 30C23.732 30 30 23.732 30 16C30 8.26801 23.732 2 16 2C8.26801 2 2 8.26801 2 16C2 23.732 8.26801 30 16 30Z" fill="#FF0000"/>
<path d="M16 9.61484C19.5213 9.61484 22.3852 12.4788 22.3852 16.0001C22.3852 19.5214 19.5213 22.3853 16 22.3853C12.4787 22.3853 9.61478 19.5214 9.61478 16.0001C9.61478 12.4788 12.4787 9.61484 16 9.61484ZM16 9.00006C12.1333 9.00006 9 12.1333 9 16.0001C9 19.8668 12.1333 23.0001 16 23.0001C19.8667 23.0001 23 19.8668 23 16.0001C23 12.1333 19.8667 9.00006 16 9.00006Z" fill="white"/>
<path d="M14 20L20 15.8261L14 12V20Z" fill="white"/>
</svg>
