<svg width="24" height="16" viewBox="0 0 24 16" fill="none" xmlns="http://www.w3.org/2000/svg">
<path fill-rule="evenodd" clip-rule="evenodd" d="M1.77997e-05 7.99397C-0.00151626 7.73606 0.0961089 7.47766 0.292893 7.28088L6.65685 0.916917C7.04738 0.526392 7.68054 0.526392 8.07107 0.916917C8.46159 1.30744 8.46159 1.94061 8.07107 2.33113L3.4022 7H23C23.5523 7 24 7.44772 24 8C24 8.55228 23.5523 9 23 9H3.40948L8.07107 13.6616C8.46159 14.0521 8.46159 14.6853 8.07107 15.0758C7.68054 15.4663 7.04738 15.4663 6.65686 15.0758L0.292895 8.71184C0.0971918 8.51614 -0.000438683 8.2595 2.90913e-06 8.003C-3.23235e-08 8.002 0 8.001 0 8C0 7.99799 5.94198e-06 7.99598 1.77997e-05 7.99397Z" fill="white"/>
</svg>
