<svg width="24" height="15" viewBox="0 0 24 15" fill="none" xmlns="http://www.w3.org/2000/svg">
<path fill-rule="evenodd" clip-rule="evenodd" d="M24 7.37494C24.0015 7.63285 23.9039 7.89124 23.7071 8.08802L17.3431 14.452C16.9526 14.8425 16.3195 14.8425 15.9289 14.452C15.5384 14.0615 15.5384 13.4283 15.9289 13.0378L20.5978 8.3689L1 8.3689C0.447716 8.3689 0 7.92118 0 7.3689C0 6.81661 0.447716 6.3689 1 6.3689L20.5907 6.3689L15.9289 1.70718C15.5384 1.31665 15.5384 0.683486 15.9289 0.292962C16.3195 -0.0975628 16.9526 -0.0975628 17.3431 0.292962L23.7071 6.65692C23.903 6.8528 24.0006 7.10972 24 7.36645C24 7.36727 24 7.36808 24 7.3689C24 7.37091 24 7.37292 24 7.37494Z" fill="white"/>
</svg>
