<svg width="140" height="172" viewBox="0 0 172 172" fill="none" xmlns="http://www.w3.org/2000/svg">
    <g clip-path="url(#clip0_1_26)">
        <path d="M95.3377 15.9457C97.4586 21.7795 97.5596 28.294 95.6407 34.225C94.5298 37.8225 92.6109 41.5173 93.2169 45.3092C93.7218 48.4206 95.7417 51.0458 96.1457 54.1572C96.9536 60.3799 90.793 66.3109 92.4089 72.4364C93.2169 75.2561 95.5397 77.4924 98.3675 78.6591C101.094 79.8259 104.225 80.0204 107.255 79.7287C111.699 79.3398 116.445 77.7841 118.566 73.8949C120.182 70.8807 119.677 67.186 119.172 63.8802C116.647 49.004 113.82 33.9333 107.457 20.1266"
              fill="#263238"/>
        <path d="M93.4189 61.9356C93.4189 61.9356 93.6209 62.0328 93.9238 62.13C94.2268 62.2272 94.8328 62.3245 95.4387 62.2272C96.1457 62.13 96.9536 62.0328 97.8626 61.5466C98.6705 61.0605 99.5795 60.3799 100.185 59.3103C100.69 58.2408 100.993 56.8796 100.589 55.5184C100.387 54.8378 100.084 54.1571 99.6805 53.5738C99.1755 52.9904 98.6705 52.407 97.9636 52.0181C96.6507 51.0458 95.2367 50.2679 93.9238 49.1012C92.7119 47.9344 91.904 46.3787 91.702 44.6286C91.399 42.8785 91.601 41.1283 92.106 39.5726C92.5099 37.9197 93.2169 36.4613 93.8228 35.1C95.1358 32.2804 96.4487 29.7524 96.8526 27.4189C97.3576 25.0854 97.2566 23.1408 96.8526 21.8768C96.4487 20.6128 96.0447 20.0294 96.0447 20.0294C96.0447 20.0294 96.4487 20.6128 96.7516 21.8768C97.0546 23.1408 97.1556 25.0854 96.6507 27.3216C96.1457 29.5579 94.9338 32.0859 93.5199 34.9056C92.8129 36.2668 92.2069 37.8225 91.702 39.4754C91.298 41.1283 91.096 42.8785 91.298 44.6286C91.5 46.3787 92.3079 48.1289 93.6209 49.2956C94.9338 50.4624 96.4487 51.2402 97.6606 52.2125C98.9735 53.0876 99.8824 54.2544 100.185 55.6156C100.488 56.8796 100.286 58.2408 99.7814 59.2131C99.2765 60.2826 98.4685 60.9633 97.6606 61.4494C96.8526 61.9356 96.0447 62.0328 95.3377 62.13C94.1258 62.2272 93.4189 61.9356 93.4189 61.9356Z"
              fill="#263238"/>
        <path d="M154.419 157.902L156.944 167.236L183 166.944C183 166.944 181.081 162.569 166.841 162.763L165.831 157.902H154.419Z"
              fill="#B78876"/>
        <path d="M59.7881 18.182C59.9901 18.6682 66.6556 51.3375 66.6556 51.3375L51.1026 52.0181L45.043 23.9186L59.7881 18.182Z"
              fill="#455A64"/>
        <path d="M66.6556 51.3375L68.4735 50.6569L61.7069 18.4737L59.5861 18.2793L66.6556 51.3375Z" fill="#263238"/>
        <path d="M53.5265 25.3771C53.6275 25.766 53.2235 26.1549 52.8195 26.2521C52.4156 26.3494 52.0116 25.9604 51.9106 25.5715C51.8096 25.1826 52.2136 24.7937 52.6175 24.6965C53.1225 24.5992 53.5265 24.8909 53.5265 25.3771Z"
              fill="#263238"/>
        <path d="M50.2947 48.3233L50.0927 44.0452L56.7583 41.42L54.1325 35.489C52.8195 32.7665 49.3858 31.5998 46.6589 33.0582C45.75 33.5444 44.841 34.0305 44.0331 34.4194C42.1142 35.3917 40.8013 37.1419 40.2963 39.1837C39.3874 42.684 38.6805 49.9763 38.7814 49.5873"
              fill="#B78876"/>
        <path d="M32.5199 157.221C32.5199 157.221 5.15066 164.513 4.03974 164.902C2.42385 165.486 2.62583 171.319 5.25165 171.222C6.46358 171.222 26.2583 171.903 28.7831 171.806C31.3079 171.611 38.7814 168.791 38.7814 168.791L32.5199 157.221Z"
              fill="#E8505B"/>
        <path d="M21.1076 167.236C21.0066 167.236 20.8046 165.875 19.8957 164.416C18.9868 162.958 17.8758 162.083 17.9768 161.985C17.9768 161.888 19.3907 162.666 20.2997 164.222C21.3096 165.777 21.2086 167.236 21.1076 167.236Z"
              fill="#263238"/>
        <path d="M23.9354 165.972C23.8344 165.972 23.5314 164.708 22.8245 163.347C22.1175 161.985 21.2086 161.013 21.3096 160.916C21.4106 160.819 22.4205 161.694 23.2285 163.152C24.0364 164.611 24.1374 165.972 23.9354 165.972Z"
              fill="#263238"/>
        <path d="M26.6622 165.291C26.5612 165.291 26.6623 163.93 26.0563 162.471C25.4503 161.013 24.4404 160.138 24.5414 160.041C24.6424 159.943 25.8543 160.721 26.4603 162.374C27.0662 163.93 26.7632 165.291 26.6622 165.291Z"
              fill="#263238"/>
        <path d="M26.1573 161.888C26.1573 161.888 25.8543 161.207 25.8543 159.943C25.8543 159.36 25.9553 158.582 26.1573 157.804C26.2583 157.415 26.3593 157.027 26.5613 156.54C26.6623 156.346 26.7632 156.054 26.9652 155.86C27.2682 155.665 27.6722 155.665 27.8742 155.86C28.0761 156.054 28.1771 156.346 28.2781 156.638C28.2781 156.832 28.2781 157.124 28.2781 157.318C28.2781 157.804 28.1771 158.193 28.0762 158.582C27.8742 159.36 27.5712 160.041 27.2682 160.624C26.6623 161.694 26.0563 162.277 26.0563 162.18C25.9553 162.18 26.4603 161.499 26.9652 160.43C27.2682 159.846 27.4702 159.263 27.6722 158.485C27.7732 158.096 27.7732 157.707 27.7732 157.318C27.7732 156.929 27.7732 156.443 27.5712 156.249C27.4702 156.151 27.3692 156.151 27.1672 156.249C27.0662 156.346 26.9652 156.54 26.8642 156.735C26.6622 157.124 26.5613 157.513 26.4603 157.902C26.2583 158.679 26.1573 159.36 26.0563 159.943C26.1573 161.11 26.2583 161.888 26.1573 161.888Z"
              fill="#263238"/>
        <path d="M26.1573 161.596C26.1573 161.596 26.7632 161.305 27.8742 161.305C28.4801 161.305 29.0861 161.402 29.793 161.499C30.197 161.596 30.5 161.694 30.904 161.888C31.3079 162.083 31.7119 162.569 31.5099 163.055C31.4089 163.541 31.005 163.93 30.5 164.027C30.096 164.124 29.6921 164.124 29.2881 164.027C28.5811 163.833 27.9752 163.541 27.4702 163.152C26.5613 162.471 26.1573 161.985 26.1573 161.985C26.1573 161.888 26.7632 162.374 27.5712 162.958C27.9752 163.249 28.5811 163.541 29.2881 163.638C29.5911 163.735 29.995 163.735 30.298 163.638C30.601 163.541 30.904 163.347 31.005 163.055C31.106 162.763 30.904 162.471 30.601 162.277C30.298 162.083 29.995 161.985 29.5911 161.888C28.8841 161.694 28.2781 161.596 27.7732 161.596C26.8642 161.596 26.2583 161.694 26.1573 161.596Z"
              fill="#263238"/>
        <path d="M16.9669 167.527C16.8659 167.527 16.9669 166.361 16.4619 165.194C15.957 163.93 15.048 163.249 15.149 163.152C15.149 163.055 16.3609 163.638 16.8659 164.999C17.3709 166.361 17.0679 167.527 16.9669 167.527Z"
              fill="#263238"/>
        <path d="M36.0546 168.694C36.0546 168.694 35.6507 168.889 35.0447 169.18C34.3377 169.472 33.3278 169.764 32.0149 170.055C29.3891 170.736 25.6523 171.028 21.6126 171.028C17.4718 171.028 13.8361 170.833 11.1093 170.736C9.79635 170.639 8.78641 170.639 7.97847 170.542C7.27151 170.542 6.86755 170.444 6.86755 170.444C6.86755 170.444 7.27152 170.444 8.07946 170.347C8.88741 170.347 9.99833 170.347 11.2103 170.347C13.9371 170.444 17.6738 170.444 21.7136 170.542C25.7533 170.542 29.4901 170.25 32.1159 169.764C34.4387 169.278 35.9536 168.597 36.0546 168.694Z"
              fill="#263238"/>
        <path d="M36.8626 169.278C36.8626 169.375 36.0546 168.889 34.8427 168.402C33.6308 167.916 31.7119 167.236 29.692 167.527C27.6722 167.819 26.1573 169.18 25.2483 170.055C24.3394 171.028 23.7334 171.611 23.6324 171.611C23.6324 171.611 24.0364 170.833 24.9453 169.861C25.4503 169.375 25.9553 168.791 26.7632 168.208C27.5712 167.625 28.4801 167.236 29.591 167.041C31.8129 166.75 33.7318 167.43 34.9437 168.014C36.1556 168.791 36.8626 169.278 36.8626 169.278Z"
              fill="#263238"/>
        <path d="M61.606 149.929C61.606 149.929 87.4603 166.263 88.3692 166.944C89.7831 167.916 88.1672 172.778 85.7434 171.903C84.6325 171.514 62.9189 165.68 60.596 164.805C58.2732 163.93 52.0116 158.971 52.0116 158.971L61.606 149.929Z"
              fill="#E8505B"/>
        <path d="M69.2815 162.763C69.1805 162.763 69.5844 161.305 70.9983 160.138C72.4123 158.874 73.9272 158.582 73.9272 158.679C73.9272 158.777 72.6142 159.263 71.3013 160.43C69.9884 161.596 69.3825 162.86 69.2815 162.763Z"
              fill="#263238"/>
        <path d="M66.9586 160.819C66.8576 160.819 67.3626 159.555 68.5745 158.388C69.7864 157.221 70.9983 156.735 71.0993 156.832C71.2003 156.929 69.9884 157.61 68.8775 158.679C67.6656 159.749 67.0596 160.819 66.9586 160.819Z"
              fill="#263238"/>
        <path d="M64.6358 159.36C64.5348 159.36 64.6358 157.902 65.7467 156.638C66.8576 155.276 68.2715 154.887 68.2715 154.985C68.3725 155.082 67.0596 155.665 66.0497 156.929C65.0397 158.096 64.7368 159.36 64.6358 159.36Z"
              fill="#263238"/>
        <path d="M66.1507 156.249C66.0497 156.249 66.4536 155.568 66.7566 154.401C66.8576 153.818 67.0596 153.137 67.0596 152.36C67.0596 151.971 67.0596 151.582 67.0596 151.096C67.0596 150.901 66.9586 150.707 66.9586 150.609C66.8576 150.512 66.7566 150.512 66.5546 150.512C66.2516 150.609 66.1507 151.096 65.9487 151.484C65.8477 151.873 65.7467 152.262 65.6457 152.651C65.5447 153.429 65.6457 154.11 65.7467 154.693C65.9487 155.86 66.1507 156.638 66.0497 156.638C66.0497 156.638 65.6457 155.957 65.3427 154.79C65.2417 154.207 65.1407 153.429 65.1407 152.651C65.1407 152.262 65.2417 151.776 65.3427 151.387C65.4437 151.193 65.4437 150.998 65.6457 150.707C65.7467 150.512 65.9487 150.22 66.2517 150.123C66.5546 150.026 66.9586 150.026 67.1606 150.318C67.3626 150.609 67.3626 150.804 67.3626 151.096C67.3626 151.582 67.3626 151.971 67.3626 152.36C67.2616 153.137 67.1606 153.915 66.9586 154.499C66.6556 155.665 66.1507 156.249 66.1507 156.249Z"
              fill="#263238"/>
        <path d="M66.1507 155.957C66.1507 156.054 65.5447 155.763 64.4338 155.471C63.9288 155.374 63.3228 155.276 62.6159 155.179C62.3129 155.179 61.9089 155.179 61.505 155.276C61.202 155.374 60.899 155.568 60.899 155.86C60.899 156.152 61.101 156.443 61.303 156.638C61.606 156.832 61.9089 156.929 62.3129 156.929C63.0199 157.027 63.6258 156.929 64.1308 156.735C65.1407 156.443 65.7467 156.152 65.8477 156.249C65.8477 156.249 65.3427 156.638 64.2318 157.027C63.7268 157.221 63.0199 157.416 62.3129 157.318C61.9089 157.318 61.505 157.221 61.101 156.929C60.697 156.735 60.394 156.249 60.495 155.763C60.495 155.179 61 154.888 61.505 154.79C61.9089 154.693 62.3129 154.693 62.7169 154.693C63.4238 154.693 64.1308 154.888 64.6358 155.082C65.6457 155.568 66.2517 155.957 66.1507 155.957Z"
              fill="#263238"/>
        <path d="M82.4106 171.028C82.4106 171.028 82.0066 170.736 81.8046 170.055C81.6027 169.375 81.7036 168.305 82.3096 167.333C82.6126 166.847 82.9156 166.458 83.2185 166.069C83.5215 165.68 83.8245 165.388 84.1275 165.194C84.4305 164.999 84.7334 164.902 84.9354 164.902C85.1374 164.902 85.2384 164.902 85.2384 164.999C85.2384 165.097 84.7334 164.999 84.3295 165.486C84.1275 165.68 83.8245 166.069 83.6225 166.361C83.3195 166.75 83.1176 167.138 82.8146 167.625C82.3096 168.5 82.1076 169.375 82.2086 170.055C82.2086 170.639 82.5116 170.93 82.4106 171.028Z"
              fill="#263238"/>
        <path d="M73.1192 164.319C73.0182 164.319 73.0182 163.055 74.0281 161.888C75.0381 160.721 76.25 160.527 76.351 160.624C76.351 160.721 75.3411 161.207 74.4321 162.18C73.5232 163.249 73.3212 164.319 73.1192 164.319Z"
              fill="#263238"/>
        <path d="M54.6374 159.846C54.6374 159.846 55.0414 160.138 55.7483 160.624C56.4553 161.11 57.5662 161.791 58.9801 162.471C60.394 163.152 62.1109 163.93 64.0298 164.611C65.9487 165.291 68.1705 165.972 70.4934 166.652C75.1391 167.916 79.3808 169.083 82.4106 169.958C83.8245 170.347 85.0364 170.736 86.0464 171.028C86.8543 171.319 87.3593 171.417 87.3593 171.514C87.3593 171.514 86.8543 171.417 86.0464 171.222C85.1374 171.028 83.9255 170.639 82.4106 170.25C79.3808 169.472 75.1391 168.305 70.4934 167.041C68.1705 166.361 65.9487 165.68 64.0298 164.999C62.1109 164.222 60.293 163.444 58.9801 162.763C57.5662 161.985 56.5563 161.305 55.8493 160.721C54.9404 160.235 54.5364 159.943 54.6374 159.846Z"
              fill="#263238"/>
        <path d="M53.6275 160.235C53.6275 160.138 54.4354 159.943 55.8493 159.652C57.2632 159.457 59.2831 159.36 61.303 160.332C62.3129 160.819 63.1209 161.499 63.6258 162.277C64.2318 163.055 64.5348 163.735 64.8377 164.319C65.3427 165.583 65.6457 166.361 65.5447 166.361C65.4437 166.361 65.1407 165.583 64.5348 164.416C63.9288 163.249 62.9189 161.596 61.101 160.624C59.2831 159.749 57.2632 159.749 55.9503 159.943C54.5364 160.138 53.6275 160.332 53.6275 160.235Z"
              fill="#263238"/>
        <path d="M123.616 52.6987L102.407 54.6433L93.8229 56.9768C90.1871 57.9491 86.7533 59.7965 84.0265 62.4217L56.2533 88.0904L51.2037 48.2261L37.3676 49.3929L39.6904 100.73C41.7103 106.953 47.7699 111.328 54.8394 111.328C58.9801 111.328 63.0199 109.676 66.0497 106.856L85.6424 88.9655L86.2484 114.537L72.5133 125.232L125.434 153.721C125.434 153.721 128.262 142.831 126.949 118.718C126.747 114.245 135.129 100.828 135.836 96.8411C138.361 81.6733 137.957 59.4076 137.957 59.4076L123.616 52.6987Z"
              fill="#E8505B"/>
        <path d="M136.644 58.9214C136.644 58.9214 147.349 62.7134 149.975 70.8807C152.298 78.0757 159.974 118.426 159.974 118.426L167.548 161.207L151.591 161.791L133.21 88.9655L136.644 58.9214Z"
              fill="#E8505B"/>
        <path d="M137.351 106.078C137.351 106.078 137.25 105.786 137.048 105.203C136.846 104.62 136.644 103.842 136.341 102.772C135.735 100.73 135.028 97.9107 134.321 94.7021C133.614 91.5907 133.008 88.6738 132.604 86.632C132.402 85.5624 132.301 84.7846 132.2 84.2012C132.099 83.6178 132.099 83.3261 132.099 83.3261C132.099 83.3261 132.2 83.6178 132.402 84.2012C132.604 84.8818 132.705 85.6597 133.008 86.632C133.513 88.771 134.119 91.5907 134.826 94.7021C135.533 97.8134 136.24 100.633 136.745 102.772C136.947 103.744 137.149 104.522 137.351 105.203C137.351 105.786 137.452 106.078 137.351 106.078Z"
              fill="#263238"/>
        <path d="M39.6904 53.1848C39.5894 53.1848 39.3874 52.3098 39.2864 51.143C39.1854 49.9762 39.1854 49.1012 39.2864 49.1012C39.3874 49.1012 39.5894 49.9762 39.6904 51.143C39.7914 52.2125 39.7914 53.1848 39.6904 53.1848Z"
              fill="#263238"/>
        <path d="M43.7301 53.2821C43.6291 53.2821 43.4272 52.3098 43.4272 51.143C43.3262 49.9762 43.4271 49.0039 43.5281 49.0039C43.6291 49.0039 43.8311 49.9762 43.8311 51.143C43.9321 52.3098 43.8311 53.2821 43.7301 53.2821Z"
              fill="#263238"/>
        <path d="M47.7699 53.0876C47.6689 53.0876 47.4669 52.0181 47.3659 50.6569C47.2649 49.2956 47.3659 48.2261 47.4669 48.2261C47.5679 48.2261 47.7699 49.2956 47.8709 50.6569C47.9719 52.0181 47.8709 53.0876 47.7699 53.0876Z"
              fill="#263238"/>
        <path d="M55.5464 94.2159C55.4454 94.2159 55.4454 92.6602 55.6474 90.7156C55.8493 88.771 56.1523 87.2154 56.2533 87.2154C56.3543 87.2154 56.3543 88.771 56.1523 90.7156C55.9503 92.6602 55.7484 94.2159 55.5464 94.2159Z"
              fill="#263238"/>
        <path d="M154.318 157.221C154.419 157.221 154.722 158.193 154.924 159.36C155.126 160.527 155.227 161.596 155.126 161.596C155.025 161.596 154.722 160.624 154.52 159.457C154.217 158.291 154.116 157.318 154.318 157.221Z"
              fill="#263238"/>
        <path d="M159.469 157.221C159.57 157.221 159.873 158.096 160.075 159.166C160.276 160.235 160.276 161.207 160.175 161.207C160.075 161.207 159.772 160.332 159.57 159.263C159.469 158.193 159.368 157.318 159.469 157.221Z"
              fill="#263238"/>
        <path d="M164.518 156.735C164.619 156.735 164.821 157.707 165.023 158.971C165.225 160.235 165.427 161.207 165.225 161.207C165.124 161.207 164.72 160.235 164.518 159.068C164.316 157.804 164.417 156.735 164.518 156.735Z"
              fill="#263238"/>
        <path d="M145.329 63.8802C145.329 63.9774 144.219 63.8802 142.502 64.2691C140.785 64.5608 138.462 65.4358 136.442 67.186C134.422 68.9361 133.21 70.978 132.604 72.6309C131.998 74.1865 131.897 75.3533 131.796 75.2561C131.796 75.2561 131.796 74.9644 131.796 74.4782C131.796 73.9921 131.998 73.3115 132.2 72.4364C132.705 70.7835 133.917 68.5472 136.038 66.7971C138.159 65.0469 140.583 64.1719 142.401 63.9774C143.31 63.8802 144.017 63.7829 144.522 63.7829C145.026 63.7829 145.329 63.8802 145.329 63.8802Z"
              fill="#263238"/>
        <path d="M87.9653 99.9525C88.0662 99.9525 87.5613 98.6885 87.0563 96.6467C86.5513 94.6049 86.1474 91.688 86.2484 88.4794C86.4503 85.2708 87.1573 82.4511 87.8643 80.4093C88.5712 78.4647 89.1772 77.2007 89.1772 77.2007C89.1772 77.2007 88.9752 77.4924 88.6722 77.9785C88.3692 78.4647 87.9653 79.2425 87.5613 80.312C86.7533 82.2566 85.9454 85.1735 85.7434 88.4794C85.5414 91.7852 86.0464 94.7021 86.6523 96.7439C86.9553 97.8135 87.2583 98.5913 87.4603 99.1747C87.7633 99.6608 87.8643 99.9525 87.9653 99.9525Z"
              fill="#263238"/>
        <path d="M86.5513 114.051C86.5513 114.051 86.8543 114.148 87.4603 114.148C88.0662 114.148 88.8742 114.148 89.9851 114.051C92.106 113.856 95.0348 113.468 98.0646 112.592C101.195 111.717 103.922 110.648 105.74 109.676C106.649 109.189 107.457 108.8 107.962 108.509C108.467 108.217 108.77 108.023 108.669 108.023C108.669 107.925 107.457 108.509 105.538 109.384C103.619 110.259 100.993 111.328 97.8626 112.106C94.8328 112.981 91.904 113.468 89.8841 113.662C87.8642 113.856 86.5513 113.954 86.5513 114.051Z"
              fill="#263238"/>
        <g opacity="0.2">
            <g opacity="0.2">
                <path opacity="0.2"
                      d="M109.982 106.953C108.366 108.412 105.74 108.606 103.518 108.509C101.296 108.509 99.0745 108.023 96.8527 108.12C94.6308 108.12 92.308 108.703 90.7931 110.356C90.2881 110.842 89.9851 111.426 89.8841 112.106C89.8841 112.787 90.2881 113.468 90.8941 113.662C91.298 113.759 91.702 113.662 92.207 113.662C98.4685 112.398 105.235 110.94 109.982 106.953Z"
                      fill="black"/>
            </g>
        </g>
        <g opacity="0.2">
            <g opacity="0.2">
                <path opacity="0.2"
                      d="M130.483 108.898C128.868 108.412 128.565 106.564 128.363 104.911C127.656 98.1051 129.07 91.2018 132.301 85.1735C133.109 89.6461 134.321 94.3131 135.331 98.883L130.483 108.898Z"
                      fill="black"/>
            </g>
        </g>
        <path d="M133.311 90.2295C133.311 90.3267 133.715 89.8406 134.624 89.6461C135.533 89.4517 137.048 89.6461 138.361 90.7157C139.674 91.688 140.482 93.6326 140.886 95.8689C141.29 98.0079 141.593 100.633 143.31 102.772C144.118 103.842 145.43 104.522 146.743 104.717C148.056 104.911 149.268 104.911 150.379 105.008C152.702 105.008 154.52 105.981 155.833 107.148C157.045 108.314 157.651 109.578 157.954 110.453C158.257 111.328 158.257 111.912 158.358 111.815C158.358 111.815 158.358 111.717 158.358 111.426C158.358 111.134 158.257 110.842 158.156 110.356C157.954 109.481 157.348 108.12 156.136 106.856C155.53 106.272 154.722 105.689 153.712 105.203C152.803 104.717 151.591 104.522 150.48 104.522C149.268 104.425 148.056 104.425 146.945 104.231C145.733 104.036 144.623 103.453 143.815 102.383C143.007 101.411 142.603 100.244 142.199 99.0774C141.896 97.9107 141.694 96.7439 141.492 95.6744C141.088 93.5353 140.28 91.3963 138.765 90.424C137.351 89.3544 135.735 89.16 134.725 89.4517C134.22 89.5489 133.917 89.8406 133.715 89.9378C133.412 90.1323 133.311 90.2295 133.311 90.2295Z"
              fill="#FAFAFA"/>
        <path d="M73.3212 71.4641C73.3212 71.4641 73.6242 72.2419 74.6341 73.4087C75.644 74.5755 77.6639 75.9367 80.4917 76.4228C81.9056 76.6173 83.5215 76.6173 85.1374 76.0339C86.7533 75.5478 88.1672 74.4782 89.6821 73.3115C91.096 72.1447 92.5099 70.8807 94.3278 70.1029C95.1358 69.714 96.1457 69.4223 97.1556 69.325C98.1656 69.2278 99.1755 69.4223 100.185 69.714C102.205 70.2973 103.922 71.3669 105.639 72.4364C107.356 73.5059 108.972 74.5755 110.689 75.3533C112.406 76.0339 114.224 76.4228 115.839 76.4228C117.556 76.4228 119.071 76.1311 120.384 75.7422C123.111 74.8672 124.929 73.4087 125.939 72.3392C126.444 71.7558 126.848 71.2696 127.05 70.978C127.252 70.6863 127.353 70.4918 127.353 70.4918C127.252 70.4918 126.848 71.1724 125.737 72.2419C124.626 73.3115 122.808 74.6727 120.182 75.4505C117.556 76.2284 114.123 76.5201 110.689 75.0616C109.073 74.381 107.457 73.3115 105.74 72.1447C104.124 71.0752 102.306 69.9084 100.185 69.325C99.1755 69.0334 98.0646 68.8389 96.9537 68.9361C95.8427 69.0334 94.8328 69.325 93.9238 69.714C92.106 70.589 90.5911 71.9502 89.1772 73.0198C87.7633 74.1865 86.3493 75.1588 84.8344 75.645C83.3195 76.2284 81.8046 76.2284 80.3907 76.0339C77.6639 75.645 75.745 74.2838 74.6341 73.2142C73.7252 72.1447 73.4222 71.3669 73.3212 71.4641Z"
              fill="#FAFAFA"/>
        <path d="M47.1639 109.967C47.1639 109.967 47.3659 109.287 47.5679 108.217C47.8709 107.05 48.1739 105.397 48.9818 103.453C49.3858 102.48 49.9917 101.508 50.9007 100.633C51.7086 99.758 52.8196 98.9802 54.2335 98.4941C55.5464 98.1051 57.0613 98.0079 58.6772 98.1051C60.2931 98.1051 61.909 98.2024 63.6258 97.7162C65.3427 97.3273 66.7566 96.355 67.9686 95.3827C69.1805 94.4104 70.1904 93.2436 71.2003 92.2713C73.1192 90.2295 75.2401 88.5766 77.2599 88.0904C79.3808 87.6043 81.1987 88.0904 82.1076 88.7711C83.1176 89.4517 83.3195 90.1323 83.4205 90.035C83.4205 90.035 83.3195 89.8406 83.2185 89.6461C83.0166 89.3544 82.7136 88.9655 82.2086 88.6738C81.1987 87.896 79.3808 87.3126 77.1589 87.7988C74.9371 88.2849 72.7152 89.9378 70.7964 91.9796C69.7864 92.9519 68.7765 94.1187 67.5646 95.091C66.3527 96.0633 65.0398 96.9384 63.4239 97.3273C60.2931 98.1051 56.9603 97.2301 54.0315 98.1051C52.6176 98.5913 51.4056 99.3691 50.5977 100.341C49.6888 101.314 49.0828 102.383 48.6788 103.356C47.8709 105.3 47.5679 107.05 47.3659 108.217C47.2649 108.8 47.2649 109.287 47.1639 109.578C47.1639 109.773 47.1639 109.967 47.1639 109.967Z"
              fill="#FAFAFA"/>
        <path d="M86.6523 95.1882C86.6523 95.1882 86.8543 95.1882 87.1573 95.2855C87.4603 95.2855 87.9652 95.2855 88.6722 95.1882C89.9851 95.091 91.803 94.3132 93.8228 93.4381C94.8328 92.9519 96.0447 92.4658 97.3576 92.1741C98.6705 91.7852 100.084 91.7852 101.599 92.0769C104.528 92.6602 107.457 94.4104 109.982 96.7439C112.507 99.0774 114.728 101.605 117.152 103.356C119.576 105.203 122.303 106.175 124.626 106.564C126.949 106.953 128.868 106.759 130.079 106.467C130.685 106.37 131.19 106.175 131.493 106.078C131.796 105.981 131.998 105.884 131.998 105.884C131.998 105.884 131.291 106.078 130.079 106.272C128.767 106.467 126.949 106.564 124.727 106.175C122.505 105.786 119.879 104.814 117.556 102.967C115.132 101.216 113.012 98.6885 110.386 96.355C107.861 94.0215 104.831 92.1741 101.801 91.5907C100.286 91.299 98.7715 91.3963 97.3576 91.7852C96.0447 92.1741 94.8328 92.6602 93.8228 93.1464C91.803 94.1187 90.0861 94.8965 88.7732 95.091C87.3593 95.2855 86.6523 95.1882 86.6523 95.1882Z"
              fill="#FAFAFA"/>
        <path d="M95.8427 112.301C95.8427 112.398 96.8527 112.398 97.8626 113.079C98.8725 113.759 99.0745 114.731 99.1755 114.731C99.2765 114.731 99.2765 114.44 99.1755 114.051C99.0745 113.662 98.7715 113.079 98.1656 112.69C97.6606 112.301 96.9536 112.106 96.5497 112.106C96.1457 112.203 95.8427 112.301 95.8427 112.301Z"
              fill="#FAFAFA"/>
        <path d="M87.2583 108.412C87.1573 108.412 87.5613 109.87 88.5712 111.328C89.5811 112.787 90.7931 113.759 90.8941 113.565C90.995 113.467 89.9851 112.398 88.9752 111.037C87.9652 109.578 87.3593 108.314 87.2583 108.412Z"
              fill="#FAFAFA"/>
        <path d="M122.505 122.121C122.606 122.218 123.616 121.927 125.03 121.927C126.343 121.927 127.454 122.218 127.555 122.024C127.656 121.927 126.545 121.343 125.03 121.44C123.515 121.44 122.505 122.024 122.505 122.121Z"
              fill="#FAFAFA"/>
        <path d="M151.49 74.9644C151.49 74.9644 151.288 75.0616 150.783 75.1588C150.379 75.2561 149.672 75.2561 148.965 74.9644C148.258 74.6727 147.45 74.0893 146.844 73.3115C146.238 72.5336 145.531 71.4641 144.623 70.589C142.805 68.8389 140.583 67.8666 138.866 67.5749C138.058 67.3804 137.351 67.3804 136.846 67.3804C136.341 67.3804 136.139 67.3804 136.139 67.4777C136.139 67.5749 137.149 67.5749 138.765 67.9638C140.28 68.3527 142.401 69.325 144.219 70.9779C145.127 71.853 145.733 72.7281 146.44 73.6032C147.147 74.4782 147.955 75.0616 148.864 75.3533C149.672 75.645 150.48 75.5478 150.884 75.3533C151.389 75.1588 151.49 74.9644 151.49 74.9644Z"
              fill="#FAFAFA"/>
        <path d="M97.4586 55.7128C97.4586 55.7128 97.7616 56.2962 98.5695 56.9768C99.3775 57.6574 100.69 58.4353 102.306 58.8242C103.922 59.2131 105.437 59.2131 106.548 58.9214C107.659 58.727 108.265 58.4353 108.164 58.338C108.164 58.2408 107.457 58.4353 106.447 58.5325C105.437 58.6297 103.922 58.6297 102.407 58.2408C100.892 57.8519 99.5795 57.1713 98.7715 56.5879C97.9636 56.199 97.5596 55.7128 97.4586 55.7128Z"
              fill="#FAFAFA"/>
        <path d="M142.805 128.246C142.805 128.246 143.209 128.246 143.916 128.441C144.623 128.635 145.632 129.024 146.743 129.802C147.854 130.58 148.864 131.747 149.773 133.205C150.682 134.664 151.389 136.414 152.399 138.261C153.308 140.011 154.52 141.664 156.035 142.831C157.449 143.998 159.267 144.387 160.579 144.289C161.993 144.192 163.104 143.706 163.609 143.22C163.912 143.025 164.114 142.734 164.215 142.539C164.316 142.345 164.417 142.248 164.316 142.248C164.316 142.248 164.013 142.539 163.407 143.025C162.801 143.414 161.791 143.901 160.478 143.901C159.166 143.901 157.55 143.512 156.237 142.345C154.823 141.275 153.712 139.72 152.803 137.969C151.894 136.219 151.086 134.372 150.177 132.914C149.268 131.358 148.157 130.191 146.945 129.413C145.834 128.635 144.724 128.246 143.916 128.149C143.512 128.052 143.209 128.052 143.007 128.149C142.906 128.246 142.805 128.246 142.805 128.246Z"
              fill="#FAFAFA"/>
        <g opacity="0.3">
            <g opacity="0.3">
                <path opacity="0.3"
                      d="M56.6573 87.507C58.4752 89.5489 59.1821 92.4658 58.4752 95.091C58.3742 95.4799 58.1722 95.9661 57.6672 96.1605C57.2632 96.2578 56.9603 96.0633 56.6573 95.7716C56.4553 95.4799 56.3543 95.091 56.2533 94.7993C55.6473 92.3686 55.7483 89.7433 56.3543 87.3126"
                      fill="black"/>
            </g>
        </g>
        <path d="M37.6705 65.0469C37.5695 65.1441 38.9834 65.922 40.1954 67.9638C40.8013 68.9361 41.4073 70.2973 42.0132 71.7558C42.6192 73.2142 43.1242 74.8672 43.9321 76.6173C44.7401 78.2702 45.75 79.8259 47.0629 80.8954C48.3758 81.9649 49.8907 82.5483 51.1026 82.6456C52.4155 82.84 53.4255 82.5483 54.0314 82.2566C54.3344 82.0622 54.6374 81.9649 54.7384 81.8677C54.8394 81.7705 54.9404 81.6733 54.9404 81.6733C54.9404 81.6733 54.6374 81.8677 53.9304 82.0622C53.3245 82.2566 52.3145 82.4511 51.1026 82.2566C49.8907 82.0622 48.5778 81.4788 47.2649 80.5065C46.053 79.5342 45.043 77.9785 44.2351 76.4228C43.4272 74.7699 42.9222 73.117 42.2152 71.6586C41.6093 70.2001 40.9023 68.8389 40.1954 67.8666C39.4884 66.8943 38.7815 66.1164 38.2765 65.7275C38.0745 65.2414 37.7715 65.0469 37.6705 65.0469Z"
              fill="#FAFAFA"/>
        <path d="M36.8626 54.2544C36.8626 54.2544 37.4685 54.935 38.6805 55.7128C39.8924 56.4907 41.7103 57.3658 43.9321 57.7547C46.154 58.1436 48.1738 58.0464 49.5877 57.7547C51.0016 57.463 51.8096 57.0741 51.8096 56.9768C51.8096 56.8796 50.9007 57.1713 49.4868 57.3658C48.0728 57.5602 46.053 57.6574 43.9321 57.2685C41.8112 56.8796 39.9934 56.1018 38.7814 55.4212C37.5695 54.7405 36.9636 54.2544 36.8626 54.2544Z"
              fill="#FAFAFA"/>
        <path d="M29.3891 156.832C29.3891 156.832 92.8129 116.773 95.4387 115.898C98.0646 115.023 104.326 111.134 110.588 112.787C116.849 114.44 122.505 119.885 125.333 127.76C128.161 135.636 128.363 153.429 128.363 153.429C128.363 153.429 123.414 167.43 113.618 170.347C112.81 170.639 112.002 170.833 111.093 170.93C99.1755 173.167 87.0563 167.916 80.3907 158.193L78.9768 156.152C78.9768 156.152 37.4685 170.833 36.7616 170.639L29.3891 156.832Z"
              fill="#263238"/>
        <path d="M7.77647 110.162C7.77647 110.162 -1.81989e-05 112.787 -1.81989e-05 121.246C-0.101008 137.289 33.7318 154.985 33.7318 154.985L78.6738 126.302V123.288C78.5728 123.288 20.8046 103.258 7.77647 110.162Z"
              fill="#263238"/>
        <path d="M107.962 145.845C107.962 145.845 107.861 145.942 107.659 146.04C107.457 146.137 107.053 146.234 106.649 146.429C105.74 146.817 104.326 147.304 102.609 147.887C99.0745 149.151 94.0248 150.998 87.6622 153.332C81.2997 155.568 73.7252 158.291 65.1407 161.305C56.5563 164.319 47.1639 167.527 37.0645 170.833L36.8626 170.931L36.7616 170.736C35.1457 167.819 33.5298 164.708 31.8129 161.596C30.904 160.041 30.096 158.388 29.2881 156.929L29.1871 156.735L29.389 156.638C48.4768 144.97 65.5447 134.566 77.7649 127.08C83.9255 123.385 88.8742 120.371 92.3079 118.232C94.0248 117.162 95.3377 116.384 96.2467 115.898C96.6507 115.607 97.0546 115.412 97.2566 115.315C97.4586 115.218 97.6606 115.12 97.6606 115.12C97.6606 115.12 97.5596 115.218 97.3576 115.315C97.1556 115.509 96.7516 115.704 96.3477 115.995C95.4387 116.579 94.1258 117.357 92.4089 118.426C88.9752 120.565 84.0265 123.579 77.9669 127.371C65.6457 134.955 48.6788 145.359 29.591 157.027L29.692 156.735C30.5 158.193 31.3079 159.749 32.2169 161.402C33.9338 164.513 35.5497 167.625 37.1655 170.542L36.8626 170.444C46.9619 167.139 56.4553 163.93 64.9387 160.916C73.4222 157.902 81.0977 155.276 87.4603 153.04C93.8228 150.804 98.8725 148.956 102.508 147.79C104.225 147.206 105.639 146.72 106.548 146.331C106.952 146.137 107.356 146.04 107.558 145.942C107.861 145.845 107.962 145.845 107.962 145.845Z"
              fill="#455A64"/>
        <path d="M55.8493 140.692C55.8493 140.692 55.4454 140.4 54.6374 139.914C53.9305 139.428 52.8195 138.65 51.6076 137.678C49.0828 135.733 45.548 133.011 41.8112 129.899C38.0745 126.788 34.7417 123.871 32.4189 121.732C31.2069 120.663 30.298 119.787 29.692 119.107C29.0861 118.523 28.6821 118.135 28.6821 118.135C28.6821 118.135 29.0861 118.426 29.793 119.01C30.5 119.69 31.5099 120.468 32.6209 121.538C35.0447 123.677 38.3775 126.496 42.1142 129.608C45.851 132.719 49.2848 135.442 51.8096 137.483C53.0215 138.456 54.0315 139.233 54.8394 139.817C55.4454 140.4 55.8493 140.692 55.8493 140.692Z"
              fill="#455A64"/>
        <path d="M20.5017 116.093C20.5017 115.995 22.5215 115.801 24.8444 116.482C27.1672 117.162 28.7831 118.329 28.6821 118.426C28.5811 118.523 26.9652 117.551 24.7434 116.871C22.4205 116.287 20.5017 116.287 20.5017 116.093Z"
              fill="#455A64"/>
        <path d="M24.3394 113.565C24.3394 113.468 25.8543 114.051 26.9652 115.509C28.1771 116.968 28.4801 118.426 28.3791 118.426C28.2781 118.426 27.7732 117.162 26.6622 115.801C25.5513 114.44 24.2384 113.662 24.3394 113.565Z"
              fill="#455A64"/>
        <path d="M5.35262 164.416C5.35262 164.319 5.85759 164.222 6.46355 164.708C7.06952 165.194 7.5745 166.166 7.77649 167.236C7.97847 168.305 7.6755 169.375 7.37251 169.958C7.06953 170.639 6.66554 170.931 6.66554 170.931C6.56455 170.931 6.86754 170.542 7.06953 169.861C7.27152 169.18 7.47351 168.305 7.37251 167.236C7.17052 166.263 6.76654 165.388 6.26157 164.902C5.7566 164.513 5.25163 164.513 5.35262 164.416Z"
              fill="#263238"/>
        <path d="M135.331 21.3906C136.543 20.2239 138.361 19.5432 140.078 19.6405C141.795 19.7377 143.512 20.5155 144.623 21.7795C145.935 23.238 146.44 25.2798 146.743 27.2244C147.046 29.169 147.147 31.1136 147.955 32.961C148.662 34.8084 150.177 36.4613 152.197 36.8502C153.712 37.1419 155.53 36.6557 156.641 37.628C157.651 38.5031 157.651 40.0588 156.944 41.1283C156.237 42.1979 155.025 42.8785 153.813 43.3646C153.308 43.5591 152.803 43.8508 152.803 44.3369C152.803 45.0175 153.712 45.212 154.318 45.5037C156.237 46.2815 156.742 48.8095 155.732 50.5596C154.722 52.2125 152.5 53.0876 150.48 53.0876C148.46 53.0876 146.44 52.407 144.522 51.7264C145.228 52.5042 145.228 53.7682 144.623 54.5461C144.017 55.3239 142.805 55.7128 141.795 55.6156C140.785 55.5184 139.775 54.935 138.967 54.2544C137.452 52.8932 136.644 50.9486 136.24 49.004C135.836 47.0594 135.836 45.0175 135.836 42.9757C135.836 35.7807 135.23 28.6829 134.22 21.5851"
              fill="#263238"/>
        <path d="M113.921 7.58394C105.74 7.97286 99.2765 14.4873 99.2765 22.3629C99.2765 28.4884 99.3775 35.1001 99.7815 39.0865C100.69 48.2261 107.861 49.879 107.861 49.879C107.861 49.879 107.659 55.6156 107.356 60.9632C107.053 66.1164 111.396 70.6863 117.152 71.0752C122.808 71.5613 127.656 67.7694 128.06 62.7134L129.978 23.1408C130.382 14.2928 122.909 7.09779 113.921 7.58394Z"
              fill="#B78876"/>
        <path d="M101.397 26.3493C101.296 26.9327 101.801 27.5161 102.508 27.6133C103.215 27.7105 103.72 27.2244 103.821 26.641C103.922 26.0576 103.417 25.4743 102.71 25.377C102.104 25.2798 101.498 25.6687 101.397 26.3493Z"
              fill="#263238"/>
        <path d="M101.498 24.502C101.599 24.6964 102.609 24.0158 103.922 24.113C105.235 24.2103 106.144 24.8909 106.245 24.6964C106.346 24.5992 106.144 24.3075 105.74 24.0158C105.336 23.7241 104.629 23.3352 103.821 23.3352C103.013 23.3352 102.306 23.5297 101.902 23.8214C101.498 24.113 101.397 24.4047 101.498 24.502Z"
              fill="#263238"/>
        <path d="M115.031 27.03C114.93 27.6133 115.435 28.1967 116.142 28.294C116.849 28.3912 117.354 27.905 117.455 27.3217C117.556 26.7383 117.051 26.1549 116.344 26.0577C115.637 25.9604 115.031 26.3494 115.031 27.03Z"
              fill="#263238"/>
        <path d="M115.031 25.766C115.132 25.9604 116.142 25.2798 117.455 25.3771C118.768 25.4743 119.677 26.1549 119.778 25.9604C119.879 25.8632 119.677 25.5715 119.273 25.2798C118.869 24.9881 118.162 24.5992 117.354 24.5992C116.546 24.5992 115.839 24.7937 115.435 25.0854C115.132 25.3771 114.93 25.6687 115.031 25.766Z"
              fill="#263238"/>
        <path d="M109.78 34.8084C109.78 34.7111 108.972 34.5167 107.659 34.3222C107.356 34.225 107.053 34.225 106.952 33.9333C106.851 33.7388 107.053 33.3499 107.255 32.961C107.659 32.1832 107.962 31.4053 108.366 30.5302C109.982 27.1272 111.093 24.3075 110.992 24.3075C110.891 24.2103 109.477 26.9327 107.861 30.3358C107.457 31.2109 107.154 31.9887 106.75 32.7665C106.649 33.1555 106.346 33.5444 106.548 34.0305C106.649 34.3222 106.851 34.4194 107.053 34.5167C107.255 34.6139 107.457 34.6139 107.659 34.6139C108.871 34.8084 109.679 34.8084 109.78 34.8084Z"
              fill="#263238"/>
        <path d="M107.861 49.7818C107.861 49.7818 114.325 50.3652 120.788 47.0594C120.788 47.0594 117.253 53.5738 107.76 52.407L107.861 49.7818Z"
              fill="#995037"/>
        <path d="M119.374 22.2657C119.172 22.4601 118.263 22.0712 117.051 21.8768C115.839 21.5851 114.829 21.5851 114.829 21.2934C114.728 21.0017 115.94 20.6128 117.253 21.0017C118.667 21.1961 119.475 22.0712 119.374 22.2657Z"
              fill="#263238"/>
        <path d="M106.447 19.9322C106.346 20.2239 105.336 20.1266 104.023 20.1266C102.71 20.1266 101.7 20.2239 101.599 19.9322C101.498 19.7377 102.609 19.1543 104.023 19.1543C105.437 19.2516 106.548 19.7377 106.447 19.9322Z"
              fill="#263238"/>
        <path d="M127.555 57.8519C127.656 55.9073 125.434 47.74 124.525 42.7812C123.616 37.7253 127.05 36.9474 127.656 33.9333C128.161 31.0164 126.646 28.0995 126.646 28.0995C121.697 29.8496 119.677 26.4466 116.95 24.4047C114.022 22.2657 113.416 19.6405 112.204 16.2374C110.992 12.9316 109.679 10.7925 106.043 10.5008C106.043 10.5008 102.508 12.251 101.195 15.8485C100.084 18.9599 99.1755 31.1136 99.1755 31.1136C98.6705 25.2798 93.7219 22.8491 95.0348 14.1956C95.6407 10.5008 98.7715 5.44488 103.72 4.66704C105.134 4.47258 107.861 4.27812 107.861 4.27812C110.891 1.84737 112.305 1.9446 115.132 0.777836C121.192 -1.84738 128.464 2.81967 132.503 7.87563C135.634 11.7648 137.149 17.1125 137.957 22.0712C138.563 25.4743 138.563 29.0718 138.159 32.4748C137.957 34.5167 138.26 37.1419 140.381 38.7948C143.411 41.0311 144.219 45.4064 142.098 51.143C139.977 56.8796 147.753 66.6998 147.753 66.6998C147.753 66.6998 144.017 63.7829 140.886 62.2272C137.755 60.6716 127.555 57.8519 127.555 57.8519Z"
              fill="#263238"/>
        <path d="M111.295 37.7253C111.699 37.2391 112.406 37.0447 113.113 37.1419C113.618 37.2391 114.022 37.4336 114.325 37.8225C114.627 38.2114 114.627 38.6976 114.325 39.0865C114.022 39.4754 113.416 39.4754 112.911 39.281C112.406 39.0865 112.002 38.6976 111.598 38.4059C111.497 38.3087 111.396 38.2114 111.295 38.1142C111.194 38.017 111.194 37.9197 111.295 37.7253Z"
              fill="#995037"/>
        <path d="M114.123 36.1696C113.921 36.1696 113.82 37.2391 112.81 38.017C111.699 38.7948 110.487 38.5031 110.487 38.6976C110.487 38.7948 110.79 38.892 111.295 38.9893C111.8 39.0865 112.608 38.892 113.214 38.5031C113.82 38.017 114.224 37.4336 114.224 36.9474C114.325 36.4613 114.224 36.1696 114.123 36.1696Z"
              fill="#263238"/>
        <path d="M155.328 33.6416C155.328 33.6416 155.328 34.1278 155.227 34.9056C155.126 35.2945 155.025 35.7807 154.722 36.2668C154.419 36.753 154.015 37.2391 153.308 37.628C152.702 37.9197 151.793 38.1142 150.985 37.7253C150.177 37.4336 149.672 36.5585 149.47 35.6834C149.268 34.7111 149.268 33.7388 149.268 32.6693C149.268 31.5998 149.369 30.5302 149.369 29.3635C149.369 27.1272 149.066 24.8909 148.056 23.1408C147.147 21.3906 145.531 20.1266 144.017 19.8349C142.502 19.446 141.189 19.7377 140.381 20.1266C139.573 20.5155 139.371 20.9045 139.371 20.9045C139.371 20.9045 139.674 20.6128 140.482 20.2239C141.29 19.9322 142.502 19.6405 144.017 20.0294C145.43 20.4183 146.945 21.5851 147.854 23.3352C148.763 25.0854 149.066 27.2244 149.066 29.4607C149.066 30.6275 148.965 31.697 148.965 32.7665C148.965 33.8361 148.864 34.9056 149.167 35.8779C149.369 36.8502 149.975 37.7253 150.884 38.1142C151.793 38.5031 152.702 38.3086 153.409 37.9197C154.116 37.5308 154.621 37.0447 154.924 36.4613C155.227 35.9751 155.328 35.3917 155.429 35.0028C155.53 34.0305 155.328 33.6416 155.328 33.6416Z"
              fill="#263238"/>
        <path d="M141.391 53.2821C141.391 53.2821 141.593 53.1848 141.896 52.7959C142.199 52.407 142.502 51.8236 142.603 51.0458C142.704 50.1707 142.603 49.1012 142.098 48.0316C141.593 46.9621 140.583 45.8926 139.472 44.8231C138.361 43.7535 137.048 42.684 136.038 41.2255C135.028 39.7671 134.725 37.8225 134.826 35.8779C134.927 33.9333 135.432 31.8915 135.331 29.6552C135.23 28.5856 135.028 27.4189 134.523 26.4466C134.018 25.377 133.109 24.502 132.099 24.0158C129.978 22.8491 127.656 22.5574 125.636 21.4878C123.717 20.5155 122.404 18.6682 121.495 16.918C120.586 15.1679 119.879 13.4177 119.071 11.7648C118.263 10.2091 117.152 8.84793 115.839 7.87563C114.627 7.00055 113.113 6.5144 111.901 6.61163C110.588 6.70886 109.578 7.19501 108.972 7.77839C108.265 8.36178 107.962 8.94516 107.861 9.33408C107.76 9.52854 107.76 9.723 107.76 9.82023C107.76 9.91746 107.76 10.0147 107.76 10.0147C107.76 10.0147 107.76 9.82023 107.962 9.33408C108.164 8.94516 108.467 8.36178 109.073 7.77839C109.679 7.29224 110.689 6.80609 111.901 6.70886C113.113 6.61163 114.526 7.09778 115.738 7.97285C116.95 8.84793 117.96 10.2091 118.869 11.7648C119.677 13.3205 120.384 15.0706 121.293 16.918C122.202 18.6682 123.515 20.5155 125.535 21.5851C127.555 22.6546 129.877 22.9463 131.998 24.113C133.008 24.6964 133.816 25.4743 134.321 26.4466C134.826 27.4189 135.028 28.4884 135.129 29.5579C135.23 31.697 134.725 33.7388 134.624 35.7807C134.523 37.7253 134.826 39.7671 135.836 41.2255C136.846 42.684 138.26 43.7535 139.371 44.8231C140.482 45.8926 141.391 46.8649 141.997 47.9344C142.603 49.0039 142.704 50.0735 142.603 50.8513C142.3 52.6987 141.391 53.2821 141.391 53.2821Z"
              fill="#455A64"/>
        <path d="M138.967 25.766C139.068 25.8632 139.674 24.502 139.371 22.849C138.967 21.1961 137.856 20.1266 137.856 20.3211C137.755 20.4183 138.563 21.4878 138.866 22.9463C139.169 24.4047 138.765 25.6687 138.967 25.766Z"
              fill="#FAFAFA"/>
        <path d="M135.634 53.7682C136.341 58.6297 135.331 63.6857 132.705 67.8666C131.796 69.325 130.584 70.7835 129.07 71.6586C127.555 72.6309 125.535 73.0198 123.919 72.3392C122.202 71.7558 120.99 70.0056 121.192 68.2555C121.596 65.8247 124.727 64.2691 124.727 61.8383C123.616 62.5189 122.101 63.1023 121.091 62.3245C120.384 61.7411 120.384 60.7688 120.687 59.8937C120.99 59.0186 121.697 58.4353 122.202 57.7547C124.525 54.935 125.535 51.2402 124.929 47.6427C124.727 46.6704 124.525 43.6563 124.525 42.5868C124.525 41.6145 124.828 42.5868 125.535 41.9061C126.343 41.2255 127.454 41.1283 128.464 41.42C129.474 41.7117 130.281 42.2951 130.988 42.9757C133.412 45.212 134.725 48.4206 134.523 51.6292"
              fill="#263238"/>
    </g>
    <defs>
        <clipPath id="clip0_1_26">
            <rect width="183" height="172" fill="white" transform="matrix(-1 0 0 1 183 0)"/>
        </clipPath>
    </defs>
</svg>
