<svg width="200" height="231" viewBox="0 0 248 231" fill="none" xmlns="http://www.w3.org/2000/svg">
    <g clip-path="url(#clip0_1_384)">
        <path d="M114.847 8.79634C104.791 5.75762 97.212 21.9108 99.5439 41.9024C101.876 61.894 86.2811 80.9259 88.03 89.0825C89.779 97.239 124.612 108.594 147.785 108.434C171.105 108.274 178.246 97.0791 174.02 89.0825C169.647 81.0859 162.943 73.4091 163.526 49.5791C163.963 25.5893 148.806 -19.0319 114.847 8.79634Z"
              fill="#303036"/>
        <path d="M66.8971 122.828L53.9258 154.495L33.9588 103.157C33.9588 103.157 31.4811 85.5639 29.2949 80.7659C27.2545 75.808 27.9832 69.2508 25.2141 68.2912C22.4449 67.3316 21.5704 72.6094 21.5704 77.2474C21.5704 81.8855 20.8417 86.2037 20.8417 86.2037C20.8417 86.2037 9.47361 75.3282 8.74489 71.9697C8.01616 68.6111 8.4534 56.7761 5.97573 55.3367C3.49807 53.7373 0.583169 57.2559 0.00018914 67.1717C-0.582791 77.0875 17.6353 106.195 17.6353 106.195L31.0439 177.365L68.5003 184.882L90.7993 144.739L66.8971 122.828Z"
              fill="#F0D8CE"/>
        <path d="M181.744 132.104L167.898 143.14L166.587 144.099L156.239 152.256L154.635 197.037L148.368 196.877H147.057L128.839 196.397H127.527L109.309 195.917H107.997L89.779 195.438H88.4672H86.5726C86.5726 195.438 87.3013 184.562 84.3864 168.569C81.4715 152.576 85.5523 141.54 85.5523 141.54L66.897 122.828L76.6619 106.035C79.7225 100.917 83.9492 96.7592 88.9045 94.2003C89.3417 94.0403 89.779 93.7205 90.2162 93.5605C91.6736 92.9208 93.1311 92.2811 94.5885 91.9612L108.289 88.1228L109.017 87.9629L109.6 87.803L114.264 86.5235H127.818H129.13H143.85L147.348 88.4427L148.66 89.2424L161.048 96.2794C163.089 97.3989 165.129 98.8383 166.732 100.598C167.17 101.077 167.607 101.397 168.044 101.877C171.105 105.076 173.437 109.074 175.04 113.392L181.744 132.104Z"
              fill="#FEFCFF"/>
        <path opacity="0.25"
              d="M90.0704 40.4354V84.6032H88.7587V40.7118C89.3417 40.5736 89.6332 40.5045 90.0704 40.4354Z"
              fill="#3B3B3B"/>
        <path opacity="0.25" d="M109.6 37.8779V84.8106H108.289V38.0162L109.017 37.947L109.6 37.8779Z" fill="#3B3B3B"/>
        <path opacity="0.25" d="M129.13 37.325V84.9488H127.818V37.325H129.13Z" fill="#3B3B3B"/>
        <path opacity="0.25" d="M148.514 38.5V85.1562H147.202V38.2235L148.514 38.5Z" fill="#3B3B3B"/>
        <path opacity="0.25"
              d="M168.044 44.0296V61.8627L166.732 62.2774V43.4767C167.17 43.6149 167.607 43.8223 168.044 44.0296Z"
              fill="#3B3B3B"/>
        <path d="M148.514 89.0824C144.433 98.1986 133.794 103.476 120.823 102.517C109.892 101.717 108.58 93.7205 109.017 87.803L114.264 86.3636H143.705L148.514 89.0824Z"
              fill="white"/>
        <path d="M143.705 86.3636C143.705 86.3636 138.312 98.1986 124.466 98.1986C110.62 98.1986 114.264 86.3636 114.264 86.3636L118.199 84.9242L117.908 77.5673L117.616 66.8518L141.081 59.0151C140.644 60.1346 140.207 61.574 140.061 63.4932C139.041 71.6498 140.207 85.0841 140.207 85.0841L143.705 86.3636Z"
              fill="#F0D8CE"/>
        <path d="M141.081 59.0151C140.644 60.1346 140.207 61.574 140.061 63.4932C133.502 78.0471 122.426 78.207 118.053 77.5673L117.762 66.8518L141.081 59.0151Z"
              fill="#CFB6AB"/>
        <path d="M115.284 20.3114C117.47 32.9461 142.101 41.7424 143.85 43.1818C144.871 43.9814 145.162 46.0606 145.308 47.5C145.308 47.8198 145.745 47.8198 145.891 47.6599C146.474 45.7407 147.785 43.1818 149.826 42.8619C153.032 42.3821 156.239 47.0202 154.344 52.2979C152.449 57.7357 145.016 54.8569 145.016 54.8569C145.016 54.8569 138.895 71.0101 125.049 71.4899C111.058 71.9697 107.997 59.0151 109.017 51.0185C110.037 43.0219 110.037 39.0235 109.309 34.3855C108.58 29.7474 114.118 26.3889 115.284 20.3114Z"
              fill="#F0D8CE"/>
        <path d="M150.846 45.9006C149.68 46.2205 148.368 49.739 148.951 51.4983" stroke="#C85E8B" stroke-width="0.5252"
              stroke-miterlimit="9" stroke-linecap="round"/>
        <path d="M122.863 55.9764L121.26 54.8569C120.094 54.2172 119.657 52.6178 120.24 51.3384L122.863 44.6212"
              stroke="#C85E8B" stroke-width="0.5252" stroke-miterlimit="9" stroke-linecap="round"/>
        <path d="M128.839 47.9798C128.839 48.9394 129.422 49.5791 130.005 49.5791C130.588 49.5791 131.171 48.7794 131.171 47.9798C131.171 47.1801 130.588 46.3805 130.005 46.3805C129.276 46.2205 128.839 47.0202 128.839 47.9798Z"
              fill="black"/>
        <path d="M114.847 47.0202C114.847 47.9798 115.43 48.6195 116.013 48.6195C116.596 48.6195 117.179 47.8198 117.179 47.0202C117.179 46.0606 116.596 45.4209 116.013 45.4209C115.284 45.4209 114.847 46.0606 114.847 47.0202Z"
              fill="black"/>
        <path d="M134.814 39.1835C134.814 39.1835 131.899 35.6649 127.381 38.2239" stroke="#1F2251"
              stroke-width="0.7879" stroke-miterlimit="10" stroke-linecap="round" stroke-linejoin="round"/>
        <path d="M112.224 39.0244C112.224 39.0244 115.139 35.5059 119.802 38.7045" stroke="#1F2251"
              stroke-width="0.7879" stroke-miterlimit="10" stroke-linecap="round" stroke-linejoin="round"/>
        <path d="M119.802 47.34C119.802 51.0185 117.179 53.8973 113.827 53.8973C110.475 53.8973 107.851 51.0185 107.851 47.34C107.851 43.6616 110.475 40.7828 113.827 40.7828C117.179 40.7828 119.802 43.8215 119.802 47.34Z"
              stroke="#647BF4" stroke-width="0.7879" stroke-miterlimit="10"/>
        <path d="M136.417 47.34C136.417 51.0185 133.794 53.8973 130.442 53.8973C127.09 53.8973 124.466 51.0185 124.466 47.34C124.466 43.6616 127.09 40.7828 130.442 40.7828C133.794 40.7828 136.417 43.8215 136.417 47.34Z"
              stroke="#647BF4" stroke-width="0.7879" stroke-miterlimit="10"/>
        <path d="M119.657 45.9006C119.657 45.9006 122.134 43.1818 124.612 45.9006" stroke="#647BF4"
              stroke-width="0.7879" stroke-miterlimit="10"/>
        <path d="M124.612 61.8939C124.612 61.8939 128.401 63.6532 131.608 60.6144" stroke="#C85E8B"
              stroke-width="0.5252" stroke-miterlimit="9" stroke-linecap="round"/>
        <path d="M82.3459 194.958H24.4852C23.4649 194.958 22.5905 194.318 22.4447 193.358L9.91065 143.939C9.61916 142.66 10.2021 141.38 11.3681 141.061L12.0968 140.901H69.9576L82.3459 194.958Z"
              fill="#404145"/>
        <path d="M47.8044 170.328C47.8044 173.047 45.7639 175.286 43.2863 175.286C40.8086 175.286 38.7682 173.047 38.7682 170.328C38.7682 167.609 40.8086 165.37 43.2863 165.37C45.9097 165.37 47.8044 167.609 47.8044 170.328Z"
              fill="#E6E9FC"/>
        <path d="M82.346 195.118H128.256C129.422 195.118 130.296 194.158 130.296 192.879V191.919C130.296 190.64 129.422 189.68 128.256 189.68H82.346C81.18 189.68 80.3056 190.64 80.3056 191.919V192.719C80.3056 193.998 81.18 195.118 82.346 195.118Z"
              fill="#292A2D"/>
        <path d="M67.9172 143.939L80.1598 192.559C80.4513 193.838 81.6172 194.478 82.7832 194.158L83.5119 193.998C84.6779 193.678 85.2608 192.399 84.9694 191.119L72.7268 142.5C72.4353 141.22 71.2693 140.581 70.1034 140.901L69.3746 141.061C68.2087 141.38 67.6257 142.66 67.9172 143.939Z"
              fill="#292A2D"/>
        <path d="M202.731 209.192C202.731 215.429 200.254 221.347 195.736 225.505C189.177 231.422 179.704 231.902 172.708 226.624L140.498 202.315C140.498 202.315 123.009 206.473 115.139 205.673C107.268 204.874 98.8151 200.236 98.8151 198.476C98.6694 196.717 130.588 193.039 128.984 191.599C127.527 190.16 113.244 190 113.098 186.641C112.952 183.283 116.45 182.163 122.426 181.683C128.401 181.204 135.98 184.562 135.98 184.562L168.19 189.52L159.008 160.252L156.53 152.416L181.89 132.104L183.493 138.022L201.857 202.954C202.44 205.034 202.731 207.113 202.731 209.192Z"
              fill="#F0D8CE"/>
        <path d="M181.744 132.104L183.493 138.022L158.862 160.252L156.384 152.416L181.744 132.104Z" fill="#E3CDC3"/>
        <path d="M168.044 189.52L181.744 191.599" stroke="#1F2251" stroke-width="0.5252" stroke-miterlimit="9"
              stroke-linecap="round"/>
        <path d="M91.6736 192.239C91.6736 192.719 91.3822 193.039 90.9449 193.039C90.5077 193.039 90.2162 192.719 90.2162 192.239C90.2162 191.759 90.5077 191.439 90.9449 191.439C91.3822 191.439 91.6736 191.919 91.6736 192.239Z"
              fill="#1F2251"/>
        <path d="M94.7343 192.239C94.7343 192.719 94.4428 193.039 94.0055 193.039C93.5683 193.039 93.2768 192.719 93.2768 192.239C93.2768 191.759 93.5683 191.439 94.0055 191.439C94.4428 191.439 94.7343 191.919 94.7343 192.239Z"
              fill="#1F2251"/>
        <path d="M90.0704 167.449C98.6694 176.086 113.827 177.365 113.827 177.365" stroke="#1F2251"
              stroke-width="0.5252" stroke-miterlimit="10" stroke-linecap="round" stroke-linejoin="round"/>
        <path d="M156.384 152.416L145.454 132.104" stroke="#1F2251" stroke-width="0.5252" stroke-miterlimit="10"
              stroke-linecap="round" stroke-linejoin="round"/>
        <path d="M85.9896 141.86C90.6534 131.624 91.6736 118.35 91.6736 118.35" stroke="#1F2251" stroke-width="0.5252"
              stroke-miterlimit="10" stroke-linecap="round" stroke-linejoin="round"/>
    </g>
    <defs>
        <clipPath id="clip0_1_384">
            <rect width="248" height="231" fill="white"/>
        </clipPath>
    </defs>
</svg>
