<svg width="160" height="169" viewBox="0 0 180 169" fill="none" xmlns="http://www.w3.org/2000/svg">
    <g clip-path="url(#clip0_2_231)">
        <path d="M46.8594 76.768L59.1558 122.939C61.1499 130.34 68.7936 134.537 76.1049 132.328L84.4133 129.788L59.3774 71.0242L46.8594 76.768Z"
              fill="#F0C9CF"/>
        <path d="M54.3923 63.9549C55.3893 62.7399 63.2545 66.8268 65.1378 67.2686C67.021 67.7105 65.3593 72.3497 61.8144 71.9078C58.3803 71.466 57.2725 67.8209 57.2725 67.8209L54.3923 63.9549Z"
              fill="#EBB3CB"/>
        <path d="M60.1527 54.0137L60.3743 84.2791L57.0509 83.6164V54.0137C57.0509 53.351 57.494 52.7987 58.0479 52.5778C59.1557 52.3569 60.1527 53.0196 60.1527 54.0137Z"
              fill="#2A3551"/>
        <path d="M55.5001 64.5072C55.5001 64.5072 65.4702 74.5588 63.587 77.4307C61.7037 80.3026 55.5001 75.1111 54.2816 73.4543C54.3924 76.768 50.1828 79.9712 47.6349 79.5294C43.7576 78.9771 42.2067 75.0007 43.4253 73.2333C44.6439 71.466 51.8445 67.2686 51.8445 67.2686C51.8445 67.2686 53.5061 61.8562 55.5001 64.5072Z"
              fill="#F3DDDC"/>
        <path d="M67.4642 166.239C67.2426 167.895 68.4612 169.552 70.1229 169.773L133.71 179.052C135.925 179.383 137.809 177.616 137.698 175.517L135.925 125.811L134.596 89.4706L124.847 68.2628L122.853 63.8445H100.587L98.1498 64.1758C97.5959 64.2863 96.9313 64.3967 96.3774 64.5072C86.7396 66.385 78.542 72.5706 74.1109 81.4072L60.3744 109.022L73.4462 122.166L67.4642 166.239Z"
              fill="#3B3B3B"/>
        <path d="M126.509 83.9477C126.952 84.9418 127.063 86.0464 127.063 87.0405L124.626 118.963L126.62 120.178L136.036 125.701L147.779 132.549L149.773 133.654L153.539 101.842C155.09 87.9242 147.446 74.5588 134.707 68.5941L126.731 64.949L122.853 63.1817L120.084 63.9549L118.422 64.3967L121.524 72.1288L126.509 83.9477Z"
              fill="#3B3B3B"/>
        <path d="M92.3892 115.539L78.7635 85.6046C78.2096 84.5 77.2126 83.6163 75.994 83.285L20.7156 68.1523C19.8293 67.9314 17.8353 70.251 18.2784 71.0242L38.3294 108.248C38.994 109.574 40.1018 110.568 41.4311 111.12L93.3862 130.782L92.3892 115.539Z"
              fill="#2A3551"/>
        <path d="M91.3924 117.748L77.7666 87.8137C77.2128 86.7092 76.2158 85.8255 74.9972 85.4941L19.7188 70.3614C18.8325 70.1405 17.9463 71.0242 18.3894 71.9078L37.3325 110.458C37.9972 111.783 39.105 112.777 40.4343 113.329L92.3894 132.991L91.3924 117.748Z"
              fill="#364380"/>
        <path d="M77.9881 124.817C77.9881 124.817 76.8804 127.468 82.3085 132.439C87.8474 137.52 96.1558 134.206 96.1558 134.206L118.201 150.885C121.303 153.205 125.069 154.42 128.835 154.42C131.605 154.42 134.374 153.757 137.033 152.431C141.797 150.001 145.12 145.583 146.228 140.392L146.338 139.618L147.779 132.659L136.036 125.811L126.62 120.288L126.288 122.056L124.847 130.119L100.809 118.3C100.809 118.3 95.9342 110.568 93.7187 107.807C91.3923 105.045 88.8444 104.603 87.9582 106.371C87.1828 108.138 92.2786 115.428 92.2786 115.428C92.2786 115.428 90.3953 115.318 84.5241 113.219C78.7636 111.231 74.9971 107.033 73.3354 108.359C71.7845 109.574 72.6708 113.219 74.7756 116.091C74.3325 121.172 77.9881 124.817 77.9881 124.817Z"
              fill="#F3DDDC"/>
        <path d="M126.288 121.945L146.338 139.618L147.779 132.659L135.925 125.701L126.62 120.288L126.288 121.945Z"
              fill="#EBB3CB"/>
        <path d="M96.3774 64.6177C97.2636 69.8092 100.255 75.0007 108.12 75.8843C114.324 76.5471 118.644 74.6693 121.635 72.1288C122.964 70.9137 124.072 69.6987 124.958 68.3732C125.734 67.1582 126.398 66.0536 126.731 65.0595L122.853 63.2922L120.084 64.0654H100.587L98.1499 64.3967C97.596 64.3967 96.9313 64.5072 96.3774 64.6177Z"
              fill="white"/>
        <path d="M107.455 72.3497C118.422 73.5647 122.854 63.2922 122.854 63.2922L120.638 62.2981C120.638 62.2981 120.306 53.6824 121.081 48.6013L117.979 49.3745L102.581 53.351C104.021 56.6647 103.578 61.3039 103.467 62.8503C103.467 63.1817 103.357 63.2922 103.357 63.2922L100.587 64.0654C100.587 63.9549 100.144 71.5765 107.455 72.3497Z"
              fill="#F3DDDC"/>
        <path d="M103.467 62.7399C109.671 62.8503 117.425 60.7516 119.862 52.7987C120.416 51.0314 119.641 49.9268 117.979 49.3745L102.581 53.351C104.021 56.6647 103.689 61.3039 103.467 62.7399Z"
              fill="#EBB3CB"/>
        <path d="M123.74 43.0784L129.279 36.23C132.159 32.6954 131.826 27.5039 128.614 24.3006C131.605 17.1209 127.395 8.94703 119.752 7.17971L113.991 5.96468C112.994 5.74376 111.997 5.30193 111.222 4.74964L105.794 0.773174C104.464 -0.220944 102.692 -0.220944 101.252 0.552259C99.4792 1.65683 98.8145 3.97644 99.8115 5.85422L101.473 9.05749C101.695 9.38886 101.252 9.83069 100.919 9.60977L90.9492 3.42415C89.6199 2.65095 87.9582 2.87187 86.9612 3.97644C85.9642 5.08102 85.8534 6.62742 86.7397 7.84245L93.6079 17.4523C93.8295 17.7836 93.4971 18.2255 93.1648 18.115L91.5031 17.5627C89.8415 17.0104 87.8475 17.6732 86.9612 19.2196C86.075 20.6555 86.2966 22.6438 87.4043 23.8588C90.7277 27.283 96.8205 34.2418 97.596 38.2183C98.7037 43.5202 123.74 43.0784 123.74 43.0784Z"
              fill="#1F2251"/>
        <path d="M96.7096 32.364C96.9311 33.4686 97.0419 35.015 97.0419 37.3346C97.0419 38.881 96.7096 41.4216 96.7096 44.183C96.7096 46.1712 96.8204 48.1595 97.2635 50.1477C98.2605 54.6765 100.919 58.432 107.677 58.432C121.524 58.432 122.964 44.7353 122.964 44.7353C122.964 44.7353 123.296 48.049 126.509 46.5026C128.835 45.2876 129.611 40.0961 126.952 38.7706C125.401 37.9974 123.74 38.9915 122.632 39.9856C122.189 40.4274 121.413 39.9856 121.524 39.4333L122.078 32.9163C118.311 34.0209 104.686 30.2654 99.3683 24.9634C99.2575 26.3993 98.2605 27.9457 97.485 29.1608C96.8204 30.1549 96.5988 31.2595 96.7096 32.364Z"
              fill="#F3DDDC"/>
        <path d="M106.569 47.4967L105.351 46.7235C104.464 46.2817 104.132 45.1771 104.575 44.2935L106.569 39.6543"
              stroke="#C85E8B" stroke-width="0.5252" stroke-miterlimit="9" stroke-linecap="round"/>
        <path d="M111 41.8634C111 42.5262 111.443 42.968 111.886 42.968C112.33 42.968 112.773 42.4157 112.773 41.8634C112.773 41.2007 112.33 40.7588 111.886 40.7588C111.443 40.7588 111 41.3111 111 41.8634Z"
              fill="black"/>
        <path d="M100.365 41.3111C100.365 41.9739 100.809 42.4157 101.252 42.4157C101.695 42.4157 102.138 41.8634 102.138 41.3111C102.138 40.7588 101.695 40.2065 101.252 40.2065C100.809 40.2065 100.365 40.6484 100.365 41.3111Z"
              fill="black"/>
        <path d="M116.207 38.2183C116.207 38.2183 114.324 35.4569 110.668 36.6719" stroke="#1F2251"
              stroke-width="0.7879" stroke-miterlimit="10" stroke-linecap="round" stroke-linejoin="round"/>
        <path d="M98.4822 36.7824C98.4822 36.7824 100.698 34.3523 104.243 36.5614" stroke="#1F2251"
              stroke-width="0.7879" stroke-miterlimit="10" stroke-linecap="round" stroke-linejoin="round"/>
        <path d="M110.779 50.1477L105.572 50.3686C105.572 50.3686 105.794 53.1301 108.452 52.9092C111 52.7987 110.779 50.1477 110.779 50.1477Z"
              fill="white"/>
        <path d="M127.284 41.4216C125.734 40.4275 124.293 41.6425 124.626 43.9621" stroke="#C85E8B"
              stroke-width="0.5252" stroke-miterlimit="9" stroke-linecap="round"/>
        <path d="M111.554 47.1654C111.554 48.9327 112.994 50.2582 114.656 50.2582C116.428 50.2582 117.758 48.8222 117.758 47.1654C117.758 45.398 116.317 44.0726 114.656 44.0726C112.883 44.0726 111.554 45.398 111.554 47.1654Z"
              fill="#EAB7C0"/>
        <path d="M96.8205 44.183C96.8205 46.1712 96.9313 48.1595 97.3744 50.1477C97.596 50.1477 97.8175 50.2582 98.0391 50.2582C99.8115 50.2582 101.141 48.8222 101.141 47.1654C101.141 45.398 99.7007 44.0726 98.0391 44.0726C97.4852 44.0726 97.1528 44.0726 96.8205 44.183Z"
              fill="#EAB7C0"/>
        <path d="M124.847 130.009L133.599 134.537" stroke="#C85E8B" stroke-width="0.5252" stroke-miterlimit="9"
              stroke-linecap="round"/>
        <path d="M74.8864 116.201C76.8804 120.067 87.5151 121.503 87.5151 121.503" stroke="#C85E8B"
              stroke-width="0.5252" stroke-miterlimit="9" stroke-linecap="round"/>
        <path d="M77.9883 124.817C82.3086 129.456 89.3984 128.352 89.3984 128.352" stroke="#C85E8B"
              stroke-width="0.5252" stroke-miterlimit="9" stroke-linecap="round"/>
        <path d="M126.62 120.288L130.276 93.5575" stroke="#1F2251" stroke-width="0.5252" stroke-miterlimit="10"
              stroke-linecap="round" stroke-linejoin="round"/>
        <path d="M81.2007 141.496L108.12 164.029" stroke="#1F2251" stroke-width="0.5252" stroke-miterlimit="10"
              stroke-linecap="round" stroke-linejoin="round"/>
        <path opacity="0.25"
              d="M74.6648 90.0229C73.2246 88.9183 71.3414 88.9183 70.4552 90.0229C69.5689 91.1275 70.1228 92.8948 71.6737 93.9994C73.1139 95.1039 74.9971 95.1039 75.8833 93.9994C76.6588 92.8948 76.2157 91.1275 74.6648 90.0229Z"
              fill="white"/>
        <path opacity="0.25"
              d="M74.0002 91.017C73.2248 90.4647 72.3385 90.4647 71.8954 91.017C71.4523 91.5693 71.7846 92.4529 72.4493 93.0052C73.2248 93.5575 74.111 93.5575 74.5541 93.0052C74.9972 92.4529 74.6649 91.5693 74.0002 91.017Z"
              fill="white"/>
    </g>
    <defs>
        <clipPath id="clip0_2_231">
            <rect width="185" height="169" fill="white" transform="matrix(-1 0 0 1 185 0)"/>
        </clipPath>
    </defs>
</svg>
