<?xml version="1.0" encoding="UTF-8"?>
<svg width="118px" height="175px" viewBox="0 0 118 175" version="1.1" xmlns="http://www.w3.org/2000/svg" xmlns:xlink="http://www.w3.org/1999/xlink">
    <title>Bea - Cropped</title>
    <g id="Bea---Cropped" stroke="none" stroke-width="1" fill="none" fill-rule="evenodd">
        <path d="M77.9734123,46.0019251 C86.36531,46.0019251 93.1682872,52.8049023 93.1682872,61.1968 L93.1682872,138.877551 C93.1682872,147.269449 86.36531,154.072426 77.9734123,154.072426 C69.5815146,154.072426 62.7785373,147.269449 62.7785373,138.877551 L62.7785373,61.1968 C62.7785373,52.8049023 69.5815146,46.0019251 77.9734123,46.0019251 Z" id="hair-L2" fill="#3D3D3D" fill-rule="nonzero"></path>
        <path d="M38.0767085,94.9180466 C46.6032356,94.9180466 53.5153515,101.830163 53.5153515,110.35669 L53.5153515,136.196103 C53.5153515,144.72263 46.6032356,151.634746 38.0767085,151.634746 C29.5501814,151.634746 22.6380655,144.72263 22.6380655,136.196103 L22.6380655,110.35669 C22.6380655,101.830163 29.5501814,94.9180466 38.0767085,94.9180466 Z" id="hair-R2" fill="#3D3D3D" fill-rule="nonzero"></path>
        <path d="M40.3518769,20 L55.6280079,20 C69.6294629,20 80.9798849,31.3504219 80.9798849,45.3518769 L80.9798849,103.856208 C80.9798849,117.857663 69.6294629,129.208085 55.6280079,129.208085 L40.3518769,129.208085 C26.3504219,129.208085 15,117.857663 15,103.856208 L15,45.3518769 C15,31.3504219 26.3504219,20 40.3518769,20 Z" id="hair-R1" fill="#3D3D3D" fill-rule="nonzero"></path>
        <path d="M77.4046202,35.601155 L83.5800774,35.601155 C93.9914157,35.601155 102.431473,44.0412124 102.431473,54.4525507 L102.431473,122.220068 C102.431473,132.631406 93.9914157,141.071464 83.5800774,141.071464 L77.4046202,141.071464 C66.9932818,141.071464 58.5532245,132.631406 58.5532245,122.220068 L58.5532245,54.4525507 C58.5532245,44.0412124 66.9932818,35.601155 77.4046202,35.601155 Z" id="hair-L1" fill="#3D3D3D" fill-rule="nonzero"></path>
        <path d="M57.9992052,105.073156 C61.4562891,106.19643 63.3482153,109.909545 62.2249406,113.366629 L55.7802682,133.201291 C54.6569936,136.658375 50.9438793,138.550301 47.4867954,137.427026 C44.0297115,136.303752 42.1377853,132.590637 43.2610599,129.133553 L49.7057324,109.298891 C50.829007,105.841807 54.5421213,103.949881 57.9992052,105.073156 Z" id="upper-arm-R" fill="#FFB100" fill-rule="nonzero"></path>
        <path d="M51.5986646,124.771994 C55.0557485,125.895269 56.9476747,129.608383 55.8244,133.065467 L49.3797276,152.900129 C48.256453,156.357213 44.5433387,158.249139 41.0862548,157.125865 L37.681404,156.019562 C36.1047673,155.507281 35.2419359,153.813879 35.7542162,152.237243 L43.3051918,128.99773 C44.4284664,125.540646 48.1415807,123.64872 51.5986646,124.771994 Z" id="Mask" fill="#FFB000" fill-rule="nonzero"></path>
        <path d="M37.4768505,146.935258 L49.9960192,151.00294 L49.3797276,152.900129 C48.256453,156.357213 44.5433387,158.249139 41.0862548,157.125865 L37.681404,156.019562 C36.1047673,155.507281 35.2419359,153.813879 35.7542162,152.237243 L37.4768505,146.935258 Z" id="Path" fill="#A56644" fill-rule="nonzero"></path>
        <path d="M33.4960344,159.053408 L35.8161512,151.912823 C36.2987433,150.427557 37.8940073,149.614729 39.379273,150.097322 C40.8645388,150.579914 41.6773663,152.175178 41.1947743,153.660443 L38.8746575,160.801029 C38.3920654,162.286294 36.7968014,163.099122 35.3115357,162.61653 C33.8262699,162.133938 33.0134424,160.538674 33.4960344,159.053408 Z" id="finger-1-R" fill="#A56644" fill-rule="nonzero"></path>
        <path d="M42.5635746,162.512632 L42.3809494,157.282932 C42.3264469,155.722183 41.0170264,154.501128 39.4562769,154.555631 C37.8955274,154.610133 36.6744731,155.919554 36.7289756,157.480303 L36.9116008,162.710003 C36.9661033,164.270752 38.2755238,165.491807 39.8362733,165.437304 C41.3970228,165.382802 42.6180771,164.073381 42.5635746,162.512632 Z" id="finger-2-R" fill="#A56644" fill-rule="nonzero"></path>
        <path d="M43.6278199,158.891385 L43.6278199,154.146034 C43.6278199,152.584334 44.8938285,151.318325 46.4555293,151.318325 C48.0172302,151.318325 49.2832388,152.584334 49.2832388,154.146034 L49.2832388,158.891385 C49.2832388,160.453086 48.0172302,161.719095 46.4555293,161.719095 C44.8938285,161.719095 43.6278199,160.453086 43.6278199,158.891385 Z" id="thumb-R" fill="#A56644" fill-rule="nonzero"></path>
        <path d="M63.134478,105.073156 C66.5915619,103.949881 70.3046761,105.841807 71.4279508,109.298891 L77.8726232,129.133553 C78.9958979,132.590637 77.1039717,136.303752 73.6468877,137.427026 C70.1898038,138.550301 66.4766896,136.658375 65.3534149,133.201291 L58.9087425,113.366629 C57.7854679,109.909545 59.6773941,106.19643 63.134478,105.073156 Z" id="upper-arm-L" fill="#FFB100" fill-rule="nonzero"></path>
        <path d="M69.4488856,124.505298 C72.9059695,123.382023 76.6190838,125.273949 77.7423584,128.731033 L85.293334,151.970546 C85.8056143,153.547183 84.942783,155.240585 83.3661463,155.752865 L79.9612954,156.859168 C76.5042115,157.982443 72.7910973,156.090517 71.6678226,152.633433 L65.2231502,132.79877 C64.0998755,129.341687 65.9918017,125.628572 69.4488856,124.505298 Z" id="Mask" fill="#FFB000" fill-rule="nonzero"></path>
        <path d="M83.659945,146.943248 L85.293334,151.970546 C85.8056143,153.547183 84.942783,155.240585 83.3661463,155.752865 L79.9612954,156.859168 C76.5042115,157.982443 72.7910973,156.090517 71.6678226,152.633433 L71.1406144,151.010929 L83.659945,146.943248 Z" id="Path" fill="#A56644" fill-rule="nonzero"></path>
        <path d="M87.6376487,159.053408 L85.3175319,151.912823 C84.8349398,150.427557 83.2396759,149.614729 81.7544101,150.097322 C80.2691444,150.579914 79.4563168,152.175178 79.9389089,153.660443 L82.2590257,160.801029 C82.7416178,162.286294 84.3368817,163.099122 85.8221475,162.61653 C87.3074132,162.133938 88.1202408,160.538674 87.6376487,159.053408 Z" id="finger-1-L" fill="#A56644" fill-rule="nonzero"></path>
        <path d="M84.2220824,162.710003 L84.4047075,157.480303 C84.4592101,155.919554 83.2381557,154.610133 81.6774062,154.555631 C80.1166568,154.501128 78.8072363,155.722183 78.7527337,157.282932 L78.5701086,162.512632 C78.515606,164.073381 79.7366604,165.382802 81.2974098,165.437304 C82.8581593,165.491807 84.1675798,164.270752 84.2220824,162.710003 Z" id="finger-2-L" fill="#A56644" fill-rule="nonzero"></path>
        <path d="M71.8504443,158.891385 L71.8504443,154.146034 C71.8504443,152.584334 73.116453,151.318325 74.6781538,151.318325 C76.2398546,151.318325 77.5058633,152.584334 77.5058633,154.146034 L77.5058633,158.891385 C77.5058633,160.453086 76.2398546,161.719095 74.6781538,161.719095 C73.116453,161.719095 71.8504443,160.453086 71.8504443,158.891385 Z" id="thumb-L" fill="#A56644" fill-rule="nonzero"></path>
        <path d="M52.3777673,99.6308955 L68.7914825,99.6308955 C70.5865408,99.6308955 72.0417231,101.086078 72.0417231,102.881136 L72.0417231,126.770405 C72.0417231,128.565463 70.5865408,130.020645 68.7914825,130.020645 L52.3777673,130.020645 C50.5827089,130.020645 49.1275266,128.565463 49.1275266,126.770405 L49.1275266,102.881136 C49.1275266,101.086078 50.5827089,99.6308955 52.3777673,99.6308955 Z" id="torso" fill="#FFB100" fill-rule="nonzero"></path>
        <path d="M49.1275266,130.020645 L72.0417231,130.020645 L72.0417231,142.779286 C72.0417231,144.574344 70.5865408,146.029527 68.7914825,146.029527 L52.3777673,146.029527 C50.5827089,146.029527 49.1275266,144.574344 49.1275266,142.779286 L49.1275266,130.020645 Z" id="waist" fill="#1CB0F6" fill-rule="nonzero"></path>
        <path d="M66.0283089,134.063279 C69.3438568,134.063279 72.0316394,136.751061 72.0316394,140.066609 L72.0316394,171.083817 C72.0316394,174.399364 69.3438568,177.087147 66.0283089,177.087147 C62.7127611,177.087147 60.0249785,174.399364 60.0249785,171.083817 L60.0249785,140.066609 C60.0249785,136.751061 62.7127611,134.063279 66.0283089,134.063279 Z" id="thigh-L" fill="#1CB0F6" fill-rule="nonzero"></path>
        <path d="M66.0283089,165.080486 C69.3438568,165.080486 72.0316394,167.768269 72.0316394,171.083817 L72.0316394,201.100469 C72.0316394,202.758243 70.6877481,204.102134 69.0299742,204.102134 L63.0266437,204.102134 C61.3688698,204.102134 60.0249785,202.758243 60.0249785,201.100469 L60.0249785,171.083817 C60.0249785,167.768269 62.7127611,165.080486 66.0283089,165.080486 Z" id="calf-L" fill="#1CB0F6" fill-rule="nonzero"></path>
        <path d="M55.0222031,134.063279 C58.3377509,134.063279 61.0255335,136.751061 61.0255335,140.066609 L61.0255335,171.083817 C61.0255335,174.399364 58.3377509,177.087147 55.0222031,177.087147 C51.7066552,177.087147 49.0188726,174.399364 49.0188726,171.083817 L49.0188726,140.066609 C49.0188726,136.751061 51.7066552,134.063279 55.0222031,134.063279 Z" id="thigh-R" fill="#1CB0F6" fill-rule="nonzero"></path>
        <path d="M55.0222031,165.080486 C58.3377509,165.080486 61.0255335,167.768269 61.0255335,171.083817 L61.0255335,201.100469 C61.0255335,202.758243 59.6816422,204.102134 58.0238683,204.102134 L52.0205379,204.102134 C50.3627639,204.102134 49.0188726,202.758243 49.0188726,201.100469 L49.0188726,171.083817 C49.0188726,167.768269 51.7066552,165.080486 55.0222031,165.080486 Z" id="calf-R" fill="#1CB0F6" fill-rule="nonzero"></path>
        <path d="M49.1275266,130.020645 L72.0417231,130.020645 L72.0417231,200.713379 C72.0417231,202.508438 70.5865408,203.96362 68.7914825,203.96362 L52.3777673,203.96362 C50.5827089,203.96362 49.1275266,202.508438 49.1275266,200.713379 L49.1275266,130.020645 Z" id="pants-both" fill="#1CB0F6" fill-rule="nonzero"></path>
        <path d="M60.5033689,143.99668 C61.1316393,143.99668 61.6409531,144.505994 61.6409531,145.134264 L61.6409531,204.126132 L59.3657846,204.126132 L59.3657846,145.134264 C59.3657846,144.505994 59.8750984,143.99668 60.5033689,143.99668 Z" id="line-V" fill-opacity="0.0779064685" fill="#000000" fill-rule="nonzero"></path>
        <path d="M57.7406643,143.99668 L62.9410493,143.99668 C63.5693198,143.99668 64.0786336,144.505994 64.0786336,145.134264 C64.0786336,145.762535 63.5693198,146.271849 62.9410493,146.271849 L57.7406643,146.271849 C57.1123939,146.271849 56.6030801,145.762535 56.6030801,145.134264 C56.6030801,144.505994 57.1123939,143.99668 57.7406643,143.99668 Z" id="line-H" fill="#19A2E2" fill-rule="nonzero"></path>
        <path d="M45.877286,42.2641483 L74.8044276,42.2641483 C82.2539197,42.2641483 88.2929263,48.3031549 88.2929263,55.752647 L88.2929263,86.1423969 C88.2929263,93.591889 82.2539197,99.6308955 74.8044276,99.6308955 L45.877286,99.6308955 C38.4277939,99.6308955 32.3887874,93.591889 32.3887874,86.1423969 L32.3887874,55.752647 C32.3887874,48.3031549 38.4277939,42.2641483 45.877286,42.2641483 Z" id="Mask" fill="#A56644" fill-rule="nonzero"></path>
        <path d="M74.8044276,42.2641483 C79.6273399,42.2641483 83.8590526,44.7953741 86.2435639,48.6018237 L34.4381497,48.6018237 C36.8226611,44.7953741 41.0543738,42.2641483 45.877286,42.2641483 L74.8044276,42.2641483 Z" id="Path" fill="#FFB100" fill-rule="nonzero"></path>
        <path d="M46.5298429,78.5057426 C48.6418133,77.4071623 51.2444788,78.2286773 52.3430591,80.3406476 C53.5165999,82.5967262 54.8861908,83.4310485 57.1057749,83.2959097 L57.3468697,83.2777415 C59.7180331,83.0658885 61.8119816,84.8163554 62.0238346,87.1875187 C62.2356876,89.5586821 60.4852207,91.6526305 58.1140574,91.8644836 C52.2145686,92.3915769 47.4974291,89.7066198 44.6949379,84.3189587 C43.5963576,82.2069884 44.4178726,79.6043229 46.5298429,78.5057426 Z" id="mouth" fill="#FFFFFF" fill-rule="nonzero"></path>
        <path d="M58.7157365,74.4415306 L62.1284892,74.4415306 C63.7440417,74.4415306 65.0537057,75.7511947 65.0537057,77.3667472 C65.0537057,78.9822997 63.7440417,80.2919637 62.1284892,80.2919637 L58.7157365,80.2919637 C57.100184,80.2919637 55.7905199,78.9822997 55.7905199,77.3667472 C55.7905199,75.7511947 57.100184,74.4415306 58.7157365,74.4415306 Z" id="nose" fill="#87401A" fill-rule="nonzero"></path>
        <polygon id="nose-bridge" fill="#87401A" fill-rule="nonzero" points="60.3408568 71.19129 64.0786336 77.2042351 56.6030801 77.2042351"></polygon>
        <path d="M51.1020374,55.2651109 C55.3338816,55.2651109 58.7644692,58.6956985 58.7644692,62.9275427 L58.7644692,67.5883933 C58.7644692,71.8202376 55.3338816,75.2508252 51.1020374,75.2508252 C46.8701931,75.2508252 43.4396055,71.8202376 43.4396055,67.5883933 L43.4396055,62.9275427 C43.4396055,58.6956985 46.8701931,55.2651109 51.1020374,55.2651109 Z" id="eye-R" fill="#FFFFFF" fill-rule="nonzero"></path>
        <path d="M53.0550893,59.8154478 C54.9549635,59.8154478 56.4951158,61.3556001 56.4951158,63.2554743 L56.4951158,67.5762061 C56.4951158,69.4760803 54.9549635,71.0162327 53.0550893,71.0162327 C51.1552151,71.0162327 49.6150627,69.4760803 49.6150627,67.5762061 L49.6151764,63.2092963 C49.7217442,63.2217809 49.8301658,63.2282004 49.9400868,63.2282004 C51.4658864,63.2282004 52.7027913,61.9912955 52.7027913,60.4654959 C52.7027913,60.2505391 52.6782418,60.0413162 52.6317935,59.8404779 C52.7699143,59.8242484 52.911474,59.8154478 53.0550893,59.8154478 Z" id="pupil-R" fill="#3D3D3D" fill-rule="nonzero"></path>
        <path d="M69.6278789,55.2651109 C73.8597231,55.2651109 77.2903107,58.6956985 77.2903107,62.9275427 L77.2903107,67.5883933 C77.2903107,71.8202376 73.8597231,75.2508252 69.6278789,75.2508252 C65.3960346,75.2508252 61.965447,71.8202376 61.965447,67.5883933 L61.965447,62.9275427 C61.965447,58.6956985 65.3960346,55.2651109 69.6278789,55.2651109 Z" id="eye-L" fill="#FFFFFF" fill-rule="nonzero"></path>
        <path d="M68.162363,59.8154478 C70.0622372,59.8154478 71.6023896,61.3556001 71.6023896,63.2554743 L71.6023896,67.5762061 C71.6023896,69.4760803 70.0622372,71.0162327 68.162363,71.0162327 C66.2624888,71.0162327 64.7223365,69.4760803 64.7223365,67.5762061 L64.7224502,63.2092963 C64.829018,63.2217809 64.9374396,63.2282004 65.0473606,63.2282004 C66.5731601,63.2282004 67.8100651,61.9912955 67.8100651,60.4654959 C67.8100651,60.2505391 67.7855155,60.0413162 67.7390672,59.8404779 C67.877188,59.8242484 68.0187478,59.8154478 68.162363,59.8154478 Z" id="Path" fill="#3D3D3D" fill-rule="nonzero"></path>
        <path d="M39.4709983,69.9760949 C42.4016824,70.2032613 47.3466674,71.7666282 54.4006173,74.6701219 L55.4479687,75.1045905 L54.5079509,77.3537354 L52.9962798,76.7290197 C46.5896298,74.1126862 42.0560899,72.6764194 39.4771357,72.4235985 L39.2826112,72.4064851 L39.4709983,69.9760949 Z" id="cheek" fill="#A56644" fill-rule="nonzero"></path>
        <path d="M40.0268529,33.9760347 C45.1427691,33.9760347 49.2900387,38.1233043 49.2900387,43.2392205 L49.2900387,51.2023101 C49.2900387,56.3182263 45.1427691,60.4654959 40.0268529,60.4654959 C34.9109366,60.4654959 30.7636671,56.3182263 30.7636671,51.2023101 L30.7636671,43.2392205 C30.7636671,38.1233043 34.9109366,33.9760347 40.0268529,33.9760347 Z" id="hair-F-1" fill="#3D3D3D" fill-rule="nonzero"></path>
    </g>
</svg>