<svg width="15" height="15" viewBox="0 0 15 15" fill="none" xmlns="http://www.w3.org/2000/svg">
<path d="M0.292893 1.70711C-0.0976309 1.31658 -0.0976311 0.683417 0.292893 0.292893C0.683417 -0.0976311 1.31658 -0.0976311 1.70711 0.292893L14.435 13.0208C14.8256 13.4113 14.8256 14.0445 14.435 14.435C14.0445 14.8256 13.4113 14.8256 13.0208 14.435L0.292893 1.70711Z" fill="white"/>
<path d="M1.70711 14.435C1.31658 14.8256 0.683417 14.8256 0.292893 14.435C-0.0976311 14.0445 -0.0976311 13.4113 0.292893 13.0208L13.0208 0.292893C13.4113 -0.0976309 14.0445 -0.0976311 14.435 0.292893C14.8256 0.683417 14.8256 1.31658 14.435 1.70711L1.70711 14.435Z" fill="white"/>
</svg>
