<svg width="20" height="18" viewBox="0 0 20 18" fill="none" xmlns="http://www.w3.org/2000/svg">
<path d="M13.3036 0.831966C13.3293 0.75126 13.3383 0.666456 13.3301 0.582396C13.3218 0.498336 13.2965 0.416665 13.2555 0.342048C13.2146 0.26743 13.1587 0.201327 13.0913 0.147512C13.0238 0.093697 12.946 0.0532244 12.8623 0.0284049C12.7786 0.0035854 12.6907 -0.00509488 12.6035 0.00285958C12.5164 0.010814 12.4317 0.0352475 12.3543 0.074765C12.2769 0.114282 12.2084 0.16811 12.1526 0.233174C12.0968 0.298238 12.0548 0.373265 12.0291 0.453971L6.69639 17.168C6.64442 17.331 6.66171 17.5073 6.74447 17.658C6.82722 17.8087 6.96866 17.9215 7.13767 17.9716C7.30669 18.0217 7.48942 18.005 7.64568 17.9252C7.80194 17.8454 7.91893 17.709 7.97091 17.546L13.3036 0.831966ZM5.80583 4.04492C5.86791 4.10464 5.91716 4.17558 5.95077 4.25368C5.98437 4.33178 6.00167 4.4155 6.00167 4.50006C6.00167 4.58462 5.98437 4.66834 5.95077 4.74644C5.91716 4.82454 5.86791 4.89548 5.80583 4.9552L1.61033 9L5.80583 13.0448C5.931 13.1655 6.00132 13.3292 6.00132 13.4999C6.00132 13.6707 5.931 13.8344 5.80583 13.9551C5.68067 14.0758 5.5109 14.1436 5.33389 14.1436C5.15688 14.1436 4.98711 14.0758 4.86195 13.9551L0.195835 9.45514C0.133758 9.39542 0.0845069 9.32448 0.0509023 9.24638C0.0172977 9.16828 0 9.08456 0 9C0 8.91544 0.0172977 8.83172 0.0509023 8.75362C0.0845069 8.67552 0.133758 8.60458 0.195835 8.54486L4.86195 4.04492C4.92387 3.98506 4.99742 3.93756 5.07841 3.90515C5.15939 3.87274 5.24621 3.85606 5.33389 3.85606C5.42157 3.85606 5.50839 3.87274 5.58937 3.90515C5.67035 3.93756 5.74391 3.98506 5.80583 4.04492ZM14.1942 4.04492C14.1321 4.10464 14.0828 4.17558 14.0492 4.25368C14.0156 4.33178 13.9983 4.4155 13.9983 4.50006C13.9983 4.58462 14.0156 4.66834 14.0492 4.74644C14.0828 4.82454 14.1321 4.89548 14.1942 4.9552L18.3897 9L14.1942 13.0448C14.1322 13.1046 14.083 13.1755 14.0495 13.2536C14.0159 13.3317 13.9987 13.4154 13.9987 13.4999C13.9987 13.5845 14.0159 13.6682 14.0495 13.7463C14.083 13.8244 14.1322 13.8953 14.1942 13.9551C14.2561 14.0148 14.3297 14.0623 14.4107 14.0946C14.4917 14.127 14.5785 14.1436 14.6661 14.1436C14.7538 14.1436 14.8405 14.127 14.9215 14.0946C15.0025 14.0623 15.0761 14.0148 15.1381 13.9551L19.8042 9.45514C19.8662 9.39542 19.9155 9.32448 19.9491 9.24638C19.9827 9.16828 20 9.08456 20 9C20 8.91544 19.9827 8.83172 19.9491 8.75362C19.9155 8.67552 19.8662 8.60458 19.8042 8.54486L15.1381 4.04492C15.0761 3.98506 15.0026 3.93756 14.9216 3.90515C14.8406 3.87274 14.7538 3.85606 14.6661 3.85606C14.5784 3.85606 14.4916 3.87274 14.4106 3.90515C14.3296 3.93756 14.2561 3.98506 14.1942 4.04492Z" fill="#A4BCC1"/>
</svg>
