<svg width="28" height="25" viewBox="0 0 24 25" fill="none" xmlns="http://www.w3.org/2000/svg">
<path d="M23.7873 10.2474C23.93 11.0863 24.0012 11.9364 24 12.7879C24 16.5909 22.6687 19.8064 20.3519 21.9829H20.355C18.329 23.8938 15.544 25 12.2418 25C8.99505 25 5.88131 23.6831 3.58553 21.339C1.28975 18.9948 0 15.8155 0 12.5004C0 9.18532 1.28975 6.006 3.58553 3.66187C5.88131 1.31774 8.99505 0.000824796 12.2418 0.000824796C15.2807 -0.0355152 18.2155 1.13021 20.4315 3.25384L16.9365 6.82247C15.6731 5.59279 13.987 4.9194 12.2418 4.94754C9.0482 4.94754 6.33511 7.14746 5.36801 10.1099C4.85525 11.6622 4.85525 13.3433 5.36801 14.8956H5.37261C6.3443 17.8534 9.05279 20.0533 12.2464 20.0533C13.8959 20.0533 15.3129 19.6221 16.4116 18.8596H16.407C17.045 18.428 17.5907 17.869 18.0112 17.2162C18.4318 16.5634 18.7184 15.8303 18.8539 15.0613H12.2418V10.2489H23.7873V10.2474Z" fill="white"/>
</svg>
