<svg width="207" height="160" viewBox="0 0 207 189" fill="none" xmlns="http://www.w3.org/2000/svg">
    <path fill-rule="evenodd" clip-rule="evenodd"
          d="M154.489 -99.0318C183.109 -91.4198 190.107 -53.9673 212.57 -34.654C232.128 -17.8381 267.947 -18.6711 276.335 5.73048C284.711 30.0936 259.179 52.3091 250.846 76.6868C242.702 100.512 244.546 127.707 228.121 146.782C209.237 168.712 183.16 192.426 154.489 188.588C125.675 184.731 117.721 145.49 93.8995 128.815C69.3225 111.61 31.3723 115.787 14.7754 90.7855C-2.96444 64.0619 -3.45732 27.7261 6.56368 -2.74973C16.5658 -33.1682 41.7883 -55.4831 68.6119 -72.9422C94.3193 -89.6747 124.852 -106.914 154.489 -99.0318Z"
          fill="url(#paint0_linear_3_167)" fill-opacity="0.24"/>
    <defs>
        <linearGradient id="paint0_linear_3_167" x1="223.541" y1="-31.0893" x2="-8.88889" y2="179.174"
                        gradientUnits="userSpaceOnUse">
            <stop stop-color="white"/>
            <stop offset="0.463542" stop-color="#00C058" stop-opacity="0.93"/>
        </linearGradient>
    </defs>
</svg>
