<svg width="22" height="20" viewBox="0 0 22 20" fill="none" xmlns="http://www.w3.org/2000/svg">
<path d="M21.4677 4.07909C21.1264 3.28086 20.6342 2.55751 20.0187 1.94953C19.4028 1.33975 18.6766 0.855158 17.8796 0.522118C17.0532 0.175405 16.1668 -0.00206213 15.2719 1.80777e-05C14.0164 1.80777e-05 12.7915 0.347227 11.727 1.00307C11.4724 1.15995 11.2305 1.33227 11.0013 1.52002C10.7721 1.33227 10.5301 1.15995 10.2755 1.00307C9.21101 0.347227 7.9861 1.80777e-05 6.73063 1.80777e-05C5.82659 1.80777e-05 4.95057 0.174909 4.12293 0.522118C3.3233 0.856468 2.60261 1.33742 1.98379 1.94953C1.36751 2.55682 0.875206 3.28034 0.534783 4.07909C0.180808 4.90982 0 5.79199 0 6.69987C0 7.55632 0.173168 8.44878 0.516957 9.35667C0.804722 10.1154 1.21727 10.9024 1.74441 11.6971C2.57969 12.9548 3.7282 14.2665 5.15429 15.5962C7.51753 17.8003 9.85784 19.3229 9.95716 19.3846L10.5607 19.7755C10.8281 19.9478 11.1719 19.9478 11.4393 19.7755L12.0428 19.3846C12.1421 19.3203 14.4799 17.8003 16.8457 15.5962C18.2718 14.2665 19.4203 12.9548 20.2556 11.6971C20.7827 10.9024 21.1978 10.1154 21.483 9.35667C21.8268 8.44878 22 7.55632 22 6.69987C22.0025 5.79199 21.8217 4.90982 21.4677 4.07909Z" fill="url(#paint0_linear_113_295)"/>
<defs>
<linearGradient id="paint0_linear_113_295" x1="1.77419" y1="-2.23893e-06" x2="23.5599" y2="2.88892" gradientUnits="userSpaceOnUse">
<stop stop-color="#fff"/>
</linearGradient>
</defs>
</svg>
