<svg width="18" height="17" viewBox="0 0 18 17" fill="none" xmlns="http://www.w3.org/2000/svg">
<path fill-rule="evenodd" clip-rule="evenodd" d="M8.49311 0.403584C8.63719 0.284306 8.81838 0.218994 9.00549 0.218994C9.19266 0.218994 9.37391 0.284345 9.51801 0.403692L9.51908 0.40458L17.4677 6.93459L17.3189 7.11571L17.4909 6.92242C17.6574 7.07062 17.7649 7.27382 17.7939 7.4948C17.8226 7.71385 17.7722 7.93593 17.6518 8.12106C17.5807 8.23446 17.483 8.32892 17.3671 8.39623C17.2496 8.46456 17.1169 8.5028 16.981 8.50755L16.9712 8.50789C16.7844 8.50981 16.6028 8.44646 16.4576 8.329L16.4555 8.3273L15.8981 7.87016V15.7382C15.904 15.8471 15.8892 15.9563 15.8543 16.0598C15.8175 16.1687 15.7593 16.2692 15.6831 16.3553C15.6069 16.4414 15.5142 16.5113 15.4104 16.5609C15.3067 16.6105 15.1941 16.6388 15.0792 16.6441L15.07 16.6445H10.6651L10.6319 16.6389C10.4188 16.6028 10.2271 16.4877 10.0951 16.3167C9.96712 16.1509 9.90415 15.9444 9.91748 15.736V10.9696L9.91815 10.958C9.92571 10.8277 9.90749 10.6972 9.86455 10.574C9.82162 10.4507 9.75481 10.3372 9.66797 10.2399C9.58113 10.1426 9.47597 10.0634 9.35853 10.0069C9.24767 9.95353 9.12791 9.92134 9.0054 9.91189C8.88218 9.92133 8.76174 9.95378 8.65032 10.0076C8.53233 10.0647 8.4268 10.1446 8.33986 10.2427C8.25291 10.3409 8.18628 10.4554 8.14384 10.5796C8.1014 10.7037 8.084 10.8351 8.09266 10.966L8.09353 10.9792V15.8049C8.08849 16.0222 8.00129 16.2296 7.84959 16.3853C7.69789 16.541 7.49281 16.6335 7.27562 16.6441L7.26592 16.6445H2.84052L2.83173 16.6441C2.71493 16.639 2.60042 16.6101 2.49518 16.5592C2.38995 16.5082 2.29621 16.4364 2.21969 16.348C2.14317 16.2597 2.08547 16.1567 2.0501 16.0453C2.01703 15.9411 2.00412 15.8317 2.01199 15.7228V7.96346L1.55726 8.33708C1.46877 8.41099 1.36539 8.46501 1.25414 8.49544C1.14204 8.5261 1.02464 8.53207 0.910013 8.51295C0.795387 8.49383 0.686284 8.45007 0.590216 8.38471C0.496498 8.32095 0.417363 8.2381 0.35796 8.14165C0.238459 7.95689 0.188486 7.73557 0.217096 7.51724C0.246053 7.29627 0.353587 7.09306 0.520092 6.94487L0.526104 6.93952L8.49311 0.403584ZM3.44107 6.7893C3.45453 6.80119 3.46764 6.8135 3.48036 6.82624C3.56531 6.91125 3.63148 7.01311 3.67465 7.12526C3.71642 7.2338 3.73574 7.34965 3.73149 7.4658V14.8457H6.41888V11.0029C6.38264 10.2867 6.63026 9.58479 7.10829 9.04994C7.58887 8.51225 8.26306 8.18731 8.98289 8.14656L9.00647 8.14523L9.03004 8.14667C9.74753 8.19077 10.4184 8.51715 10.8962 9.05447C11.3714 9.58892 11.6172 10.2889 11.5809 11.003V14.8569H14.2683V7.48112C14.2624 7.37215 14.2772 7.26299 14.3121 7.15948C14.3489 7.05055 14.4071 6.95007 14.4833 6.86401C14.5099 6.83397 14.5385 6.80591 14.5689 6.77998L9.00572 2.21729L3.44107 6.7893Z" fill="#959EA7"/>
</svg>
