<svg width="15" height="15" viewBox="0 0 10 15" fill="none" xmlns="http://www.w3.org/2000/svg">
<path d="M6.33481 14.9993H1.08116C0.434673 14.9993 0.0150032 14.6173 0.00367992 14.0094C-0.00339714 13.6477 0.00191108 13.286 0.00191108 12.9244C0.00191108 10.9904 0.00191108 9.05641 0.00191108 7.12227C-0.00432385 6.9028 0.0523384 6.68573 0.166097 6.4933C0.358593 6.17964 0.646984 6.01886 1.04082 6.04977C1.18236 6.06095 1.21775 6.0136 1.21775 5.88537C1.21775 5.39417 1.20253 4.90296 1.23827 4.41142C1.33051 3.14669 1.87745 2.08526 2.87909 1.22712C3.98382 0.283833 5.30899 -0.0830922 6.78067 0.0155438C9.10407 0.171389 10.9621 1.73839 11.3889 3.86235C11.4781 4.30654 11.4713 4.75533 11.4682 5.20446C11.4682 5.42902 11.4774 5.65391 11.4646 5.87814C11.4565 6.01886 11.4933 6.06325 11.655 6.06029C12.1964 6.05042 12.5396 6.30688 12.6553 6.7994C12.6822 6.92848 12.6941 7.05988 12.6907 7.19131C12.6928 9.41041 12.6928 11.6293 12.6907 13.8479C12.6907 14.1547 12.6398 14.446 12.4186 14.6929C12.2378 14.8948 12.0145 15 11.7293 15C9.93126 14.9985 8.13309 14.9982 6.33481 14.9993ZM6.34684 6.04812C7.27217 6.04812 8.19749 6.04483 9.12317 6.05108C9.27781 6.05108 9.33796 6.02346 9.33195 5.86532C9.31815 5.5099 9.33018 5.15349 9.32664 4.79742C9.33005 4.56773 9.30548 4.33842 9.25339 4.11387C8.85778 2.56857 7.23218 1.65685 5.57545 2.05271C5.00005 2.19263 4.48364 2.49094 4.09401 2.90849C3.70437 3.32603 3.45972 3.84329 3.39217 4.39235C3.33096 4.88948 3.38333 5.38825 3.36068 5.8857C3.35502 6.01327 3.39323 6.05207 3.53478 6.0501C4.47213 6.04516 5.40949 6.04812 6.34684 6.04812V6.04812ZM5.34367 11.5632C5.34367 11.892 5.34084 12.2208 5.34367 12.5496C5.34686 12.8307 5.54395 13.0069 5.8465 13.0059C6.14904 13.0049 6.45937 13.0023 6.76651 13.0013C7.19114 12.9997 7.34789 12.8537 7.3486 12.4535C7.3486 11.8565 7.3486 11.2594 7.3486 10.6623C7.34373 10.5696 7.37715 10.4787 7.44202 10.4082C7.73819 10.0794 7.82135 9.70127 7.69361 9.28766C7.50748 8.68565 6.97423 8.36377 6.21415 8.39073C5.22336 8.42591 4.59598 9.47342 5.13702 10.2441C5.3097 10.4904 5.35641 10.7195 5.34579 10.9881C5.33766 11.1795 5.34367 11.3715 5.34367 11.5632Z" fill="#A4BCC1"/>
</svg>
