<svg width="24" height="24" viewBox="0 0 24 24" fill="none" xmlns="http://www.w3.org/2000/svg">
<path d="M3.36426 18C2.81197 18 2.36426 17.5523 2.36426 17C2.36426 16.4477 2.81197 16 3.36426 16L21.3643 16C21.9165 16 22.3643 16.4477 22.3643 17C22.3643 17.5523 21.9165 18 21.3643 18L3.36426 18Z" fill="white"/>
<path d="M3.36426 13C2.81197 13 2.36426 12.5523 2.36426 12C2.36426 11.4477 2.81197 11 3.36426 11L21.3643 11C21.9165 11 22.3643 11.4477 22.3643 12C22.3643 12.5523 21.9165 13 21.3643 13L3.36426 13Z" fill="white"/>
<path d="M3.36426 8C2.81197 8 2.36426 7.55229 2.36426 7C2.36426 6.44772 2.81197 6 3.36426 6L21.3643 6C21.9165 6 22.3643 6.44772 22.3643 7C22.3643 7.55229 21.9165 8 21.3643 8L3.36426 8Z" fill="white"/>
</svg>
