<svg width="23" height="22" viewBox="0 0 23 22" fill="none" xmlns="http://www.w3.org/2000/svg">
<path d="M10.6131 16.0532C10.6131 14.5015 10.6115 12.9494 10.6161 11.3974C10.6161 11.2684 10.5859 11.2114 10.4569 11.169C9.16244 10.7408 8.32352 9.86454 8.03568 8.51598C7.73241 7.0965 8.36882 5.64851 9.63999 4.86801C9.9065 4.70429 10.1852 4.56973 10.4874 4.49251C10.5987 4.46434 10.6154 4.41131 10.6151 4.30957C10.6118 3.17743 10.6112 2.04518 10.6131 0.912818C10.6131 0.393811 11.007 -0.00654732 11.5075 8.11228e-05C12.0081 0.00670957 12.3852 0.400439 12.3855 0.913149C12.3855 2.03435 12.3878 3.15555 12.3822 4.27675C12.3822 4.40667 12.415 4.46235 12.5414 4.50477C13.9281 4.96876 14.7792 5.92558 14.9988 7.38483C15.2062 8.76421 14.5294 10.1111 13.315 10.8316C13.0541 10.9899 12.7729 11.1113 12.4794 11.1925C12.4026 11.2131 12.3809 11.2462 12.3852 11.3162C12.3875 11.3602 12.3852 11.4043 12.3852 11.4487C12.3852 14.5303 12.3862 17.6125 12.3881 20.6954C12.3881 21.286 11.7973 21.7367 11.2259 21.5439C11.0467 21.4875 10.8902 21.3745 10.7794 21.2215C10.6686 21.0685 10.6094 20.8836 10.6105 20.6941C10.6164 19.1467 10.6131 17.5996 10.6131 16.0532ZM13.2484 7.83391C13.2566 6.91488 12.5358 6.1009 11.4967 6.10322C10.4576 6.10554 9.74535 6.91057 9.7483 7.83921C9.75093 8.81127 10.5334 9.58912 11.518 9.57288C12.525 9.55499 13.2602 8.76189 13.2484 7.83292V7.83391Z" fill="#F7F9FC"/>
<path d="M4.41417 5.51127C4.41417 7.06895 4.41329 8.62664 4.41154 10.1843C4.41154 10.3169 4.44239 10.3756 4.5809 10.4229C5.92986 10.8869 6.79241 11.809 7.02413 13.24C7.3018 14.9545 6.23248 16.6007 4.57237 17.0935C4.44108 17.1323 4.41023 17.1863 4.41088 17.3172C4.41646 18.4384 4.41088 19.5599 4.41548 20.6811C4.41548 21.0401 4.27205 21.3108 3.95926 21.4765C3.64647 21.6423 3.32942 21.6307 3.03238 21.4331C2.76062 21.2525 2.63852 20.9857 2.63852 20.6599C2.63852 19.5497 2.63557 18.4394 2.64213 17.3295C2.64213 17.1846 2.6034 17.1329 2.46391 17.0845C1.16714 16.6351 0.313777 15.7472 0.060395 14.3745C-0.270118 12.5808 0.789032 10.9804 2.42748 10.4428C2.60537 10.3845 2.64377 10.3103 2.64345 10.1369C2.63819 7.07702 2.63699 4.01688 2.63984 0.95653C2.63984 0.444152 2.9198 0.0948324 3.41705 0.0123082C3.91429 -0.0702159 4.40957 0.329811 4.41023 0.820647C4.4122 2.38386 4.4122 3.94695 4.41023 5.50994L4.41417 5.51127ZM3.52175 15.4838C4.43451 15.5046 5.2777 14.81 5.28886 13.773C5.29969 12.7598 4.50114 12.0645 3.6189 12.0257C2.57583 11.9796 1.80978 12.7903 1.7809 13.6971C1.74775 14.686 2.55811 15.4987 3.52175 15.4838Z" fill="#F7F9FC"/>
<path d="M20.3588 5.5475C20.3588 7.09966 20.3579 8.65171 20.3562 10.2037C20.3562 10.3253 20.3821 10.3793 20.5088 10.4221C21.819 10.8619 22.675 11.7504 22.9327 13.1271C23.1739 14.4223 22.7581 15.5289 21.7705 16.3996C21.3977 16.7328 20.9526 16.9728 20.4711 17.1002C20.3677 17.1274 20.3572 17.1884 20.3575 17.2792C20.3595 18.406 20.3595 19.5329 20.3575 20.6597C20.3575 21.0405 20.1954 21.3358 19.8514 21.4975C19.5212 21.653 19.193 21.6175 18.8996 21.3882C18.7066 21.2367 18.5874 21.0335 18.5865 20.7803C18.5821 19.6208 18.5812 18.4608 18.5838 17.3004C18.5838 17.1834 18.551 17.1327 18.4391 17.0956C17.078 16.6458 16.2217 15.7195 15.9742 14.2908C15.7395 12.916 16.3713 11.5655 17.5775 10.8045C17.8582 10.6279 18.1542 10.4811 18.4782 10.4042C18.5927 10.377 18.5829 10.3008 18.5829 10.2169C18.5829 8.72021 18.5829 7.2235 18.5829 5.7268C18.5829 4.13067 18.5829 2.53454 18.5829 0.938411C18.5829 0.441278 18.8425 0.115489 19.3049 0.0236855C19.8603 -0.0866781 20.3572 0.335554 20.3578 0.924823C20.36 2.46594 20.3604 4.00683 20.3588 5.5475ZM19.4602 15.4859C20.4409 15.4859 21.2148 14.7276 21.2161 13.7625C21.2161 12.7921 20.4514 12.0338 19.4766 12.0238C18.5553 12.0142 17.7082 12.7231 17.7088 13.7572C17.7088 14.76 18.507 15.4875 19.4602 15.4859Z" fill="#F7F9FC"/>
</svg>
