<svg width="21" height="24" viewBox="0 0 21 24" fill="none" xmlns="http://www.w3.org/2000/svg">
<path d="M3.9375 0C4.98179 0 5.98331 0.421427 6.72173 1.17157C7.46016 1.92172 7.875 2.93913 7.875 4V20C7.875 21.0609 7.46016 22.0783 6.72173 22.8284C5.98331 23.5786 4.98179 24 3.9375 24C2.89321 24 1.89169 23.5786 1.15327 22.8284C0.414842 22.0783 2.20068e-08 21.0609 0 20V4C0 2.93913 0.414842 1.92172 1.15327 1.17157C1.89169 0.421427 2.89321 0 3.9375 0ZM17.0625 0C18.1068 0 19.1083 0.421427 19.8467 1.17157C20.5852 1.92172 21 2.93913 21 4V20C21 21.0609 20.5852 22.0783 19.8467 22.8284C19.1083 23.5786 18.1068 24 17.0625 24C16.0182 24 15.0167 23.5786 14.2783 22.8284C13.5398 22.0783 13.125 21.0609 13.125 20V4C13.125 2.93913 13.5398 1.92172 14.2783 1.17157C15.0167 0.421427 16.0182 0 17.0625 0Z" fill="white"/>
</svg>
