<svg width="15" height="18" viewBox="0 0 15 18" fill="none" xmlns="http://www.w3.org/2000/svg">
<path d="M14.3732 14.0074V14.0936C14.3934 14.6097 14.3385 15.126 14.2103 15.6263C14.1729 15.7137 14.1093 15.7873 14.0283 15.8371C11.9342 16.9709 9.57821 17.5326 7.19781 17.4656C4.81716 17.5349 2.46058 16.973 0.367295 15.8371C0.285436 15.7884 0.221573 15.7144 0.185276 15.6263C0.0460151 15.1246 -0.0153733 14.6044 0.0032564 14.084C0.00510588 14.0553 0.00510588 14.0265 0.0032564 13.9978C0.0032564 13.3272 0.070316 11.7466 1.68933 11.2197C2.70849 10.9445 3.67824 10.5113 4.56332 9.93599C4.6666 9.86476 4.79371 9.83691 4.91732 9.8584C6.20143 10.9678 8.05858 10.9678 9.56451 9.88714C9.68812 9.86565 9.81523 9.8935 9.91851 9.96473C10.8045 10.5384 11.774 10.9715 12.7925 11.2484C14.3061 11.7561 14.3732 13.3368 14.3732 14.0074Z" fill="#A4BCC1"/>
<path d="M7.4103 12.1728H7.89284C8.35295 12.1835 10.7185 10.9583 11.1428 10.78C9.28569 9.85141 9.64418 8.97314 9.95852 8.63699C11.2997 7.17129 11.0794 4.69972 11.0506 4.41233C11.0686 3.79631 10.9207 3.18678 10.6224 2.6475C10.3241 2.10821 9.88637 1.65899 9.35499 1.34682C8.76678 1.02855 8.10778 0.863805 7.439 0.867837H7.41984C6.75275 0.858327 6.09395 1.01643 5.50384 1.32766C4.9731 1.64385 4.53733 2.09717 4.24232 2.63996C3.94732 3.18276 3.80397 3.79499 3.82735 4.41233C3.82735 4.65182 3.57827 7.17129 4.91947 8.63699C5.23344 8.97362 5.10712 9.38713 4.24232 10.3157C4.66671 10.494 6.95011 12.1841 7.4103 12.1728Z" fill="#A4BCC1"/>
</svg>
