<svg width="14" height="14" viewBox="0 0 14 14" fill="none" xmlns="http://www.w3.org/2000/svg">
<path d="M11.294 9.91666C11.7292 10.1827 11.9583 10.4845 11.9583 10.7917C11.9583 11.0989 11.7292 11.4006 11.294 11.6667C10.8589 11.9327 10.2329 12.1536 9.47917 12.3072C8.72541 12.4608 7.87037 12.5417 7.00001 12.5417C6.12964 12.5417 5.2746 12.4608 4.52084 12.3072C3.76708 12.1536 3.14115 11.9327 2.70596 11.6667C2.27078 11.4006 2.04167 11.0989 2.04167 10.7917C2.04167 10.4845 2.27078 10.1827 2.70596 9.91666" stroke="#3B3B3B" stroke-linecap="round"/>
<path d="M11.375 5.83334C11.375 8.59581 8.52361 10.5097 7.42473 11.1447C7.15978 11.2978 6.84022 11.2978 6.57527 11.1447C5.47639 10.5097 2.625 8.59581 2.625 5.83334C2.625 3.20834 4.74484 1.45834 7 1.45834C9.33333 1.45834 11.375 3.20834 11.375 5.83334Z" stroke="#3B3B3B"/>
<circle cx="7.00001" cy="5.83333" r="1.83333" stroke="#3B3B3B"/>
</svg>
