<svg width="64" height="64" viewBox="0 0 64 64" fill="none" xmlns="http://www.w3.org/2000/svg">
<path d="M32 4C16.5562 4 4 16.5562 4 32C4 47.4437 16.5562 60 32 60C47.4437 60 60 47.4437 60 32C60 16.5562 47.4437 4 32 4Z" fill="#FC471E"/>
<path fill-rule="evenodd" clip-rule="evenodd" d="M40.0385 18.819C40.0132 18.9797 40 19.1445 40 19.3125C40 21.0086 41.3431 22.3836 43 22.3836C44.6569 22.3836 46 21.0086 46 19.3125C46 17.6164 44.6569 16.2414 43 16.2414C42.2617 16.2414 41.5857 16.5144 41.0631 16.9672L33.2724 15L30.4566 26.5302C26.7108 26.7825 23.342 27.9438 20.8006 29.697C20.079 28.9726 19.0905 28.5259 18 28.5259C15.7909 28.5259 14 30.3592 14 32.6207C14 34.1945 14.8673 35.561 16.1393 36.2465C16.0474 36.7349 16 37.2332 16 37.7392C16 43.9584 23.1634 49 32 49C40.8366 49 48 43.9584 48 37.7392C48 37.2332 47.9526 36.7349 47.8607 36.2465C49.1327 35.561 50 34.1945 50 32.6207C50 30.3592 48.2091 28.5259 46 28.5259C44.9095 28.5259 43.921 28.9726 43.1994 29.697C40.4307 27.7869 36.6798 26.5795 32.5293 26.4845L34.7276 17.4829L40.0385 18.819ZM25 38.7629C26.6569 38.7629 28 37.3879 28 35.6918C28 33.9957 26.6569 32.6207 25 32.6207C23.3431 32.6207 22 33.9957 22 35.6918C22 37.3879 23.3431 38.7629 25 38.7629ZM39 38.7629C40.6569 38.7629 42 37.3879 42 35.6918C42 33.9957 40.6569 32.6207 39 32.6207C37.3431 32.6207 36 33.9957 36 35.6918C36 37.3879 37.3431 38.7629 39 38.7629ZM25.5547 42.006C25.0952 41.6924 24.4743 41.8195 24.1679 42.2899C23.8616 42.7603 23.9858 43.3959 24.4453 43.7095C26.6215 45.1947 29.3107 45.9373 32 45.9373C34.6893 45.9373 37.3785 45.1947 39.5547 43.7095C40.0142 43.3959 40.1384 42.7603 39.8321 42.2899C39.5257 41.8195 38.9048 41.6924 38.4453 42.006C36.605 43.2619 34.3025 43.8899 32 43.8899C30.6345 43.8899 29.2691 43.669 28 43.2273C27.1291 42.9242 26.3036 42.5171 25.5547 42.006Z" fill="white"/>
</svg>
