<svg width="28" height="28" viewBox="0 0 28 28" fill="none" xmlns="http://www.w3.org/2000/svg">
<path d="M13.4351 19.86V16.8661C12.3177 16.7521 11.2602 16.3023 10.4026 15.5748C9.53946 14.8427 8.92078 13.8649 8.62837 12.7727C7.83448 12.686 7.0984 12.3129 6.5589 11.7219C6.00351 11.1135 5.69699 10.3186 5.70007 9.49484M13.4351 19.86L19.2726 12.68C20.0684 12.6104 20.8089 12.2444 21.3474 11.6544C21.8859 11.0645 22.1831 10.2938 22.1801 9.49502H22.2801V9.49464V7.67502C22.2801 7.52783 22.2216 7.38666 22.1175 7.28258C22.0134 7.1785 21.8723 7.12002 21.7251 7.12002H19.5501V5.85502C19.5501 5.70783 19.4916 5.56666 19.3875 5.46258C19.2834 5.3585 19.1423 5.30002 18.9951 5.30002H8.98507C8.83788 5.30002 8.69671 5.3585 8.59263 5.46258C8.48855 5.56666 8.43007 5.70783 8.43007 5.85502V7.12002H6.25507C6.10788 7.12002 5.96671 7.1785 5.86263 7.28258C5.75855 7.38666 5.70007 7.52783 5.70007 7.67502V9.49484M13.4351 19.86H12.6266C12.1332 19.8449 11.6539 20.026 11.2937 20.3637C10.9331 20.7017 10.7214 21.169 10.7051 21.663L10.7051 21.663V21.6663V22.59H8.98507H8.88507V22.69V23.6V23.7H8.98507H18.9951H19.0951V23.6V22.69V22.59H18.9951H17.2751V21.6663H17.2751L17.275 21.663C17.2587 21.169 17.047 20.7017 16.6865 20.3637C16.3263 20.026 15.847 19.8449 15.3535 19.86H14.5451V16.8661C15.6625 16.7521 16.7199 16.3023 17.5776 15.5748C18.4407 14.8427 19.0594 13.8649 19.3518 12.7727L13.4351 19.86ZM5.70007 9.49484C5.70007 9.49477 5.70007 9.49471 5.70007 9.49464L5.80007 9.49502M5.70007 9.49484V9.49502H5.80007M5.80007 9.49502C5.79703 10.2938 6.09423 11.0645 6.63275 11.6544C7.17128 12.2444 7.9118 12.6104 8.70752 12.68C8.98704 13.7795 9.60211 14.7647 10.4673 15.4986C11.3324 16.2324 12.4047 16.6786 13.5351 16.775L5.80007 9.49502ZM16.1651 21.67V22.59H11.8151V21.67C11.8303 21.4718 11.9227 21.2874 12.0723 21.1565C12.2229 21.0247 12.4193 20.9577 12.619 20.9698L12.619 20.97H12.6251H15.3551V20.9702L15.3612 20.9698C15.5608 20.9577 15.7573 21.0247 15.9078 21.1565C16.0575 21.2874 16.1498 21.4718 16.1651 21.67ZM8.43007 11.4535C8.42762 11.5015 8.42646 11.5495 8.42659 11.5976C7.98504 11.4803 7.59046 11.2265 7.30018 10.8709C6.98311 10.4825 6.80997 9.99645 6.81007 9.49504L6.71125 9.49502H6.81007V8.23002H8.43007V11.4535ZM21.1701 9.49502V9.49504C21.1702 9.99645 20.997 10.4825 20.68 10.8709C20.3897 11.2265 19.9951 11.4803 19.5536 11.5976C19.5537 11.5495 19.5525 11.5015 19.5501 11.4535V8.23002H21.1701V9.49502ZM13.9901 15.765C12.8099 15.765 11.678 15.2962 10.8434 14.4616C10.0089 13.6271 9.54007 12.4952 9.54007 11.315V6.41002H18.4401V11.315C18.4401 11.8994 18.325 12.4781 18.1013 13.018C17.8777 13.5579 17.5499 14.0484 17.1367 14.4616C16.7235 14.8749 16.2329 15.2027 15.693 15.4263C15.1531 15.6499 14.5745 15.765 13.9901 15.765Z" fill="#959EA7" stroke="#959EA7" stroke-width="0.2"/>
</svg>
