<svg width="28" height="28" viewBox="0 0 28 28" fill="none" xmlns="http://www.w3.org/2000/svg">
<path d="M22.5548 12.7044L21.332 12.5006C21.2038 12.1009 21.038 11.7142 20.837 11.3457L21.5552 10.3752C21.705 10.1736 21.7759 9.92409 21.7544 9.6738C21.733 9.42352 21.6207 9.18973 21.4387 9.01654L20.3518 7.93931C20.1697 7.76219 19.9319 7.65375 19.6788 7.63251C19.4257 7.61127 19.173 7.67855 18.964 7.82285L17.9935 8.5313C17.5994 8.32734 17.1867 8.1616 16.761 8.03635L16.5572 6.85237C16.5134 6.60226 16.3818 6.37596 16.1862 6.2141C15.9905 6.05224 15.7436 5.96543 15.4897 5.96924H13.9078C13.6539 5.96543 13.407 6.05224 13.2113 6.2141C13.0157 6.37596 12.8841 6.60226 12.8403 6.85237L12.6365 8.06547C12.2275 8.18987 11.8311 8.35233 11.4525 8.55071L10.482 7.84226C10.2985 7.71909 10.0819 7.65476 9.86092 7.65787C9.71897 7.65656 9.57816 7.68333 9.44658 7.73662C9.31501 7.78992 9.19527 7.86869 9.09424 7.96842L7.91996 9.02624C7.73801 9.19944 7.62572 9.43322 7.60426 9.68351C7.58281 9.93379 7.65368 10.1833 7.8035 10.3849L8.53136 11.3554C8.34584 11.7442 8.19955 12.1506 8.09465 12.5685L6.88155 12.7626C6.63524 12.799 6.40969 12.9212 6.2446 13.1076C6.07951 13.294 5.98546 13.5327 5.979 13.7816V15.2761C5.9809 15.5284 6.0729 15.7717 6.2384 15.9621C6.4039 16.1525 6.632 16.2775 6.88155 16.3145L8.12376 16.5183C8.25413 16.9187 8.42314 17.3055 8.62841 17.6732L7.91026 18.6437C7.76043 18.8453 7.68956 19.0948 7.71101 19.3451C7.73247 19.5954 7.84476 19.8292 8.02671 20.0023L9.11365 21.0602C9.2957 21.2373 9.53358 21.3457 9.78668 21.367C10.0398 21.3882 10.2924 21.3209 10.5014 21.1766L11.5301 20.4682C11.9005 20.6574 12.287 20.8133 12.685 20.934L12.8888 22.1277C12.9326 22.3778 13.0642 22.6041 13.2598 22.766C13.4555 22.9278 13.7024 23.0146 13.9563 23.0108H15.4994C15.7533 23.0146 16.0002 22.9278 16.1959 22.766C16.3915 22.6041 16.5231 22.3778 16.5669 22.1277L16.7707 20.934C17.1823 20.8123 17.5819 20.6532 17.9644 20.4585L18.9349 21.1669C19.1439 21.3112 19.3965 21.3785 19.6496 21.3573C19.9027 21.336 20.1406 21.2276 20.3227 21.0505L21.4096 19.9926C21.5916 19.8195 21.7039 19.5857 21.7253 19.3354C21.7468 19.0851 21.6759 18.8356 21.5261 18.634L20.8079 17.6635C21.0195 17.2774 21.1918 16.871 21.3223 16.4504L22.5451 16.2466C22.7898 16.2104 23.0141 16.0897 23.179 15.9053C23.3439 15.7209 23.4389 15.4845 23.4476 15.2373V13.7428C23.4481 13.4914 23.3581 13.2482 23.1942 13.0576C23.0303 12.867 22.8034 12.7416 22.5548 12.7044ZM22.4771 15.2373C22.4776 15.26 22.4701 15.2822 22.4559 15.2999C22.4417 15.3176 22.4217 15.3298 22.3995 15.3344L20.8661 15.5867C20.7731 15.6001 20.686 15.6403 20.6153 15.7023C20.5447 15.7643 20.4936 15.8455 20.4682 15.936C20.3274 16.4593 20.1117 16.9594 19.8277 17.4209C19.7752 17.4981 19.747 17.5894 19.747 17.6829C19.747 17.7764 19.7752 17.8677 19.8277 17.9449L20.7303 19.1774C20.7429 19.1942 20.7497 19.2147 20.7497 19.2357C20.7497 19.2567 20.7429 19.2771 20.7303 19.2939L19.653 20.3323C19.6311 20.3405 19.607 20.3405 19.5851 20.3323H19.5657L18.3041 19.4492C18.224 19.3993 18.1315 19.3728 18.0372 19.3728C17.9428 19.3728 17.8504 19.3993 17.7703 19.4492C17.2907 19.7268 16.7746 19.9359 16.237 20.0703C16.1454 20.0922 16.0624 20.1408 15.9985 20.2099C15.9346 20.279 15.8926 20.3655 15.8779 20.4585L15.6159 21.953C15.6113 21.9753 15.5991 21.9952 15.5814 22.0094C15.5637 22.0236 15.5415 22.0311 15.5188 22.0306H13.9466C13.9239 22.0311 13.9018 22.0236 13.884 22.0094C13.8663 21.9952 13.8541 21.9753 13.8496 21.953L13.5973 20.4585C13.5814 20.366 13.539 20.2801 13.4752 20.2112C13.4115 20.1423 13.3292 20.0933 13.2382 20.0703C12.7158 19.9361 12.2133 19.7338 11.7436 19.4686C11.6668 19.4246 11.5799 19.4012 11.4913 19.4007C11.3907 19.3999 11.2924 19.4304 11.2099 19.488L9.92885 20.3711H9.87062C9.84872 20.3793 9.82459 20.3793 9.80269 20.3711L8.71575 19.3618C8.70315 19.345 8.69634 19.3246 8.69634 19.3036C8.69634 19.2826 8.70315 19.2622 8.71575 19.2454L9.60859 18.0226C9.65993 17.9448 9.6873 17.8537 9.6873 17.7605C9.6873 17.6674 9.65993 17.5763 9.60859 17.4985C9.32376 17.0375 9.10796 16.5372 8.96808 16.0137C8.94165 15.9237 8.89022 15.8432 8.81978 15.7813C8.74934 15.7195 8.66278 15.6789 8.57018 15.6643L7.04653 15.3635C7.02239 15.3636 6.99907 15.3547 6.98112 15.3386C6.96318 15.3224 6.9519 15.3001 6.94948 15.2761V13.7816C6.94902 13.7589 6.95654 13.7367 6.97073 13.719C6.98491 13.7013 7.00487 13.6891 7.02712 13.6845L8.55077 13.4322C8.64503 13.4181 8.73303 13.3765 8.80379 13.3126C8.87456 13.2487 8.92494 13.1655 8.94867 13.0731C9.09009 12.5532 9.30581 12.0563 9.58918 11.598C9.63968 11.5217 9.66661 11.4323 9.66661 11.3408C9.66661 11.2494 9.63968 11.1599 9.58918 11.0837L8.65752 9.82203C8.64493 9.80524 8.63811 9.7848 8.63811 9.76381C8.63811 9.74281 8.64493 9.72238 8.65752 9.70558L9.75416 8.68658C9.77607 8.67839 9.80019 8.67839 9.8221 8.68658H9.88033L11.1419 9.56001C11.2235 9.61075 11.3176 9.63764 11.4137 9.63764C11.5097 9.63764 11.6039 9.61075 11.6854 9.56001C12.1613 9.2819 12.6743 9.07277 13.2091 8.9389C13.2995 8.91477 13.3812 8.86549 13.4448 8.79678C13.5084 8.72807 13.5511 8.64274 13.5681 8.55071L13.8302 7.04647C13.8347 7.02422 13.8469 7.00426 13.8646 6.99008C13.8824 6.97589 13.9045 6.96837 13.9272 6.96883H15.4606C15.4833 6.96837 15.5054 6.97589 15.5232 6.99008C15.5409 7.00426 15.5531 7.02422 15.5576 7.04647L15.8099 8.5313C15.8266 8.62505 15.8704 8.71184 15.936 8.78086C16.0015 8.84989 16.086 8.8981 16.1787 8.91949C16.7261 9.05225 17.2521 9.26134 17.7412 9.5406C17.8213 9.59049 17.9137 9.61694 18.0081 9.61694C18.1024 9.61694 18.1949 9.59049 18.275 9.5406L19.5657 8.60894H19.6239C19.6458 8.60075 19.67 8.60075 19.6919 8.60894L20.74 9.65705C20.7526 9.67385 20.7594 9.69428 20.7594 9.71528C20.7594 9.73628 20.7526 9.75671 20.74 9.77351L19.8374 11.006C19.7849 11.0833 19.7568 11.1746 19.7568 11.268C19.7568 11.3615 19.7849 11.4528 19.8374 11.5301C20.119 11.9951 20.3315 12.4985 20.4682 13.0246C20.4925 13.1157 20.5432 13.1976 20.6141 13.2598C20.6849 13.322 20.7727 13.3618 20.8661 13.374L22.3995 13.6263C22.4217 13.6308 22.4417 13.643 22.4559 13.6608C22.4701 13.6785 22.4776 13.7007 22.4771 13.7234V15.2373Z" fill="#959EA7" stroke="#959EA7" stroke-width="0.3" stroke-miterlimit="10"/>
<path d="M14.7132 10.7924C13.9793 10.7982 13.2636 11.021 12.6562 11.4329C12.0488 11.8448 11.5769 12.4273 11.3 13.107C11.0232 13.7867 10.9537 14.5331 11.1004 15.2522C11.2471 15.9712 11.6034 16.6308 12.1243 17.1477C12.6453 17.6646 13.3076 18.0158 14.0278 18.1568C14.748 18.2979 15.4939 18.2226 16.1714 17.9405C16.8489 17.6583 17.4277 17.1819 17.8348 16.5713C18.242 15.9607 18.4592 15.2432 18.4593 14.5093C18.458 14.0191 18.36 13.534 18.1709 13.0817C17.9819 12.6294 17.7054 12.2189 17.3575 11.8736C17.0095 11.5283 16.5968 11.2551 16.1431 11.0696C15.6893 10.884 15.2034 10.7899 14.7132 10.7924ZM14.7132 17.2461C14.1704 17.2423 13.641 17.0777 13.1917 16.7731C12.7424 16.4686 12.3934 16.0378 12.1888 15.535C11.9842 15.0323 11.9331 14.4802 12.0421 13.9485C12.151 13.4167 12.4151 12.9292 12.8009 12.5474C13.1867 12.1657 13.677 11.9068 14.2099 11.8035C14.7427 11.7001 15.2943 11.757 15.7948 11.967C16.2954 12.1769 16.7225 12.5304 17.0222 12.9829C17.322 13.4354 17.481 13.9666 17.4791 14.5093C17.4778 14.8713 17.4053 15.2294 17.2656 15.5633C17.1259 15.8972 16.9218 16.2004 16.665 16.4554C16.4081 16.7104 16.1036 16.9124 15.7687 17.0497C15.4338 17.187 15.0752 17.2571 14.7132 17.2558" fill="#959EA7"/>
<path d="M14.7132 17.2461C14.1704 17.2423 13.641 17.0777 13.1917 16.7731C12.7424 16.4686 12.3934 16.0378 12.1888 15.535C11.9842 15.0323 11.9331 14.4802 12.0421 13.9485C12.151 13.4167 12.4151 12.9292 12.8009 12.5474C13.1867 12.1657 13.677 11.9068 14.2099 11.8035C14.7427 11.7001 15.2943 11.757 15.7948 11.967C16.2954 12.1769 16.7225 12.5304 17.0222 12.9829C17.322 13.4354 17.481 13.9666 17.4791 14.5093C17.4778 14.8713 17.4053 15.2294 17.2656 15.5633C17.1259 15.8972 16.9218 16.2004 16.665 16.4554C16.4081 16.7104 16.1036 16.9124 15.7687 17.0497C15.4338 17.187 15.0752 17.2571 14.7132 17.2558M14.7132 10.7924C13.9793 10.7982 13.2636 11.021 12.6562 11.4329C12.0488 11.8448 11.5769 12.4273 11.3 13.107C11.0232 13.7867 10.9537 14.5331 11.1004 15.2522C11.2471 15.9712 11.6034 16.6308 12.1243 17.1477C12.6453 17.6646 13.3076 18.0158 14.0278 18.1568C14.748 18.2979 15.4939 18.2226 16.1714 17.9405C16.8489 17.6583 17.4277 17.1819 17.8348 16.5713C18.242 15.9607 18.4592 15.2432 18.4593 14.5093C18.458 14.0191 18.36 13.534 18.1709 13.0817C17.9819 12.6294 17.7054 12.2189 17.3575 11.8736C17.0095 11.5283 16.5968 11.2551 16.1431 11.0696C15.6893 10.884 15.2034 10.7899 14.7132 10.7924V10.7924Z" stroke="#959EA7" stroke-width="0.3" stroke-miterlimit="10"/>
</svg>
