<?xml version="1.0" encoding="UTF-8"?>
<svg width="118px" height="175px" viewBox="0 0 118 175" version="1.1" xmlns="http://www.w3.org/2000/svg" xmlns:xlink="http://www.w3.org/1999/xlink">
    <!-- Generator: Sketch 63.1 (92452) - https://sketch.com -->
    <title>Dan - Cropped</title>
    <desc>Created with Sketch.</desc>
    <defs>
        <path d="M36.4638027,0 L36.627685,0 C56.7660871,-3.69936446e-15 73.0914877,16.3254006 73.0914877,36.4638027 C73.0914877,56.6022049 56.7660871,72.9276054 36.627685,72.9276054 L36.4638027,72.9276054 C16.3254006,72.9276054 2.46624297e-15,56.6022049 0,36.4638027 C-2.46624297e-15,16.3254006 16.3254006,3.69936446e-15 36.4638027,0 Z" id="path-1"></path>
        <circle id="path-3" cx="33.4319809" cy="33.4319809" r="33.4319809"></circle>
    </defs>
    <g id="Dan---Cropped" stroke="none" stroke-width="1" fill="none" fill-rule="evenodd">
        <g id="Group" transform="translate(1.000000, 9.000000)">
            <path d="M8.90320255,148.777853 L21.6288835,154.443691 L18.8626213,160.656818 C18.4407903,161.604266 17.7604133,162.355847 16.9415694,162.865467 C17.0605287,162.444853 17.0856676,161.99168 16.9967487,161.534232 C16.6945227,159.979414 15.1890909,158.963988 13.6342727,159.266214 C12.0794545,159.56844 11.0640279,161.073871 11.3662539,162.62869 C11.3781218,162.689745 11.391845,162.749968 11.4073537,162.809312 L8.67017806,161.590289 C6.14829471,160.467475 5.01412556,157.512863 6.13694037,154.99098 L8.90320255,148.777853 Z" id="Combined-Shape" fill="#C6775C" transform="translate(13.666222, 155.821660) rotate(4.000000) translate(-13.666222, -155.821660) "></path>
            <path d="M15.6792634,155.544623 L19.9729784,155.544623 C21.5478467,155.544623 22.8245298,156.821306 22.8245298,158.396174 C22.8245298,159.971043 21.5478467,161.247726 19.9729784,161.247726 L15.6792634,161.247726 C14.104395,161.247726 12.827712,159.971043 12.827712,158.396174 C12.827712,156.821306 14.104395,155.544623 15.6792634,155.544623 Z" id="Rectangle" fill="#C6775C" transform="translate(17.826121, 158.396174) rotate(-91.000000) translate(-17.826121, -158.396174) "></path>
            <path d="M4.82839361,159.010154 L10.9248139,159.010154 C12.4996823,159.010154 13.7763653,160.286837 13.7763653,161.861705 C13.7763653,163.436574 12.4996823,164.713257 10.9248139,164.713257 L4.82839361,164.713257 C3.25352524,164.713257 1.97684218,163.436574 1.97684218,161.861705 C1.97684218,160.286837 3.25352524,159.010154 4.82839361,159.010154 Z" id="Rectangle" fill="#C6775C" transform="translate(7.876604, 161.861705) rotate(-100.000000) translate(-7.876604, -161.861705) "></path>
            <path d="M1.78963623,156.87705 L11.4914658,156.87705 C13.0663341,156.87705 14.3430172,158.153733 14.3430172,159.728601 C14.3430172,161.30347 13.0663341,162.580153 11.4914658,162.580153 L1.78963623,162.580153 C0.214767862,162.580153 -1.0619152,161.30347 -1.0619152,159.728601 C-1.0619152,158.153733 0.214767862,156.87705 1.78963623,156.87705 Z" id="Rectangle" fill="#C6775C" transform="translate(6.640551, 159.728601) rotate(-61.000000) translate(-6.640551, -159.728601) "></path>
            <rect id="Rectangle" fill="#CC348D" transform="translate(29.592255, 122.796384) rotate(-65.000000) translate(-29.592255, -122.796384) " x="11.0922552" y="113.296384" width="37" height="19" rx="9.5"></rect>
            <path d="M104.384704,156.87705 L114.086533,156.87705 C115.661402,156.87705 116.938085,158.153733 116.938085,159.728601 C116.938085,161.30347 115.661402,162.580153 114.086533,162.580153 L104.384704,162.580153 C102.809835,162.580153 101.533152,161.30347 101.533152,159.728601 C101.533152,158.153733 102.809835,156.87705 104.384704,156.87705 Z" id="Rectangle-Copy-6" fill="#C6775C" transform="translate(109.235619, 159.728601) scale(-1, 1) rotate(-61.000000) translate(-109.235619, -159.728601) "></path>
            <path d="M104.750879,159.010154 L110.847299,159.010154 C112.422168,159.010154 113.698851,160.286837 113.698851,161.861705 C113.698851,163.436574 112.422168,164.713257 110.847299,164.713257 L104.750879,164.713257 C103.17601,164.713257 101.899327,163.436574 101.899327,161.861705 C101.899327,160.286837 103.17601,159.010154 104.750879,159.010154 Z" id="Rectangle-Copy-7" fill="#C6775C" transform="translate(107.799089, 161.861705) scale(-1, 1) rotate(-100.000000) translate(-107.799089, -161.861705) "></path>
            <path d="M95.9000091,155.544623 L100.193724,155.544623 C101.768592,155.544623 103.045275,156.821306 103.045275,158.396174 C103.045275,159.971043 101.768592,161.247726 100.193724,161.247726 L95.9000091,161.247726 C94.3251407,161.247726 93.0484576,159.971043 93.0484576,158.396174 C93.0484576,156.821306 94.3251407,155.544623 95.9000091,155.544623 Z" id="Rectangle-Copy-8" fill="#C6775C" transform="translate(98.046867, 158.396174) scale(-1, 1) rotate(-91.000000) translate(-98.046867, -158.396174) "></path>
            <path d="M97.372253,148.777853 L110.097934,154.443691 L107.331672,160.656818 C106.909841,161.604266 106.229464,162.355847 105.41062,162.865467 C105.529579,162.444853 105.554718,161.99168 105.465799,161.534232 C105.163573,159.979414 103.658141,158.963988 102.103323,159.266214 C100.548505,159.56844 99.5330784,161.073871 99.8353044,162.62869 C99.8471723,162.689745 99.8608955,162.749968 99.8764041,162.809312 L97.1392286,161.590289 C94.6173452,160.467475 93.483176,157.512863 94.6059909,154.99098 L97.372253,148.777853 Z" id="Combined-Shape-Copy" fill="#C6775C" transform="translate(102.135272, 155.821660) scale(-1, 1) rotate(4.000000) translate(-102.135272, -155.821660) "></path>
            <rect id="Rectangle-Copy-5" fill="#CC348D" transform="translate(86.283914, 122.796384) scale(-1, 1) rotate(-65.000000) translate(-86.283914, -122.796384) " x="67.7839144" y="113.296384" width="37" height="19" rx="9.5"></rect>
            <rect id="Rectangle-Copy-2" fill="#CC348D" transform="translate(22.196436, 138.656770) rotate(-65.000000) translate(-22.196436, -138.656770) " x="4.19643564" y="129.15677" width="36" height="19" rx="9.5"></rect>
            <rect id="Rectangle-Copy-9" fill="#CC348D" transform="translate(93.679734, 138.656770) scale(-1, 1) rotate(-65.000000) translate(-93.679734, -138.656770) " x="75.679734" y="129.15677" width="36" height="19" rx="9.5"></rect>
            <g id="bod" transform="translate(21.398716, 89.807478)">
                <mask id="mask-2" fill="white">
                    <use xlink:href="#path-1"></use>
                </mask>
                <use id="Mask" fill="#CC348D" xlink:href="#path-1"></use>
                <rect id="Rectangle" fill="#0084C2" mask="url(#mask-2)" x="-13.3564041" y="48.8369133" width="98.3293556" height="37.5290374"></rect>
                <rect id="Rectangle" fill="#00448E" mask="url(#mask-2)" x="-12.618934" y="44.4120923" width="98.1654733" height="5.89976134"></rect>
            </g>
            <g id="Line-Copy" transform="translate(23.693068, 0.000000)">
                <mask id="mask-4" fill="white">
                    <use xlink:href="#path-3"></use>
                </mask>
                <use id="Mask" fill="#0084C2" xlink:href="#path-3"></use>
                <line x1="26.2611235" y1="31.6873383" x2="58.1563136" y2="6.57084711" id="Line" stroke="#00448E" stroke-width="3.11376293" opacity="0.388741629" stroke-linecap="square" mask="url(#mask-4)"></line>
            </g>
            <polygon id="Rectangle-Copy-3" fill="#C6775C" points="35.9842374 38.6956944 57.6042539 23.4351631 78.9213894 38.6956944 78.9213894 86.5298329 35.9842374 86.5298329"></polygon>
            <path d="M47.9722141,35.5624503 C52.2397394,35.5624503 55.6992521,39.021963 55.6992521,43.2894883 L55.6992521,47.9896371 C55.6992521,52.2571623 52.2397394,55.7166751 47.9722141,55.7166751 C43.7046889,55.7166751 40.2451762,52.2571623 40.2451762,47.9896371 L40.2451762,43.2894883 C40.2451762,39.021963 43.7046889,35.5624503 47.9722141,35.5624503 Z" id="Rectangle-130-Copy-42" fill="#FFFFFF"></path>
            <rect id="Rectangle-130-Copy-44" fill="#FFFFFF" x="59.0911014" y="35.5624503" width="15.454076" height="20.1542248" rx="7.72703798"></rect>
            <path d="M50.1056156,40.1511535 C52.0215086,40.1511535 53.5746469,41.7042918 53.5746469,43.6201848 L53.5746469,47.9773471 C53.5746469,49.8932402 52.0215086,51.4463784 50.1056156,51.4463784 C48.1897225,51.4463784 46.6365843,49.8932402 46.6365843,47.9773471 L46.6365843,43.6201848 L46.6424523,43.4167136 L46.6424523,43.4167136 C46.7214842,43.4250165 46.8015042,43.4287987 46.8824077,43.4287987 C48.2853076,43.4287987 49.4225827,42.2915236 49.4225827,40.8886237 C49.4225827,40.6630594 49.3931823,40.4443619 49.3380046,40.2361543 C49.5850791,40.1805776 49.8419112,40.1511535 50.1056156,40.1511535 Z" id="Path" fill="#3D3D3D"></path>
            <path d="M65.1763847,40.1805847 C67.0922778,40.1805847 68.645416,41.7337229 68.645416,43.649616 L68.645416,48.0067783 C68.645416,49.9226714 67.0922778,51.4758096 65.1763847,51.4758096 C63.2604916,51.4758096 61.7073534,49.9226714 61.7073534,48.0067783 L61.7073534,43.649616 L61.7132215,43.4461448 C61.7922533,43.4544477 61.8722734,43.4582299 61.9531768,43.4582299 C63.3560768,43.4582299 64.4933518,42.3209548 64.4933518,40.9180549 C64.4933518,40.6924906 64.4639515,40.4737931 64.4087738,40.2655855 C64.6558483,40.2100088 64.9126803,40.1805847 65.1763847,40.1805847 Z" id="Path-Copy" fill="#3D3D3D"></path>
            <path d="M41.0645875,54.2450278 C41.3700545,54.2450278 50.106186,55.3163441 54.2301759,58.75179" id="Path-2-Copy" stroke="#C6775C" stroke-width="3.44152745"></path>
            <polyline id="Path-28" stroke="#A71E6E" stroke-width="3.47430373" stroke-linecap="round" stroke-linejoin="round" points="40.5506432 105.57653 45.0260784 110.051965 49.5015135 105.57653"></polyline>
            <polyline id="Path-28" stroke="#A71E6E" stroke-width="3.47430373" stroke-linecap="round" stroke-linejoin="round" points="54.6445168 105.57653 59.1199519 110.051965 63.595387 105.57653"></polyline>
            <polyline id="Path-28" stroke="#A71E6E" stroke-width="3.47430373" stroke-linecap="round" stroke-linejoin="round" points="68.7383903 105.57653 73.2138254 110.051965 77.6892606 105.57653"></polyline>
            <polyline id="Path-28" stroke="#A71E6E" stroke-width="3.47430373" stroke-linecap="round" stroke-linejoin="round" points="47.4336981 116.064995 51.9091333 120.54043 56.3845684 116.064995"></polyline>
            <polyline id="Path-28" stroke="#A71E6E" stroke-width="3.47430373" stroke-linecap="round" stroke-linejoin="round" points="61.5275717 116.064995 66.0030068 120.54043 70.4784419 116.064995"></polyline>
            <rect id="Rectangle-Copy-127" fill="#0084C2" x="49.2587004" y="153.557677" width="20.6491647" height="38.1845664" rx="1.63882259"></rect>
            <path d="M41.6381754,57.3587908 L74.250745,57.3587908 C83.7090058,57.3587908 91.3764411,65.0262261 91.3764411,74.4844869 C91.3764411,83.9427477 83.7090058,91.610183 74.250745,91.610183 L41.6381754,91.610183 C32.1799146,91.610183 24.5124793,83.9427477 24.5124793,74.4844869 C24.5124793,65.0262261 32.1799146,57.3587908 41.6381754,57.3587908 Z" id="Rectangle-Copy-4" fill="#3D3D3D"></path>
            <path d="M45.95913,58.9941052 C44.3800829,59.6779642 43.2277126,60.9371176 42.6410688,62.420068 C42.0544251,63.9030184 42.0335079,65.6097659 42.7173668,67.1888131 C44.8097137,72.0200934 49.0195429,75.0165338 54.4574025,76.0735466 C56.1465581,76.4018852 57.8088871,76.0144744 59.1310117,75.1226901 C60.4531364,74.2309058 61.4350568,72.8347479 61.7633953,71.1455923 C62.0898625,69.4660646 61.7094618,67.8132097 60.8176729,66.4910784 C59.9386364,65.1878532 58.5603811,64.2033333 56.835441,63.8395994 C55.5100754,63.5819745 54.5757738,63.1463304 54.1496436,62.2257879 C53.464752,60.6520409 52.2077481,59.5032336 50.7278751,58.9178073 C49.2449246,58.3311635 47.5381772,58.3102463 45.95913,58.9941052 Z" id="Path-Copy-192" stroke="#3D3D3D" stroke-width="3.76929196" fill="#FFFFFF" fill-rule="nonzero" transform="translate(52.040865, 67.334310) rotate(-8.000000) translate(-52.040865, -67.334310) "></path>
            <circle id="Oval-Copy-2" fill="#C6775C" cx="57.20699" cy="57.4407319" r="4.50676213"></circle>
        </g>
    </g>
</svg>