<?xml version="1.0" encoding="UTF-8"?>
<svg width="118px" height="175px" viewBox="0 0 118 175" version="1.1" xmlns="http://www.w3.org/2000/svg" xmlns:xlink="http://www.w3.org/1999/xlink">
    <title>Lily - Cropped</title>
    <g id="Lily---Cropped" stroke="none" stroke-width="1" fill="none" fill-rule="evenodd">
        <path d="M57.8141808,38 C73.5036534,38 86.8585713,49.4204987 89.2937365,64.9198382 L96.5989994,111.416374 C96.7344993,112.278804 96.1452061,113.087786 95.2827762,113.223286 C95.2016168,113.236038 95.1195868,113.242442 95.0374319,113.242442 L23.8881179,113.242442 C23.0151084,113.242442 22.3073943,112.534728 22.3073943,111.661719 C22.3073943,111.602818 22.3106864,111.543963 22.3172553,111.48543 L27.5250675,65.0800749 C29.2556877,49.6590024 42.2963033,38 57.8141808,38 Z" id="B-hair" fill="#A570FF"></path>
        <path d="M85.8612325,63.8117298 L88.2025952,63.8117298 C91.5200314,63.8117298 94.2093448,66.5010432 94.2093448,69.8184794 C94.2093448,73.1359156 91.5200314,75.825229 88.2025952,75.825229 L85.8612325,75.825229 C82.5437963,75.825229 79.8544829,73.1359156 79.8544829,69.8184794 C79.8544829,66.5010432 82.5437963,63.8117298 85.8612325,63.8117298 Z" id="ear" fill="#FFC6B7"></path>
        <path d="M61.3140816,42.7421707 C74.5748962,42.7421707 85.720999,52.7006581 87.2087356,65.8777535 L89.6199736,87.2344331 C90.4172323,94.2958668 85.339115,100.666596 78.2776814,101.463854 C77.7983961,101.517967 77.3164473,101.545088 76.8341169,101.545088 L44.4342508,101.545088 C37.3279531,101.545088 31.5671606,95.7842953 31.5671606,88.6779976 C31.5671606,88.0660199 31.6108204,87.4548218 31.6978074,86.8490579 L34.7221039,65.7883417 C36.6213675,52.5621741 47.9522438,42.7421707 61.3140816,42.7421707 Z" id="Mask" fill="#FFC6B7"></path>
        <path d="M61.8140816,41.7421707 C74.8222144,41.7421707 85.8314267,51.1401596 87.9998729,63.8118098 L68.5672376,63.8118098 C58.2037697,63.8118098 49.7814199,55.5008151 49.6014923,45.1802899 L49.5984268,44.6623937 C53.280169,42.7905486 57.4371132,41.7421707 61.8140816,41.7421707 Z" id="Path" fill="#A570FF"></path>
        <path d="M61.3486587,74.8007813 C61.3486587,75.704106 61.3486587,77.0590931 61.3486587,78.8657425 C61.3486587,81.0109583 63.0876997,82.7499993 65.2329154,82.7499993 L69.3113741,82.7499993 C73.7090604,82.7499993 77.2740896,79.1849701 77.2740896,74.7872838 L61.3486587,74.8007813 Z" id="Mask" fill="#FFFFFF"></path>
        <path d="M67.6440098,66.7097237 C69.6183383,66.7097237 71.2188478,68.3102332 71.2188478,70.2845617 L71.2188478,74.774619 C71.2188478,76.7489476 69.6183383,78.349457 67.6440098,78.349457 C65.6696813,78.349457 64.0691718,76.7489476 64.0691718,74.774619 L64.0691718,70.2845617 C64.0691718,68.3102332 65.6696813,66.7097237 67.6440098,66.7097237 Z" id="L-pupil" fill="#3D3D3D"></path>
        <path d="M77.2740896,74.8163799 L61.3477776,74.8156779 L61.3486587,73.3213933 C61.3486587,69.0066822 64.7804276,65.4935037 69.0633561,65.362467 L69.3113741,65.3586779 L76.2608052,65.3586779 C76.7831186,65.3586779 77.2131302,65.7538687 77.2681437,66.2615538 L77.2740896,66.3719623 L77.2740896,74.8163799 Z" id="Path" fill="#A570FF"></path>
        <path d="M59.3231917,74.800766 C59.3231917,75.6665651 59.3231917,76.9652637 59.3231917,78.6968618 C59.3231917,80.9353478 57.5085403,82.7499993 55.2700543,82.7499993 L51.3604763,82.7499993 C46.96279,82.7499993 43.3977608,79.1849701 43.3977608,74.7872838 L59.3231917,74.800766 Z" id="Mask" fill="#FFFFFF"></path>
        <path d="M53.052305,66.7097237 C55.0266336,66.7097237 56.627143,68.3102332 56.627143,70.2845617 L56.627143,74.774619 C56.627143,76.7489476 55.0266336,78.349457 53.052305,78.349457 C51.0779765,78.349457 49.477467,76.7489476 49.477467,74.774619 L49.477467,70.2845617 C49.477467,68.3102332 51.0779765,66.7097237 53.052305,66.7097237 Z" id="R-pupil" fill="#3D3D3D"></path>
        <path d="M43.3977608,66.3719623 C43.3977608,65.8123408 43.8514237,65.3586779 44.4110452,65.3586779 L51.3604763,65.3586779 C55.7581626,65.3586779 59.3231917,68.923707 59.3231917,73.3213933 L59.3227608,74.8156779 L43.3977608,74.8163799 L43.3977608,66.3719623 Z" id="Path" fill="#A570FF"></path>
        <path d="M64.4128042,92.0850087 C66.7112174,87.6538945 69.3281028,85.8527315 72.1525192,87.2630884 C72.668011,87.5204964 72.8772292,88.1470554 72.6198212,88.6625472 C72.3822138,89.1383858 71.8300635,89.3532575 71.341075,89.1810407 L71.2203623,89.1298492 C69.7224572,88.3818785 68.1076557,89.4933222 66.2650166,93.0457489 C65.9997156,93.5572232 65.3700147,93.7567861 64.8585404,93.491485 C64.347066,93.2261839 64.1475032,92.5964831 64.4128042,92.0850087 Z" id="Path" fill="#EE9583" fill-rule="nonzero"></path>
        <path d="M60.1670445,87.9886954 C61.9391792,87.9886954 63.3757783,86.5603275 63.3757783,84.7983465 C63.3757783,84.2268932 63.0382636,83.4024408 62.5821626,82.5492058 L62.3452434,82.1212279 C62.3044477,82.0498445 62.2630819,81.9785207 62.2212727,81.9073863 L61.9661095,81.4838906 L61.9661095,81.4838906 L61.7063853,81.0711685 L61.7063853,81.0711685 L61.4481815,80.6754481 L61.4481815,80.6754481 L61.0770293,80.12737 L61.0770293,80.12737 L60.6442401,79.5142356 L60.6442401,79.5142356 L60.1670445,78.8691361 L60.1670445,78.8691361 L59.7818925,79.3871486 L59.7818925,79.3871486 L59.3734287,79.9599255 L59.3734287,79.9599255 L59.0125388,80.4859099 L59.0125388,80.4859099 L58.7573757,80.8707938 L58.7573757,80.8707938 L58.4976515,81.2757936 C58.4543219,81.3446239 58.4110557,81.4140328 58.3679794,81.4838906 L58.1128163,81.9073863 C58.071007,81.9785207 58.0296412,82.0498445 57.9888455,82.1212279 L57.7519264,82.5492058 C57.2958254,83.4024408 56.9583106,84.2268932 56.9583106,84.7983465 C56.9583106,86.5603275 58.3949097,87.9886954 60.1670445,87.9886954 Z" id="nose" fill="#EE9583"></path>
        <path d="M38.2284017,47.7577649 L38.6148687,47.3782989 L47.7520131,43.5814615 C48.719426,43.179464 49.8295525,43.6378237 50.23155,44.6052366 C50.3274137,44.8359338 50.3767623,45.0832954 50.3767623,45.3331175 L50.3767623,103.125811 C50.3767623,103.998821 49.6690482,104.706535 48.7960387,104.706535 L30.852052,104.706535 C29.8044406,104.706535 28.9551837,103.857278 28.9551837,102.809667 L28.9551837,70.1261255 C28.9551837,61.7281529 32.2961391,53.6825906 38.2284017,47.7577649 L38.2284017,47.7577649 Z" id="R-hair" fill="#A570FF"></path>
        <path d="M52.9051732,101.668034 L65.9089892,101.668034 C66.4686107,101.668034 66.9222736,102.121697 66.9222736,102.681319 L66.9222736,151.65475 C66.9222736,152.214371 66.4686107,152.668034 65.9089892,152.668034 L52.9051732,152.668034 C52.3455517,152.668034 51.8918888,152.214371 51.8918888,151.65475 L51.8918888,102.681319 C51.8918888,102.121697 52.3455517,101.668034 52.9051732,101.668034 Z" id="body" fill="#593F86"></path>
        <path d="M52.9051732,140.17284 L65.9089892,140.17284 C66.4686107,140.17284 66.9222736,140.626503 66.9222736,141.186125 L66.9222736,200.969902 C66.9222736,201.529524 66.4686107,201.983187 65.9089892,201.983187 L52.9051732,201.983187 C52.3455517,201.983187 51.8918888,201.529524 51.8918888,200.969902 L51.8918888,141.186125 C51.8918888,140.626503 52.3455517,140.17284 52.9051732,140.17284 Z" id="pants" fill="#A570FF"></path>
        <path d="M59.2093798,110.09171 L59.7906202,110.09171 C62.420888,110.09171 64.8776216,111.404484 66.3394429,113.591123 L79.7595811,133.665386 C81.6012377,136.420193 80.8609825,140.146364 78.1061748,141.98802 C77.1192313,142.647816 75.9587373,143 74.7715606,143 L44.2284394,143 C40.9147309,143 38.2284394,140.313708 38.2284394,137 C38.2284394,135.812823 38.5806229,134.652329 39.2404189,133.665386 L52.6605571,113.591123 C54.1223784,111.404484 56.579112,110.09171 59.2093798,110.09171 Z" id="arms" fill="#593F86"></path>
        <path d="M47.8641397,130.564199 C49.8166496,128.237288 53.2858053,127.933776 55.612716,129.886286 C57.9396266,131.838796 58.2431384,135.307952 56.2906286,137.634863 C54.3381187,139.961773 50.8689629,140.265285 48.5420523,138.312775 C46.2151416,136.360265 45.9116298,132.89111 47.8641397,130.564199 Z" id="R-hand-Copy" fill="#FFC6B7"></path>
        <path d="M65.9995427,126.439013 L66.9989335,126.404114 C69.4827009,126.317379 71.5665049,128.260557 71.6532399,130.744325 C71.739975,133.228092 69.7967964,135.311896 67.313029,135.398631 L66.3136381,135.433531 C63.8298707,135.520266 61.7460667,133.577087 61.6593317,131.09332 C61.5725966,128.609552 63.5157752,126.525748 65.9995427,126.439013 Z" id="R-hand" fill="#FFC6B7"></path>
        <path d="M43.2526279,133.197309 L73.2526279,133.197309 C76.0140517,133.197309 78.2526279,135.435885 78.2526279,138.197309 C78.2526279,140.958733 76.0140517,143.197309 73.2526279,143.197309 L43.2526279,143.197309 C40.4912042,143.197309 38.2526279,140.958733 38.2526279,138.197309 C38.2526279,135.435885 40.4912042,133.197309 43.2526279,133.197309 Z" id="Rectangle" fill="#593F86"></path>
        <path d="M76.7383847,132.548332 L63.5011246,127.990378 C58.3692034,126.223316 52.7844174,128.873576 50.8867098,133.921974 L50.7902573,134.189883 L73.4827031,142.003518 C76.0936806,142.90255 78.9391052,141.514744 79.8381368,138.903766 C80.7371684,136.292789 79.3493621,133.447364 76.7383847,132.548332 Z" id="Rectangle-Copy-3" fill="#593F86"></path>
        <path d="M70.1874773,133.132544 C68.6983066,133.858861 66.9022989,133.240446 66.1759818,131.751275 L64.4224972,128.156099 L66.6694823,127.060171 C68.4068482,126.212801 70.5021905,126.934285 71.3495605,128.671651 L71.568746,129.121048 C72.2950631,130.610219 71.6766481,132.406226 70.1874773,133.132544 Z" id="Rectangle-Copy-4" fill="#FFC6B7"></path>
        <path d="M50.3107452,50.2032166 L81.4178012,63.8117298 L88.3172702,63.8117298 C86.4261432,55.4085666 81.0971688,48.7131367 72.330347,43.7254401 C63.5635252,38.7377436 55.1090355,38.8190525 46.966878,43.9693669 L50.3107452,50.2032166 Z" id="Path-33" fill="#A570FF"></path>
    </g>
</svg>