<?xml version="1.0" encoding="UTF-8"?>
<svg width="118px" height="175px" viewBox="0 0 118 175" version="1.1" xmlns="http://www.w3.org/2000/svg" xmlns:xlink="http://www.w3.org/1999/xlink">
    <title>Eddy - Cropped</title>
    <g id="Eddy---Cropped" stroke="none" stroke-width="1" fill="none" fill-rule="evenodd">
        <path d="M21.8674904,109.214416 L95.5924646,109.214416 C100.285568,109.214416 104.513747,112.049449 106.295756,116.391069 L111.405035,128.83913 C114.387867,136.106395 110.914649,144.41574 103.647385,147.398572 C101.933633,148.101978 100.09898,148.463844 98.2464888,148.463844 L19.2134662,148.463844 C11.3578683,148.463844 4.989648,142.095624 4.989648,134.240026 C4.989648,132.387535 5.35151475,130.552882 6.05492032,128.83913 L11.1641994,116.391069 C12.9462076,112.049449 17.1743872,109.214416 21.8674904,109.214416 Z" id="Rectangle" fill="#FF4B4B"></path>
        <path d="M43.2168489,162.618024 L61.2143765,162.618024 C61.789404,162.618024 62.2555558,163.166476 62.2555558,163.843024 L62.2555558,175.393024 C62.2555558,176.069573 61.789404,176.618024 61.2143765,176.618024 L43.2168489,176.618024 C42.6418214,176.618024 42.1756696,176.069573 42.1756696,175.393024 L42.1756696,163.843024 C42.1756696,163.166476 42.6418214,162.618024 43.2168489,162.618024 Z" id="Rectangle-Copy-16" fill="#D22121"></path>
        <path d="M100.53898,95.0133499 C100.73307,98.831321 99.2619004,102.308522 96.7877151,104.782707 C94.4594268,107.110995 91.2429265,108.551071 87.6900784,108.551071 L87.6900784,108.551071 L28.6403388,108.551071 C25.1457686,108.551071 21.9766117,107.15784 19.6579937,104.896564 C17.1822976,102.482095 15.6764397,99.0779329 15.7792859,95.3234714 L15.7792859,95.3234714 Z" id="Rectangle-Copy-17" stroke="#FFB100" stroke-width="1.33865908" fill="#FFB100" stroke-linejoin="round"></path>
        <path d="M57.1983993,162.618024 L75.195927,162.618024 C75.7709544,162.618024 76.2371062,163.166476 76.2371062,163.843024 L76.2371062,175.393024 C76.2371062,176.069573 75.7709544,176.618024 75.195927,176.618024 L57.1983993,176.618024 C56.6233718,176.618024 56.15722,176.069573 56.15722,175.393024 L56.15722,163.843024 C56.15722,163.166476 56.6233718,162.618024 57.1983993,162.618024 Z" id="Rectangle-Copy-37" fill="#D22121"></path>
        <path d="M38.7546519,37.5277701 L78.021985,37.5277701 C84.9223143,37.5277701 90.5161365,43.1215923 90.5161365,50.0219216 L90.5161365,96.5775097 L26.2605005,96.5775097 L26.2605005,50.0219216 C26.2605005,43.1215923 31.8543226,37.5277701 38.7546519,37.5277701 Z" id="Rectangle-Copy-18" fill="#FFB100"></path>
        <path d="M34.1980511,109.071661 L83.3222854,109.071661 C90.6333486,109.071661 96.5601363,114.998449 96.5601363,122.309512 C96.5601363,123.291559 96.450858,124.270556 96.2343187,125.228432 L89.0386899,157.05877 C87.6745918,163.092948 82.3130989,167.377701 76.1266566,167.377701 L41.3936799,167.377701 C35.2072375,167.377701 29.8457447,163.092948 28.4816465,157.05877 L21.2860177,125.228432 C19.6739429,118.097313 24.1480123,111.009554 31.2791314,109.397479 C32.2370073,109.180939 33.2160045,109.071661 34.1980511,109.071661 Z" id="Mask" fill="#FF4B4B"></path>
        <path d="M90.9860178,148.441661 L89.0386899,157.05877 C87.6745918,163.092948 82.3130989,167.377701 76.1266566,167.377701 L41.3936799,167.377701 C35.2072375,167.377701 29.8457447,163.092948 28.4816465,157.05877 L26.5330178,148.441661 L90.9860178,148.441661 Z" id="Path" fill="#D22121"></path>
        <path d="M42.3244095,46.1546842 L73.4110482,46.1546842 C79.9006436,46.1546842 85.1615001,51.4155408 85.1615001,57.9051362 L85.1615001,108.774181 L30.5739575,108.774181 L30.5739575,57.9051362 C30.5739575,51.4155408 35.834814,46.1546842 42.3244095,46.1546842 Z" id="Mask" fill="#FFC6B7"></path>
        <path d="M81.5560866,46.1192957 L81.601421,46.1406054 C84.1822128,47.4294423 85.9756718,50.0743643 86.0311511,53.1583236 L86.0314572,53.4279495 L86.0314572,53.4279495 L85.8494411,65.0300715 C82.6398281,64.8104609 80.1043436,62.1373003 80.1043436,58.8719455 L80.1043436,50.0962915 C80.1043436,48.5811398 80.6502428,47.1934898 81.5560866,46.1192957 Z" id="Path" fill="#FFB100"></path>
        <path d="M36.2260736,50.0962915 L36.2260736,58.8719455 C36.2260736,62.2810368 33.4624591,65.0446513 30.0533679,65.0446513 L29.886484,65.0412863 L29.7040004,53.4279495 C29.6511401,50.0650031 31.6811913,47.1541469 34.6023742,45.9252246 C35.6111222,47.0236673 36.2260736,48.4881646 36.2260736,50.0962915 Z" id="Path" fill="#FFB100"></path>
        <path d="M46.4949603,73.3858769 C46.9512863,73.2206938 47.4551189,73.4567117 47.620302,73.9130377 C49.2082865,78.2999188 52.6182917,80.2460355 58.0862549,79.8196099 C58.5700887,79.7818776 58.9929016,80.1435143 59.0306339,80.627348 C59.0683662,81.1111818 58.7067296,81.5339947 58.2228958,81.571727 C52.002705,82.0568159 47.8390272,79.6805724 45.9677995,74.5112186 C45.8026164,74.0548926 46.0386343,73.55106 46.4949603,73.3858769 Z" id="Path" fill="#F3A577" fill-rule="nonzero"></path>
        <path d="M50.3457826,53.819779 C54.2189979,53.819779 57.3588592,56.9596404 57.3588592,60.8328557 L57.3588592,65.098721 C57.3588592,68.9719363 54.2189979,72.1117977 50.3457826,72.1117977 C46.4725673,72.1117977 43.332706,68.9719363 43.332706,65.098721 L43.332706,60.8328557 C43.332706,56.9596404 46.4725673,53.819779 50.3457826,53.819779 Z" id="Rectangle-130-Copy-42" fill="#FFFFFF"></path>
        <path d="M52.2820624,57.9844962 C54.0209312,57.9844962 55.4305628,59.3941278 55.4305628,61.1329966 L55.4305628,65.0875667 C55.4305628,66.8264354 54.0209312,68.2360671 52.2820624,68.2360671 C50.5431937,68.2360671 49.133562,66.8264354 49.133562,65.0875667 L49.133562,61.1329966 C49.133562,59.3941278 50.5431937,57.9844962 52.2820624,57.9844962 Z" id="Path" fill="#3D3D3D"></path>
        <circle id="Oval" fill="#FFFFFF" cx="49.5054117" cy="58.6538257" r="2.30546842"></circle>
        <path d="M66.8554261,53.819779 C62.9822108,53.819779 59.8423495,56.9596404 59.8423495,60.8328557 L59.8423495,65.098721 C59.8423495,68.9719363 62.9822108,72.1117977 66.8554261,72.1117977 C70.7286414,72.1117977 73.8685027,68.9719363 73.8685027,65.098721 L73.8685027,60.8328557 C73.8685027,56.9596404 70.7286414,53.819779 66.8554261,53.819779 Z" id="Rectangle-130-Copy-42" fill="#FFFFFF"></path>
        <path d="M64.9260067,57.9844962 C63.187138,57.9844962 61.7775063,59.3941278 61.7775063,61.1329966 L61.7775063,65.0875667 C61.7775063,66.8264354 63.187138,68.2360671 64.9260067,68.2360671 C66.6648755,68.2360671 68.0745071,66.8264354 68.0745071,65.0875667 L68.0745071,61.1329966 C68.0745071,59.3941278 66.6648755,57.9844962 64.9260067,57.9844962 Z" id="Path" fill="#3D3D3D"></path>
        <path d="M62.6455008,60.9592942 C61.3722258,60.9592942 60.3400324,59.9271008 60.3400324,58.6538257 C60.3400324,57.3805507 61.3722258,56.3483573 62.6455008,56.3483573 C63.9187759,56.3483573 64.9509693,57.3805507 64.9509693,58.6538257 C64.9509693,59.9271008 63.9187759,60.9592942 62.6455008,60.9592942 Z" id="Oval-Copy-22" fill="#FFFFFF"></path>
        <path d="M58.5507792,75.9026638 C60.2758615,75.9026638 61.6743171,74.5048641 61.6743171,72.7805908 C61.6743171,72.1579365 61.2670039,71.2283472 60.7465481,70.294693 L60.4993752,69.8645899 L60.4993752,69.8645899 L60.2425617,69.4405267 L60.2425617,69.4405267 L59.9825346,69.0291204 L59.9825346,69.0291204 L59.7257211,68.6369881 L59.7257211,68.6369881 L59.4785482,68.270747 L59.4785482,68.270747 L59.038832,67.6424066 L59.038832,67.6424066 L58.5507792,66.97827 L58.5507792,66.97827 L58.1565879,67.5118427 L58.1565879,67.5118427 L57.7409731,68.0994035 L57.7409731,68.0994035 L57.3758373,68.6369881 L57.3758373,68.6369881 L56.9890103,69.2328279 C56.9456278,69.3014415 56.9022453,69.3707204 56.8589968,69.4405267 L56.6021833,69.8645899 C56.5600059,69.9359543 56.5182301,70.0075703 56.47699,70.0793001 L56.2370475,70.5099417 C55.7743011,71.3695448 55.4272414,72.205833 55.4272414,72.7805908 C55.4272414,74.5048641 56.8256969,75.9026638 58.5507792,75.9026638 Z" id="Oval-Copy-16" fill="#F3A577"></path>
        <path d="M43.7587134,68.0961961 C47.663012,68.3229391 50.84326,69.9627256 53.2037973,72.9688062 L53.4371151,73.2739669 L51.1702919,74.9616033 C49.3560095,72.5246699 46.9759326,71.2001588 43.9354225,70.9418196 L43.5948654,70.9175004 L43.7587134,68.0961961 Z" id="Path" fill="#FFC6B7" fill-rule="nonzero"></path>
        <circle id="Oval-Copy-31" fill="#FFC6B7" cx="28.1197492" cy="66.6064202" r="6.02396588"></circle>
        <circle id="Oval-Copy-32" fill="#FFC6B7" cx="88.0619282" cy="66.6064202" r="6.02396588"></circle>
        <path d="M26.4092404,43.477366 L90.3559625,43.477366 C91.4238706,43.477366 92.2895812,44.3430766 92.2895812,45.4109847 L92.2895812,49.426962 C92.2895812,50.4948701 91.4238706,51.3605807 90.3559625,51.3605807 L26.4092404,51.3605807 C25.3413323,51.3605807 24.4756217,50.4948701 24.4756217,49.426962 L24.4756217,45.4109847 C24.4756217,44.3430766 25.3413323,43.477366 26.4092404,43.477366 Z" id="Rectangle-Copy-44" fill="#FF4B4B"></path>
        <path d="M58.3883185,23.1 C65.7815284,23.1 71.7749093,29.0933809 71.7749093,36.4865908 C71.7749093,43.8798008 65.7815284,49.8731817 58.3883185,49.8731817 C50.9951085,49.8731817 45.0017276,43.8798008 45.0017276,36.4865908 C45.0017276,29.0933809 50.9951085,23.1 58.3883185,23.1 Z" id="Rectangle-Copy-72" fill="#FFB100"></path>
        <path d="M44.3445568,26.6338154 L57.139754,40.5761979 C57.8110163,41.3235128 57.5606974,42.5088937 56.6453974,42.9172147 C52.2477064,44.8790525 47.0013052,43.7739212 43.6926153,40.0903762 C40.383938,36.4068201 39.835918,31.0610346 42.2419978,26.8819402 C42.7427799,26.0121373 43.6732945,25.8865005 44.3445568,26.6338154 Z" id="Combined-Shape-Copy-64" fill="#FFB100" fill-rule="nonzero"></path>
        <path d="M29.6815181,101.932146 L86.3514193,101.932146 C87.2550339,101.932146 87.9875582,102.66467 87.9875582,103.568285 L87.9875582,109.220401 C87.9875582,110.124016 87.2550339,110.85654 86.3514193,110.85654 L29.6815181,110.85654 C28.7779036,110.85654 28.0453792,110.124016 28.0453792,109.220401 L28.0453792,103.568285 C28.0453792,102.66467 28.7779036,101.932146 29.6815181,101.932146 Z" id="Rectangle-Copy-73" fill="#FF4B4B"></path>
        <polygon id="Rectangle-Copy-522" fill="#EBE3E3" points="56.6034397 101.634666 60.6194169 101.634666 60.6194169 146.634666 56.6034397 146.634666"></polygon>
        <path d="M56.7969899,101.634666 L60.4258667,101.634666 C60.9756656,101.634666 61.4538802,102.011336 61.5826755,102.545836 L63.9840184,112.511409 C64.1379673,113.150297 63.7448466,113.793019 63.1059587,113.946967 C63.0146742,113.968964 62.9211069,113.980078 62.8272096,113.980078 L54.395647,113.980078 C53.7384728,113.980078 53.2057278,113.447333 53.2057278,112.790159 C53.2057278,112.696261 53.2168419,112.602694 53.2388382,112.511409 L55.6401811,102.545836 C55.7689764,102.011336 56.247191,101.634666 56.7969899,101.634666 Z" id="Rectangle-Copy-523" fill="#EBE3E3"></path>
        <path d="M36.5000004,119.1 C41.7467055,119.1 46.0000004,123.353295 46.0000004,128.6 C46.0000004,133.846705 41.7467055,138.1 36.5000004,138.1 C31.2532953,138.1 27.0000004,133.846705 27.0000004,128.6 C27.0000004,123.353295 31.2532953,119.1 36.5000004,119.1 Z" id="Rectangle" fill="#FFC6B7"></path>
        <path d="M80.7410067,118.103279 C84.9505819,118.103279 88.5206699,120.841249 89.7676002,124.633519 C90.0748115,125.567836 85.9877118,137.103279 80.7410067,137.103279 C75.4943016,137.103279 71.2410067,132.849984 71.2410067,127.603279 C71.2410067,122.356574 75.4943016,118.103279 80.7410067,118.103279 Z" id="Rectangle-Copy-4" fill="#FFC6B7"></path>
        <path d="M24.1288173,127.467542 L85.0170739,127.467542 C87.8093548,127.467542 90.0729456,129.731133 90.0729456,132.523414 L90.0729456,143.41167 C90.0729456,146.203951 87.8093548,148.467542 85.0170739,148.467542 L24.1288173,148.467542 C21.3365365,148.467542 19.0729456,146.203951 19.0729456,143.41167 L19.0729456,132.523414 C19.0729456,129.731133 21.3365365,127.467542 24.1288173,127.467542 Z" id="Rectangle" fill="#FF4B4B"></path>
        <path d="M56.6000367,120.423876 L97.1931622,129.052212 C102.325214,130.143063 105.601255,135.187723 104.510403,140.319775 C103.419552,145.451827 98.3748921,148.727867 93.24284,147.637016 L34.0649102,135.058359 C36.2466129,124.794255 46.3359327,118.242174 56.6000367,120.423876 Z" id="Rectangle-Copy-5" fill="#FF4B4B"></path>
        <path d="M73.1434358,123.839372 L81.1016751,120.768516 C84.3786761,119.504015 88.077586,120.966148 89.6043106,124.129502 C90.881952,126.776759 89.7716592,129.958518 87.1244023,131.236159 C86.8769772,131.355574 86.6206774,131.455651 86.3578009,131.535494 L86.2347832,131.572858 C83.0059435,132.553549 79.5550364,130.956487 78.2129252,127.860377 C77.5595074,126.353021 76.9768461,125.438713 76.4649414,125.117454 C75.4892977,124.505162 74.3821291,124.079135 73.1434358,123.839372 Z" id="Rectangle" fill="#FFC6B7"></path>
        <path d="M26.2605005,90.0772474 C26.2605005,91.2573892 26.2436299,94.3600959 22.8394828,94.3600959 C24.3126459,95.8000716 25.1259154,96.4300468 25.2792912,96.2500215 L26.8696192,95.4087254 L27.3016798,91.8380219 C26.6075602,89.8774111 26.2605005,89.2904863 26.2605005,90.0772474 Z" id="Path-48-Copy-4" fill="#FFB100"></path>
        <path d="M90.5148084,89.9982081 L90.5192875,90.4524539 L90.5192875,90.4524539 L90.5262784,90.6699048 L90.5262784,90.6699048 L90.5395927,90.903209 L90.5395927,90.903209 L90.561265,91.1493327 C90.5656866,91.191253 90.5705413,91.2335811 90.5758714,91.2762537 L90.6138961,91.535918 C90.6212975,91.5797159 90.6292591,91.6237319 90.6378232,91.6679028 L90.6967786,91.9342816 C90.9976706,93.1368005 91.7996664,94.3600959 93.9371541,94.3600959 L93.3943798,94.8822225 L93.3943798,94.8822225 L93.0699533,95.1843711 L93.0699533,95.1843711 L92.7754652,95.4497711 L92.7754652,95.4497711 L92.5109157,95.6784225 L92.5109157,95.6784225 L92.2763046,95.8703253 C92.2396976,95.8992468 92.2043381,95.926637 92.1702259,95.952496 L91.9805225,96.0892759 L91.9805225,96.0892759 L91.8207576,96.1893072 C91.6518293,96.2845737 91.5440253,96.3048118 91.4973457,96.2500215 L89.9070177,95.4087254 L89.4749572,91.8380219 L89.7511884,91.0818634 L89.7511884,91.0818634 L89.8733676,90.7668615 L89.8733676,90.7668615 L89.9849225,90.4939113 L89.9849225,90.4939113 L90.0858532,90.2630126 L90.0858532,90.2630126 L90.1761596,90.0741656 L90.1761596,90.0741656 L90.2558416,89.9273702 C90.4169765,89.6548694 90.5032988,89.678482 90.5148084,89.9982081 L90.5148084,89.9982081 Z" id="Path-48-Copy-5" fill="#FFB100"></path>
        <polygon id="Rectangle" fill="#D22121" points="42.1756696 165.1 76.2371062 165.1 76.2371062 168.1 42.1756696 168.1"></polygon>
    </g>
</svg>