<?xml version="1.0" encoding="UTF-8"?>
<svg width="118px" height="175px" viewBox="0 0 118 175" version="1.1" xmlns="http://www.w3.org/2000/svg" xmlns:xlink="http://www.w3.org/1999/xlink">
    <!-- Generator: Sketch 63.1 (92452) - https://sketch.com -->
    <title>Bear - Cropped</title>
    <desc>Created with Sketch.</desc>
    <g id="Bear---Cropped" stroke="none" stroke-width="1" fill="none" fill-rule="evenodd">
        <path d="M46.8413719,20.7290469 L70.4412531,20.7290469 C81.3527566,20.7290469 90.6507493,28.6492802 92.3858621,39.4219443 L113.849742,172.683114 C115.935184,185.630839 107.129564,197.817629 94.1818387,199.903071 C92.9332177,200.104181 91.6705256,200.205219 90.4058122,200.205219 L26.8768128,200.205219 C13.7622159,200.205219 3.13073463,189.573737 3.13073463,176.459141 C3.13073463,175.194427 3.2317721,173.931735 3.43288282,172.683114 L24.8967629,39.4219443 C26.6318757,28.6492802 35.9298684,20.7290469 46.8413719,20.7290469 Z" id="body" fill="#A56644"></path>
        <path d="M59.1935469,47.7885313 C64.6833781,47.7885313 69.1337656,52.2389188 69.1337656,57.72875 L69.1337656,80.3703594 C69.1337656,85.8601906 64.6833781,90.3105781 59.1935469,90.3105781 C53.7037156,90.3105781 49.2533281,85.8601906 49.2533281,80.3703594 L49.2533281,57.72875 C49.2533281,52.2389188 53.7037156,47.7885313 59.1935469,47.7885313 Z" id="snout" fill="#E5A259"></path>
        <path d="M57.8129609,47.7885313 L60.0218984,47.7885313 C61.6993469,47.7885313 63.0591875,49.1483719 63.0591875,50.8258203 C63.0591875,52.5032687 61.6993469,53.8631094 60.0218984,53.8631094 L57.8129609,53.8631094 C56.1355125,53.8631094 54.7756719,52.5032687 54.7756719,50.8258203 C54.7756719,49.1483719 56.1355125,47.7885313 57.8129609,47.7885313 Z" id="nose" fill="#3D3D3D"></path>
        <rect id="R-ear" fill="#A56644" transform="translate(26.420508, 19.329133) rotate(-42.000000) translate(-26.420508, -19.329133) " x="21.6416094" y="13.55" width="9.55779653" height="11.5582656" rx="4.77889827"></rect>
        <rect id="L-ear" fill="#A56644" transform="translate(91.446105, 19.329133) scale(-1, 1) rotate(-42.000000) translate(-91.446105, -19.329133) " x="86.667207" y="13.55" width="9.55779653" height="11.5582656" rx="4.77889827"></rect>
        <path d="M54.9691977,122.399779 C50.3841665,126.98481 49.278542,133.933697 52.0756273,139.672026 C52.5973652,140.742392 54.0180323,140.980303 54.8600219,140.138313 L72.7077325,122.290603 C73.5497221,121.448613 73.3118108,120.027946 72.2414452,119.506208 C66.5031165,116.709123 59.5542288,117.814747 54.9691977,122.399779 Z" id="1-chest" fill="#BB7149" fill-rule="nonzero"></path>
        <path d="M43.6102435,119.506208 C42.539878,120.027946 42.3019666,121.448613 43.1439562,122.290603 L60.9916669,140.138313 C61.8336564,140.980303 63.2543235,140.742392 63.7760615,139.672026 C66.5731467,133.933697 65.4675222,126.98481 60.8824911,122.399779 C56.2974599,117.814747 49.3485723,116.709123 43.6102435,119.506208 Z" id="2-chest" fill="#BB7149" fill-rule="nonzero"></path>
        <path d="M63.1360843,127.01564 C59.4927166,127.991878 56.8725359,131.084071 56.5571203,134.692534 C56.4523382,135.891276 57.5706883,136.829609 58.7329995,136.518168 L71.7005315,133.043528 C72.8628428,132.732088 73.362196,131.360293 72.6720809,130.374543 C70.5946916,127.40723 66.779452,126.039403 63.1360843,127.01564 Z" id="3-chest" fill="#BB7149" fill-rule="nonzero"></path>
        <path d="M43.495375,130.374543 C42.80526,131.360293 43.3046132,132.732088 44.4669244,133.043528 L57.4344565,136.518168 C58.5967677,136.829609 59.7151177,135.891276 59.6103357,134.692534 C59.2949201,131.084071 56.6747393,127.991878 53.0313717,127.01564 C49.388004,126.039403 45.5727644,127.40723 43.495375,130.374543 Z" id="4-chest" fill="#BB7149" fill-rule="nonzero"></path>
        <path d="M13.1247701,99.1463281 L102.852975,99.1463281 C104.160766,99.1463281 105.275663,100.094508 105.485657,101.385329 L108.391044,119.244589 C108.627582,120.698579 107.640643,122.069023 106.186653,122.305562 C106.045052,122.328598 105.901824,122.340172 105.758362,122.340172 L10.3902885,122.340172 C8.91718381,122.340172 7.72299648,121.145985 7.72299648,119.67288 C7.72299648,119.537732 7.73326812,119.402779 7.75372265,119.269188 L10.4882042,101.409928 C10.6875646,100.107879 11.8075475,99.1463281 13.1247701,99.1463281 Z" id="B-scarf" fill="#2FE3FF"></path>
        <path d="M33.2193373,95.8329219 L46.2474986,95.8329219 C48.4571557,95.8329219 50.2484367,97.6242029 50.2484367,99.83386 C50.2484367,100.037254 50.2329269,100.240352 50.2020422,100.441388 L43.2868469,145.454012 C42.9869394,147.40618 41.3073739,148.847422 39.3323033,148.847422 L26.304142,148.847422 C24.0944849,148.847422 22.3032039,147.056141 22.3032039,144.846484 C22.3032039,144.643089 22.3187137,144.439991 22.3495984,144.238956 L29.2647937,99.2263317 C29.5647012,97.2741638 31.2442667,95.8329219 33.2193373,95.8329219 Z" id="F-scarf" fill="#2FE3FF"></path>
        <path d="M66.5498095,30.1170312 C70.1448816,30.1170312 73.0592633,33.031413 73.0592633,36.6264851 L73.0592633,40.5860103 C73.0592633,44.1810823 70.1448816,47.0954641 66.5498095,47.0954641 C62.9547374,47.0954641 60.0403557,44.1810823 60.0403557,40.5860103 L60.0403557,36.6264851 C60.0403557,33.031413 62.9547374,30.1170312 66.5498095,30.1170312 Z" id="L-eye" fill="#FFFFFF"></path>
        <rect id="L-pupil" fill="#3D3D3D" x="62.3635041" y="33.9826719" width="5.84480081" height="9.51538542" rx="2.92240041"></rect>
        <path d="M62.2308359,37.1580195 C63.5270461,37.1580195 64.577832,36.1072336 64.577832,34.8110234 C64.577832,33.5148133 63.5270461,32.4640273 62.2308359,32.4640273 C60.9346258,32.4640273 59.8838398,33.5148133 59.8838398,34.8110234 C59.8838398,36.1072336 60.9346258,37.1580195 62.2308359,37.1580195 Z" id="L-highlight" fill="#FFFFFF" transform="translate(62.230836, 34.811023) scale(-1, 1) translate(-62.230836, -34.811023) "></path>
        <path d="M50.7926726,30.1170312 C54.3877446,30.1170312 57.3021264,33.031413 57.3021264,36.6264851 L57.3021264,40.5860103 C57.3021264,44.1810823 54.3877446,47.0954641 50.7926726,47.0954641 C47.1976005,47.0954641 44.2832187,44.1810823 44.2832187,40.5860103 L44.2832187,36.6264851 C44.2832187,33.031413 47.1976005,30.1170312 50.7926726,30.1170312 Z" id="R-eye" fill="#FFFFFF"></path>
        <path d="M52.4518457,33.9826719 C54.0658429,33.9826719 55.3742461,35.2910751 55.3742461,36.9050723 L55.3742461,40.5756569 C55.3742461,42.1896541 54.0658429,43.4980573 52.4518457,43.4980573 C50.8378485,43.4980573 49.5294453,42.1896541 49.5294453,40.5756569 L49.5294453,36.9050723 C49.5294453,35.2910751 50.8378485,33.9826719 52.4518457,33.9826719 Z" id="R-pupil" fill="#3D3D3D"></path>
        <circle id="R-highlight" fill="#FFFFFF" transform="translate(49.805563, 34.534906) scale(-1, 1) translate(-49.805563, -34.534906) " cx="49.8055625" cy="34.5349062" r="2.34699609"></circle>
        <rect id="brow" fill="#A56644" x="37.1041719" y="27.9080938" width="40.3131094" height="12.7013906"></rect>
    </g>
</svg>