<?xml version="1.0" encoding="UTF-8"?>
<svg width="118px" height="175px" viewBox="0 0 118 175" version="1.1" xmlns="http://www.w3.org/2000/svg" xmlns:xlink="http://www.w3.org/1999/xlink">
    <title>Oscar - Cropped</title>
    <g id="Oscar---Cropped" stroke="none" stroke-width="1" fill="none" fill-rule="evenodd">
        <path d="M38.0688729,123.241367 L62.1385024,137.146445 C66.9233542,139.910665 68.5614003,146.030396 65.7971808,150.815248 C65.5016974,151.326728 65.1615002,151.811038 64.7805755,152.262501 L50.3246469,169.395334 C47.6975383,172.508923 43.4449909,173.718833 39.5723094,172.454526 L14.2794429,164.197215 C9.02638267,162.482259 6.15818244,156.833566 7.87313837,151.580506 C8.17097347,150.668211 8.59850999,149.80351 9.14260938,149.012976 L24.8217749,126.232375 C27.7812416,121.932502 33.548996,120.630224 38.0688729,123.241367 Z" id="arm-R" fill="#FFAADE" fill-rule="nonzero"></path>
        <path d="M79.9966262,123.241367 L55.9269967,137.146445 C51.1421449,139.910665 49.5040988,146.030396 52.2683182,150.815248 C52.5638017,151.326728 52.9039988,151.811038 53.2849236,152.262501 L67.7408522,169.395334 C70.3679608,172.508923 74.6205082,173.718833 78.4931897,172.454526 L103.786056,164.197215 C109.039116,162.482259 111.907317,156.833566 110.192361,151.580506 C109.894526,150.668211 109.466989,149.80351 108.92289,149.012976 L93.2437242,126.232375 C90.2842575,121.932502 84.5165031,120.630224 79.9966262,123.241367 Z" id="arm-L" fill="#FFAADE" fill-rule="nonzero"></path>
        <path d="M50.6935268,40.0222031 C60.9754085,40.0222031 69.6114059,47.0690717 72.0352902,56.5965804 L72.0070493,56.5242151 C73.719094,61.1853666 77.4704314,63.3362661 83.1441435,63.4238639 L83.5089049,63.4266574 C83.6098302,63.4266574 83.7071913,63.4281987 83.8009882,63.4312812 L83.9740759,63.426926 L84.2964696,63.4239356 C93.6665365,63.4239356 101.262477,70.9908836 101.262477,80.3251869 C101.262477,89.6594903 93.6665365,97.2264382 84.2964696,97.2264382 C79.8187254,97.2264382 75.7461331,95.4983977 72.7140353,92.6752345 L72.7139071,94.7075017 C72.7139071,106.747407 63.0512383,116.530475 51.0576741,116.724932 L50.5247883,116.727882 C39.0108605,116.727882 29.5608919,107.891022 28.5871311,96.6295507 C21.3936316,94.670544 16.106172,88.1129849 16.106172,80.3251869 C16.106172,72.5673726 21.3529958,66.0303423 28.5044567,64.043526 L28.504408,62.0425834 C28.504408,50.0026784 38.1670767,40.2196105 50.160641,40.0251532 L50.6935268,40.0222031 Z" id="hair-B" fill="#3D3D3D" fill-rule="nonzero"></path>
        <circle id="ear-R" fill="#DA8E74" fill-rule="nonzero" cx="20.3314849" cy="94.3012217" r="6.1754572"></circle>
        <circle id="ear-L" fill="#DA8E74" fill-rule="nonzero" cx="97.0371638" cy="94.3012217" r="6.1754572"></circle>
        <path d="M58.8468364,66.0241281 C79.5797601,66.0241281 96.3871157,82.8314837 96.3871157,103.564407 L96.3871157,163.368835 C96.3871157,184.101759 79.5797601,200.909114 58.8468364,200.909114 C38.1139126,200.909114 21.3065571,184.101759 21.3065571,163.368835 L21.3065571,103.564407 C21.3065571,82.8314837 38.1139126,66.0241281 58.8468364,66.0241281 Z" id="Mask" fill="#DA8E74" fill-rule="nonzero"></path>
        <path d="M33.4946447,75.8776624 L33.4949594,85.931852 C33.4949594,91.0028918 29.3840694,95.1137818 24.3130296,95.1137818 C23.6263071,95.1137818 22.9571925,95.0383934 22.3135105,94.8954413 C24.0712567,87.4557748 28.0430968,80.8722504 33.4946447,75.8776624 Z" id="Shape-path" fill="#3D3D3D" fill-rule="nonzero"></path>
        <path d="M95.16388,94.0231802 L95.0492194,94.0411119 C94.6106771,94.1054114 94.1620607,94.1387096 93.7056672,94.1387096 C88.6346274,94.1387096 84.5237374,90.0278196 84.5237374,84.9567798 L84.5237374,76.8311783 C84.5237374,76.6186671 84.5309568,76.4078421 84.5451639,76.1989352 C89.6074324,80.9545883 93.3496356,87.09869 95.16388,94.0231802 Z" id="Shape-path" fill="#3D3D3D" fill-rule="nonzero"></path>
        <path d="M96.3871157,155.893187 L96.3871157,163.368835 C96.3871157,184.101759 79.5797601,200.909114 58.8468364,200.909114 C38.1139126,200.909114 21.3064032,184.101759 21.3064032,163.368835 L21.3064032,155.893187 L96.3871157,155.893187 Z" id="Path" fill="#2BE69C" fill-rule="nonzero"></path>
        <polygon id="shirt" fill="#FFAADE" fill-rule="nonzero" points="21.3031709 130.726638 96.3837296 130.726638 96.3837296 132.228034 98.0023852 153.153299 19.6845152 153.153299 21.3031709 132.228034"></polygon>
        <polygon id="chest" fill="#DA8E74" fill-rule="nonzero" points="58.9247063 142.915041 69.5692443 130.401614 48.2801682 130.401614"></polygon>
        <polygon id="belt" fill="#A56644" fill-rule="nonzero" points="21.3065571 153.130577 96.3871157 153.130577 96.3871157 161.581203 21.3065571 161.581203"></polygon>
        <polygon id="belt-loop-R" fill="#2BE69C" fill-rule="nonzero" points="34.4700316 153.130577 39.8329287 153.130577 39.8329287 165.481492 34.4700316 165.481492"></polygon>
        <polygon id="belt-loop-L" fill="#2BE69C" fill-rule="nonzero" points="77.5323339 153.130577 82.8952309 153.130577 82.8952309 165.481492 77.5323339 165.481492"></polygon>
        <path d="M49.7705289,77.7249944 C54.0023732,77.7249944 57.4329608,81.155582 57.4329608,85.3874263 L57.4329608,90.0482769 C57.4329608,94.2801211 54.0023732,97.7107087 49.7705289,97.7107087 C45.5386847,97.7107087 42.1080971,94.2801211 42.1080971,90.0482769 L42.1080971,85.3874263 C42.1080971,81.155582 45.5386847,77.7249944 49.7705289,77.7249944 Z" id="eye-white-R" fill="#FFFFFF" fill-rule="nonzero"></path>
        <path d="M51.8860929,82.2753313 C53.7859671,82.2753313 55.3261194,83.8154837 55.3261194,85.7153579 L55.3261194,90.0360897 C55.3261194,91.9359639 53.7859671,93.4761162 51.8860929,93.4761162 C49.9862187,93.4761162 48.4460663,91.9359639 48.4460663,90.0360897 L48.4460663,85.7153579 C48.4460663,83.8154837 49.9862187,82.2753313 51.8860929,82.2753313 Z" id="pupil-R" fill="#3D3D3D" fill-rule="nonzero"></path>
        <path d="M68.1338584,77.7249944 C72.3657027,77.7249944 75.7962902,81.155582 75.7962902,85.3874263 L75.7962902,90.0482769 C75.7962902,94.2801211 72.3657027,97.7107087 68.1338584,97.7107087 C63.9020142,97.7107087 60.4714266,94.2801211 60.4714266,90.0482769 L60.4714266,85.3874263 C60.4714266,81.155582 63.9020142,77.7249944 68.1338584,77.7249944 Z" id="eye-white-L" fill="#FFFFFF" fill-rule="nonzero"></path>
        <path d="M66.5058305,82.2753313 C68.4057047,82.2753313 69.9458571,83.8154837 69.9458571,85.7153579 L69.9458571,90.0360897 C69.9458571,91.9359639 68.4057047,93.4761162 66.5058305,93.4761162 C64.6059563,93.4761162 63.065804,91.9359639 63.065804,90.0360897 L63.065804,85.7153579 C63.065804,83.8154837 64.6059563,82.2753313 66.5058305,82.2753313 Z" id="pupil-L" fill="#3D3D3D" fill-rule="nonzero"></path>
        <polygon id="skin" fill="#DA8E74" fill-rule="nonzero" points="37.0205379 77.0427409 80.9242693 77.0427409 80.9242693 88.0935591 37.0205379 88.0935591"></polygon>
        <path d="M62.4000595,102.496607 C59.6177191,97.6774516 53.4554895,96.0262871 48.6363346,98.8086276 L41.036399,103.196452 C36.217244,105.978793 34.5660796,112.141022 37.34842,116.960177 C40.1307604,121.779332 46.29299,123.430497 51.1121449,120.648156 L58.7120805,116.260331 C63.5312355,113.477991 65.1823999,107.315762 62.4000595,102.496607 Z" id="mustache-R" fill="#3D3D3D" fill-rule="nonzero"></path>
        <polygon id="mustache-M" fill="#3D3D3D" fill-rule="nonzero" points="45.3583377 106.327112 73.3104072 106.327112 73.3104072 119.978123 45.3583377 119.978123"></polygon>
        <path d="M52.0964265,120.093496 C57.515554,116.749083 61.6592413,118.000003 65.4019441,120.093496 C67.8970793,121.489157 67.0759254,124.267575 62.9384822,128.428748 L54.681514,128.428748 C49.3453707,125.101522 48.4836749,122.323104 52.0964265,120.093496 Z" id="chin" fill="#DA8E74" fill-rule="nonzero"></path>
        <path d="M54.7960123,102.496607 C57.5783527,97.6774516 63.7405823,96.0262871 68.5597373,98.8086276 L76.1596728,103.196452 C80.9788278,105.978793 82.6299922,112.141022 79.8476518,116.960177 C77.0653114,121.779332 70.9030818,123.430497 66.0839269,120.648156 L58.4839913,116.260331 C53.6648363,113.477991 52.0136719,107.315762 54.7960123,102.496607 Z" id="mustache-L" fill="#3D3D3D" fill-rule="nonzero"></path>
        <path d="M61.6095409,80.9752351 L73.9604553,80.9752351 C76.1145253,80.9752351 77.8607441,82.7214538 77.8607441,84.8755238 C77.8607441,87.0295938 76.1145253,88.7758126 73.9604553,88.7758126 L61.6095409,88.7758126 C59.4554709,88.7758126 57.7092522,87.0295938 57.7092522,84.8755238 C57.7092522,82.7214538 59.4554709,80.9752351 61.6095409,80.9752351 Z" id="brow-L" fill="#3D3D3D" fill-rule="nonzero"></path>
        <path d="M43.4081934,73.1746575 L55.7591078,73.1746575 C57.9131778,73.1746575 59.6593965,74.9208763 59.6593965,77.0749463 C59.6593965,79.2290163 57.9131778,80.9752351 55.7591078,80.9752351 L43.4081934,80.9752351 C41.2541234,80.9752351 39.5079046,79.2290163 39.5079046,77.0749463 C39.5079046,74.9208763 41.2541234,73.1746575 43.4081934,73.1746575 Z" id="brow-R" fill="#3D3D3D" fill-rule="nonzero"></path>
        <circle id="nose" fill="#DA8E74" fill-rule="nonzero" cx="58.6843243" cy="96.9014142" r="4.87536095"></circle>
        <polygon id="Path-2" fill="#3D3D3D" fill-rule="nonzero" points="23.3880938 88.7758126 24.966063 90.1608487 33.4949594 76.7122468 33.4949594 73.3769935"></polygon>
        <polygon id="Path-2-Copy" fill="#3D3D3D" fill-rule="nonzero" points="94.0326831 88.7758126 92.4547138 90.1608487 84.5732797 77.1978435 84.5732797 73.8625902"></polygon>
    </g>
</svg>