<?xml version="1.0" encoding="UTF-8"?>
<svg width="118px" height="175px" viewBox="0 0 118 175" version="1.1" xmlns="http://www.w3.org/2000/svg" xmlns:xlink="http://www.w3.org/1999/xlink">
    <title>Junior - Cropped</title>
    <g id="Junior---Cropped" stroke="none" stroke-width="1" fill="none" fill-rule="evenodd">
        <path d="M103.362215,167.695704 L107.788389,172.121878 C109.370129,173.703619 109.370129,176.268127 107.788389,177.849868 L103.362215,182.276041 C101.780474,183.857782 99.2159658,183.857782 97.6342251,182.276041 L93.2080513,177.849868 C91.6263107,176.268127 91.6263107,173.703619 93.2080513,172.121878 L97.6342251,167.695704 C99.2159658,166.113963 101.780474,166.113963 103.362215,167.695704 Z" id="Rectangle" fill="#FFC6B7"></path>
        <path d="M94.9909987,153.936939 C91.337733,155.194859 89.3959218,159.176162 90.6538421,162.829428 L95.2144182,176.074303 C96.4723385,179.727568 100.453641,181.669379 104.106907,180.411459 C107.760173,179.153539 109.701984,175.172236 108.444064,171.51897 L103.883487,158.274096 C102.625567,154.62083 98.6442644,152.679019 94.9909987,153.936939 Z" id="Rectangle-Copy-146" fill="#FFC5B7"></path>
        <path d="M94.9909987,153.936939 C91.337733,155.194859 89.3959218,159.176162 90.6538421,162.829428 L93.5852664,171.342902 L106.814912,166.78757 L103.883487,158.274096 C102.625567,154.62083 98.6442644,152.679019 94.9909987,153.936939 Z" id="Rectangle-Copy-147" fill="#2FE3FF"></path>
        <path d="M90.303346,140.323007 C86.6500803,141.580927 84.7082692,145.56223 85.9661894,149.215496 L90.5267655,162.460371 C91.7846858,166.113636 95.7659886,168.055448 99.4192543,166.797527 C103.07252,165.539607 105.014331,161.558304 103.756411,157.905038 L99.1958348,144.660164 C97.9379146,141.006898 93.9566117,139.065087 90.303346,140.323007 Z" id="Rectangle-Copy-143" fill="#2FE3FF"></path>
        <path d="M17.274392,167.695704 L12.8482182,172.121878 C11.2664775,173.703619 11.2664775,176.268127 12.8482182,177.849868 L17.274392,182.276041 C18.8561327,183.857782 21.420641,183.857782 23.0023817,182.276041 L27.4285555,177.849868 C29.0102961,176.268127 29.0102961,173.703619 27.4285555,172.121878 L23.0023817,167.695704 C21.420641,166.113963 18.8561327,166.113963 17.274392,167.695704 Z" id="Rectangle-Copy-2" fill="#FFC6B7"></path>
        <path d="M25.6456081,153.936939 C29.2988738,155.194859 31.240685,159.176162 29.9827647,162.829428 L25.4221886,176.074303 C24.1642683,179.727568 20.1829655,181.669379 16.5296998,180.411459 C12.8764341,179.153539 10.934623,175.172236 12.1925432,171.51897 L16.7531193,158.274096 C18.0110396,154.62083 21.9923424,152.679019 25.6456081,153.936939 Z" id="Rectangle-Copy-144" fill="#FFC5B7"></path>
        <path d="M25.6456081,153.936939 C29.2988738,155.194859 31.240685,159.176162 29.9827647,162.829428 L27.0513403,171.342902 L13.821695,166.78757 L16.7531193,158.274096 C18.0110396,154.62083 21.9923424,152.679019 25.6456081,153.936939 Z" id="Rectangle-Copy-148" fill="#2FE3FF"></path>
        <path d="M30.2035623,140.699679 C33.856828,141.957599 35.7986391,145.938902 34.5407189,149.592168 L29.9801428,162.837042 C28.7222225,166.490308 24.7409197,168.432119 21.087654,167.174199 C17.4343883,165.916279 15.4925771,161.934976 16.7504974,158.28171 L21.3110735,145.036836 C22.5689937,141.38357 26.5502966,139.441759 30.2035623,140.699679 Z" id="Rectangle-Copy-149" fill="#2FE3FF"></path>
        <path d="M24.4630367,131.905406 L95.895606,131.905406 C99.7593753,131.905406 102.891579,135.03761 102.891579,138.901379 L102.891579,139.453693 C102.891579,143.317462 99.7593753,146.449666 95.895606,146.449666 L24.4630367,146.449666 C20.5992673,146.449666 17.4670634,143.317462 17.4670634,139.453693 L17.4670634,138.901379 C17.4670634,135.03761 20.5992673,131.905406 24.4630367,131.905406 Z" id="Rectangle" fill="#2FE3FF"></path>
        <path d="M59.8125826,71.150901 C65.8119937,71.150901 70.6732812,76.0268271 70.6732812,82.0368268 L70.6732812,83.670011 L48.9489432,83.670011 L48.9489432,82.0368268 C48.9489432,76.0268271 53.8131716,71.150901 59.8125826,71.150901 Z" id="Path-Copy-32" fill="#FF9600"></path>
        <path d="M48.2139985,81.8289654 C54.6181988,81.8289654 59.8111122,76.7182229 59.8111122,70.4144827 C59.8111122,64.1107426 54.6181988,59 48.2139985,59 C41.8068511,59 36.6139376,64.1107426 36.6139376,70.4144827 C36.6139376,76.7182229 41.8068511,81.8289654 48.2139985,81.8289654 Z" id="Path-Copy-38" fill="#FF9600" fill-rule="nonzero"></path>
        <path d="M39.7437152,81.6448609 L80.9831366,81.6448609 C88.7106753,81.6448609 94.9750832,87.9092687 94.9750832,95.6368074 L94.9750832,175.722291 C94.9750832,183.44983 88.7106753,189.714238 80.9831366,189.714238 L39.7437152,189.714238 C32.0161764,189.714238 25.7517686,183.44983 25.7517686,175.722291 L25.7517686,95.6368074 C25.7517686,87.9092687 32.0161764,81.6448609 39.7437152,81.6448609 Z" id="Mask" fill="#FFC6B7"></path>
        <path d="M94.9741491,141.293861 L94.9750832,175.722291 C94.9750832,183.44983 88.7106753,189.714238 80.9831366,189.714238 L39.7437152,189.714238 C32.0161764,189.714238 25.7511491,183.44983 25.7511491,175.722291 L25.7511491,141.293861 L94.9741491,141.293861 Z" id="Path" fill="#0084C2"></path>
        <polygon id="Path" fill="#2FE3FF" points="94.9741491 131.904861 94.9741491 158.231861 25.7511491 158.231861 25.7511491 131.904861"></polygon>
        <path d="M94.9750832,95.6368074 L94.974584,106.122709 C90.5701614,105.929816 87.0585871,102.298025 87.0585871,97.8460622 L87.0588918,83.0292817 C91.7433273,85.2909225 94.9750832,90.0864565 94.9750832,95.6368074 Z" id="Path" fill="#FFB67A"></path>
        <path d="M35.3247751,82.3569826 L35.3252057,97.8460622 C35.3252057,102.421578 31.6160169,106.130767 27.0405005,106.130767 L25.7514651,106.129983 L25.7517686,95.6368074 C25.7517686,89.4534434 29.7627189,84.206887 35.3247751,82.3569826 Z" id="Path" fill="#FFB67A"></path>
        <circle id="Oval" fill="#FFC6B7" cx="96.7240765" cy="108.800283" r="6.16750276"></circle>
        <circle id="Oval-Copy-3" fill="#FFC6B7" cx="23.6345662" cy="108.800283" r="6.16750276"></circle>
        <path d="M54.3800277,137.428543 C55.4476482,137.428543 56.3131256,138.29402 56.3131256,139.36164 L56.3131256,150.592019 C56.3131256,151.659639 55.4476482,152.525116 54.3800277,152.525116 C53.3124072,152.525116 52.4469298,151.659639 52.4469298,150.592019 L52.4469298,139.36164 C52.4469298,138.29402 53.3124072,137.428543 54.3800277,137.428543 Z" id="Rectangle" fill="#FFFFFF"></path>
        <path d="M66.1627195,137.428543 C67.23034,137.428543 68.0958174,138.29402 68.0958174,139.36164 L68.0958174,150.592019 C68.0958174,151.659639 67.23034,152.525116 66.1627195,152.525116 C65.095099,152.525116 64.2296216,151.659639 64.2296216,150.592019 L64.2296216,139.36164 C64.2296216,138.29402 65.095099,137.428543 66.1627195,137.428543 Z" id="Rectangle-Copy-142" fill="#FFFFFF"></path>
        <path d="M50.0811743,88.6408342 C54.8752921,88.6408342 58.7616925,92.5272345 58.7616925,97.3213523 L58.7616925,102.601477 C58.7616925,107.395595 54.8752921,111.281996 50.0811743,111.281996 C45.2870565,111.281996 41.4006562,107.395595 41.4006562,102.601477 L41.4006562,97.3213523 C41.4006562,92.5272345 45.2870565,88.6408342 50.0811743,88.6408342 Z" id="Rectangle-130-Copy-42" fill="#FFFFFF"></path>
        <path d="M52.4778275,93.7957618 C54.6301328,93.7957618 56.3749209,95.54055 56.3749209,97.6928553 L56.3749209,102.587671 C56.3749209,104.739976 54.6301328,106.484764 52.4778275,106.484764 C50.3255222,106.484764 48.580734,104.739976 48.580734,102.587671 L48.5801445,98.0248075 L48.7648386,98.0301667 L48.7648386,98.0301667 C50.493367,98.0301667 51.8946161,96.6289176 51.8946161,94.9003892 C51.8946161,94.5393458 51.8334824,94.192581 51.7210016,93.8698815 C51.9652802,93.8210725 52.218598,93.7957618 52.4778275,93.7957618 Z" id="Path" fill="#3D3D3D"></path>
        <path d="M70.51618,88.6408342 C65.7220622,88.6408342 61.8356618,92.5272345 61.8356618,97.3213523 L61.8356618,102.601477 C61.8356618,107.395595 65.7220622,111.281996 70.51618,111.281996 C75.3102977,111.281996 79.1966981,107.395595 79.1966981,102.601477 L79.1966981,97.3213523 C79.1966981,92.5272345 75.3102977,88.6408342 70.51618,88.6408342 Z" id="Rectangle-130-Copy-42" fill="#FFFFFF"></path>
        <path d="M68.6718405,93.7957618 C68.4150632,93.7957618 68.1640862,93.8205959 67.9211803,93.8679933 C68.034555,94.1918517 68.0958174,94.5389662 68.0958174,94.9003892 C68.0958174,96.6289176 66.6945683,98.0301667 64.9660399,98.0301667 L64.7743387,98.0243919 L64.7743387,98.0243919 L64.774747,102.587671 C64.774747,104.739976 66.5195352,106.484764 68.6718405,106.484764 C70.8241458,106.484764 72.5689339,104.739976 72.5689339,102.587671 L72.5689339,97.6928553 C72.5689339,95.54055 70.8241458,93.7957618 68.6718405,93.7957618 Z" id="Path" fill="#3D3D3D"></path>
        <path d="M36.4197208,106.775927 C45.7547773,106.727094 53.9403826,108.932367 60.930785,113.399555 L61.4280661,113.722487 L59.2987856,116.949503 C53.0254134,112.810147 45.6462215,110.705318 37.1157928,110.642765 L36.4399453,110.64207 L36.4197208,106.775927 Z" id="Path" fill="#FFC6B7" fill-rule="nonzero"></path>
        <path d="M53.9070351,115.616632 C53.6432689,115.182019 53.0771207,115.04352 52.6425076,115.307286 C52.2078946,115.571053 52.0693958,116.137201 52.333162,116.571814 C54.387584,119.956928 57.4318938,121.130419 61.2214922,119.99737 C61.7085775,119.851736 61.9853791,119.338817 61.8397459,118.851731 C61.6941126,118.364646 61.1811929,118.087845 60.6941077,118.233478 C57.7077316,119.126372 55.5269072,118.285729 53.9070351,115.616632 Z" id="Path" fill="#EE9583" fill-rule="nonzero"></path>
        <path d="M60.087269,114.967786 C61.9683146,114.967786 63.4932034,113.439493 63.4932034,111.554248 C63.4932034,110.925833 63.1147662,110.011472 62.6101834,109.07162 L62.3692606,108.63698 L62.3692606,108.63698 L62.1159356,108.204411 C62.0729875,108.132805 62.0297523,108.061522 61.9863449,107.990681 L61.7247518,107.571886 L61.7247518,107.571886 L61.4645368,107.169388 L61.4645368,107.169388 L61.2112119,106.788877 L61.2112119,106.788877 L60.856201,106.271783 L60.856201,106.271783 L60.3770539,105.600507 L60.3770539,105.600507 L60.087269,105.210245 L60.087269,105.210245 L59.7974841,105.600507 L59.7974841,105.600507 L59.3183371,106.271783 L59.3183371,106.271783 L58.9633262,106.788877 L58.9633262,106.788877 L58.5804105,107.368245 L58.5804105,107.368245 L58.3188175,107.779602 L58.3188175,107.779602 L58.0586025,108.204411 L58.0586025,108.204411 L57.8052775,108.63698 C57.1851711,109.723362 56.6813347,110.829154 56.6813347,111.554248 C56.6813347,113.439493 58.2062234,114.967786 60.087269,114.967786 Z" id="Oval-Copy-19" fill="#EE9583"></path>
        <polygon id="Path-31" fill="#2FE3FF" points="93.8178166 158.232358 96.6569053 158.232358 96.6569053 131.905406 93.6331722 131.905406"></polygon>
        <polygon id="Path-31-Copy" fill="#2FE3FF" points="23.8178166 158.232358 26.6569053 158.232358 26.6569053 131.905406 23.6331722 131.905406"></polygon>
    </g>
</svg>