<?xml version="1.0" encoding="UTF-8"?>
<svg width="118px" height="175px" viewBox="0 0 118 175" version="1.1" xmlns="http://www.w3.org/2000/svg" xmlns:xlink="http://www.w3.org/1999/xlink">
    <title>Lucy - Cropped</title>
    <g id="Lucy---Cropped" stroke="none" stroke-width="1" fill="none" fill-rule="evenodd">
        <ellipse id="bun" fill="#3D3D3D" cx="58.7851447" cy="40.6951552" rx="12.7685376" ry="12.6951552"></ellipse>
        <path d="M23.4169507,126.118235 C26.6496921,122.570282 32.1474298,122.314183 35.6964917,125.546223 C39.2455535,128.778262 39.501982,134.274532 36.2692406,137.822485 C25.7890277,149.324582 20.2181204,160.622255 19.2411182,171.789441 C18.8228255,176.570548 14.6068194,180.107215 9.82440497,179.688808 C5.04199052,179.270401 1.50417081,175.055362 1.92246349,170.274255 C3.25816526,155.007114 10.5281278,140.263795 23.4169507,126.118235 Z" id="Path" fill="#FFB100" fill-rule="nonzero"></path>
        <path d="M3.38385225,161.380982 L20.4674283,164.735765 C19.9222445,166.831265 19.5394591,168.921676 19.3170205,171.00748 L19.2411182,171.789441 C18.8228255,176.570548 14.6068194,180.107215 9.82440497,179.688808 C5.04199052,179.270401 1.50417081,175.055362 1.92246349,170.274255 C2.18358458,167.289627 2.67149965,164.325019 3.38385225,161.380982 Z" id="Path" fill="#FFCBA3" fill-rule="nonzero"></path>
        <path d="M95.9186845,126.118235 C92.6859431,122.570282 87.1882054,122.314183 83.6391435,125.546223 C80.0900817,128.778262 79.8336532,134.274532 83.0663946,137.822485 C93.5466075,149.324582 99.1175148,160.622255 100.094517,171.789441 C100.51281,176.570548 104.728816,180.107215 109.51123,179.688808 C114.293645,179.270401 117.831464,175.055362 117.413172,170.274255 C116.07747,155.007114 108.807507,140.263795 95.9186845,126.118235 Z" id="Path" fill="#FFB100" fill-rule="nonzero"></path>
        <path d="M115.951783,161.380982 C116.664136,164.325019 117.152051,167.289627 117.413172,170.274255 C117.831464,175.055362 114.293645,179.270401 109.51123,179.688808 C104.815769,180.099608 100.666306,176.697847 100.12108,172.048978 L100.094517,171.789441 C99.8893349,169.444199 99.4815387,167.093202 98.8682069,164.735765 L115.951783,161.380982 Z" id="Path" fill="#FFCBA3" fill-rule="nonzero"></path>
        <path d="M52.6944055,113.270349 L65.7564727,113.270349 C87.0336624,113.270349 104.282233,130.518919 104.282233,151.796109 L104.282233,185.685307 C104.282233,188.246009 102.206373,190.321869 99.6456704,190.321869 L18.8052077,190.321869 C16.2445051,190.321869 14.1686455,188.246009 14.1686455,185.685307 L14.1686455,151.796109 C14.1686455,130.518919 31.4172158,113.270349 52.6944055,113.270349 Z" id="body" fill="#FFB100"></path>
        <path d="M104.282233,151.796109 L104.281565,181.955496 L76.3969207,181.956275 C74.4515776,181.956275 72.8745655,180.379263 72.8745655,178.43392 L72.8745655,123.543885 L91.9477862,123.542569 C99.534353,130.578694 104.282233,140.632938 104.282233,151.796109 Z" id="Path" fill="#FF9500"></path>
        <path d="M44.1086647,123.543885 L44.1086647,178.43392 C44.1086647,180.379263 42.5316525,181.956275 40.5863095,181.956275 L14.1683975,181.955496 L14.1683975,151.796109 C14.1683975,140.632938 18.9165252,130.578694 26.5030919,123.542569 L44.1086647,123.543885 Z" id="Path" fill="#FF9500"></path>
        <circle id="button" fill="#FFFFFF" cx="58.1556805" cy="145.643175" r="3.62231424"></circle>
        <path d="M51.9605815,115.178291 C56.2970754,115.178291 59.8124983,118.693714 59.8124983,123.030208 L59.8124983,128.335797 C59.8124983,132.672291 56.2970754,136.187714 51.9605815,136.187714 C47.6240876,136.187714 44.1086647,132.672291 44.1086647,128.335797 L44.1086647,123.030208 C44.1086647,118.693714 47.6240876,115.178291 51.9605815,115.178291 Z" id="R-collar" fill="#FFFFFF"></path>
        <path d="M65.0226487,115.178291 C69.3591426,115.178291 72.8745655,118.693714 72.8745655,123.030208 L72.8745655,128.335797 C72.8745655,132.672291 69.3591426,136.187714 65.0226487,136.187714 C60.6861548,136.187714 57.1707319,132.672291 57.1707319,128.335797 L57.1707319,123.030208 C57.1707319,118.693714 60.6861548,115.178291 65.0226487,115.178291 Z" id="L-collar" fill="#FFFFFF"></path>
        <path d="M43.4743892,56.4723712 L73.9018288,56.4723712 C88.4658249,56.4723712 100.272276,68.2788228 100.272276,82.8428189 C100.272276,97.406815 88.4658249,109.213267 73.9018288,109.213267 L43.4743892,109.213267 C28.9103931,109.213267 17.1039415,97.406815 17.1039415,82.8428189 C17.1039415,68.2788228 28.9103931,56.4723712 43.4743892,56.4723712 Z" id="hair" fill="#3D3D3D"></path>
        <path d="M73.9018288,109.213267 L43.4743892,109.213267 C30.0392753,109.213267 18.9507888,99.1661606 17.31253,86.1755489 L100.063688,86.1755489 C98.4254291,99.1661606 87.3369426,109.213267 73.9018288,109.213267 Z" id="Path" fill="#CAC9C9"></path>
        <path d="M59.0052919,66.5991424 C77.0402432,66.5991424 91.6604599,81.2193591 91.6604599,99.2543104 L91.6604599,123.69065 L26.3501239,123.69065 L26.3501239,99.2543104 C26.3501239,81.2193591 40.9703406,66.5991424 59.0052919,66.5991424 Z" id="head" fill="#FFCBA3"></path>
        <polygon id="F-hair" fill="#3D3D3D" points="36.4055968 64.2509056 84.1041568 64.2509056 84.1041568 72.02944 36.4055968 72.02944"></polygon>
        <path d="M51.3570376,79.5125726 C55.1180696,79.5125726 58.1669884,82.5614914 58.1669884,86.3225233 L58.1669884,90.5244079 C58.1669884,94.2854398 55.1180696,97.3343586 51.3570376,97.3343586 C47.5960057,97.3343586 44.5470868,94.2854398 44.5470868,90.5244079 L44.5470868,86.3225233 C44.5470868,82.5614914 47.5960057,79.5125726 51.3570376,79.5125726 Z" id="Rectangle-130-Copy-42" fill="#FFFFFF"></path>
        <path d="M53.2195597,83.5019792 C54.9134506,83.5019792 56.2866205,84.8751491 56.2866205,86.5690401 L56.2866205,90.4213206 C56.2866205,92.1152115 54.9134506,93.4883814 53.2195597,93.4883814 C51.5256688,93.4883814 50.1524989,92.1152115 50.1524989,90.4213206 L50.1524989,86.5690401 C50.1524989,84.8751491 51.5256688,83.5019792 53.2195597,83.5019792 Z" id="Rectangle-130-Copy-43" fill="#3D3D3D"></path>
        <circle id="Oval" fill="#FFFFFF" cx="50.5147303" cy="84.1539958" r="2.24583483"></circle>
        <path d="M67.483562,79.5125726 C63.72253,79.5125726 60.6736112,82.5614914 60.6736112,86.3225233 L60.6736112,90.5244079 C60.6736112,94.2854398 63.72253,97.3343586 67.483562,97.3343586 C71.2445939,97.3343586 74.2935127,94.2854398 74.2935127,90.5244079 L74.2935127,86.3225233 C74.2935127,82.5614914 71.2445939,79.5125726 67.483562,79.5125726 Z" id="Rectangle-130-Copy-42" fill="#FFFFFF"></path>
        <path d="M65.9644486,83.5019792 C64.2705577,83.5019792 62.8973878,84.8751491 62.8973878,86.5690401 L62.8973878,90.4213206 C62.8973878,92.1152115 64.2705577,93.4883814 65.9644486,93.4883814 C67.6583395,93.4883814 69.0315094,92.1152115 69.0315094,90.4213206 L69.0315094,86.5690401 C69.0315094,84.8751491 67.6583395,83.5019792 65.9644486,83.5019792 Z" id="Path" fill="#3D3D3D"></path>
        <path d="M63.7429306,86.3998306 C62.5025903,86.3998306 61.4970958,85.3943361 61.4970958,84.1539958 C61.4970958,82.9136555 62.5025903,81.908161 63.7429306,81.908161 C64.983271,81.908161 65.9887655,82.9136555 65.9887655,84.1539958 C65.9887655,85.3943361 64.983271,86.3998306 63.7429306,86.3998306 Z" id="Oval-Copy-22" fill="#FFFFFF"></path>
        <path d="M43.5474111,93.310336 C51.2076083,93.8427848 56.4819183,94.9992439 59.3703411,96.7797135 C62.2587639,98.560183 59.8263195,103.71461 52.0730081,112.242995 L39.1186615,101.122506 L43.5474111,93.310336 Z" id="Path-65-Copy-3" fill="#FFCBA3"></path>
        <path d="M76.3711151,93.7506304 L75.8010738,93.7917341 L75.8010738,93.7917341 L74.6878325,93.8809615 L74.6878325,93.8809615 L73.6103796,93.9795492 L73.6103796,93.9795492 L72.5687149,94.087497 C71.5449444,94.2001248 70.5748564,94.3267929 69.6584508,94.4675012 L68.7599394,94.6128896 L68.7599394,94.6128896 L67.8972162,94.7676382 C64.6587052,95.3787813 62.2090281,96.1962379 60.5481851,97.2200079 C58.6361305,98.3986285 59.0557157,101.05574 61.8069405,105.191343 L62.1708269,105.727323 L62.1708269,105.727323 L62.5600457,106.279368 L62.5600457,106.279368 L62.974597,106.847475 L62.974597,106.847475 L63.4144807,107.431646 C63.4899057,107.530346 63.5663862,107.629716 63.6439222,107.729755 L64.1218046,108.338021 L64.1218046,108.338021 L64.6250194,108.962349 L64.6250194,108.962349 L65.1535666,109.602742 L65.1535666,109.602742 L65.7074463,110.259197 L65.7074463,110.259197 L66.2866584,110.931716 L66.2866584,110.931716 L66.8912029,111.620298 C66.9940714,111.7364 67.0979954,111.853172 67.2029749,111.970613 L67.8455181,112.68329 L67.8455181,112.68329 L80.7998647,101.5628 L76.3711151,93.7506304 Z" id="Path-65-Copy-4" fill="#FFCBA3"></path>
        <path d="M59.4455863,99.914752 C61.2693454,99.914752 62.7477943,98.4205769 62.7477943,96.5774186 C62.7477943,95.8498561 62.2332536,94.7302479 61.6103885,93.6414706 L61.356428,93.2086063 L61.356428,93.2086063 L61.0966903,92.7850449 L61.0966903,92.7850449 L60.8369525,92.3768006 L60.8369525,92.3768006 L60.5829921,91.9898877 L60.5829921,91.9898877 L60.2255217,91.4626707 L60.2255217,91.4626707 L59.8230365,90.8905074 L59.8230365,90.8905074 L59.4455863,90.37504 L59.4455863,90.37504 L59.1507033,90.7758343 L59.1507033,90.7758343 L58.6656509,91.4626707 L58.6656509,91.4626707 L58.3081805,91.9898877 L58.3081805,91.9898877 L58.05422,92.3768006 L58.05422,92.3768006 L57.7944823,92.7850449 L57.7944823,92.7850449 L57.5347445,93.2086063 L57.5347445,93.2086063 L57.2807841,93.6414706 C56.657919,94.7302479 56.1433783,95.8498561 56.1433783,96.5774186 C56.1433783,98.4205769 57.6218272,99.914752 59.4455863,99.914752 Z" id="Oval-Copy-31" fill="#E89665"></path>
        <path d="M48.7754516,98.7837081 C49.1790962,98.4556541 49.7722552,98.5169325 50.1003092,98.9205771 C54.4596614,104.284417 59.5648217,105.184595 65.7407289,101.665224 C66.1926452,101.407697 66.7677625,101.565281 67.0252893,102.017197 C67.2828161,102.469113 67.1252322,103.044231 66.6733159,103.301757 C59.7042817,107.273096 53.584391,106.193994 48.6385826,100.108566 C48.3105286,99.7049211 48.3718069,99.1117621 48.7754516,98.7837081 Z" id="Path" fill="#E89665" fill-rule="nonzero"></path>
        <path d="M64.1184475,111.339271 C64.4554485,111.123591 64.9034856,111.22194 65.1191662,111.558941 C65.3348469,111.895942 65.2364973,112.343979 64.8994963,112.55966 C60.9923169,115.060255 57.0182669,115.060255 53.1110875,112.55966 C52.7740865,112.343979 52.6757369,111.895942 52.8914175,111.558941 C53.1070982,111.22194 53.5551352,111.123591 53.8921363,111.339271 C57.3231969,113.53515 60.6873869,113.53515 64.1184475,111.339271 Z" id="Path" fill="#F7B286" fill-rule="nonzero"></path>
        <path d="M42.0539575,90.0815104 C50.036296,90.0815104 55.5880007,90.0815104 58.7090717,90.0815104 C61.3573029,90.0815104 60.1367873,82.4875268 55.9245325,79.9413513 C52.6902625,77.9863369 46.5627707,80.6296977 45.9337392,80.6296977 C44.9682253,80.6296977 43.6749647,83.7803019 42.0539575,90.0815104 Z" id="Path-67-Copy-4" fill="#FFCBA3"></path>
        <path d="M57.6110263,90.0815104 C65.5933648,90.0815104 71.1450695,90.0815104 74.2661405,90.0815104 C76.9143717,90.0815104 75.6938561,82.7804068 71.4816013,80.2347376 C68.2473313,78.280112 62.1198395,80.9229472 61.490808,80.9229472 C60.5252941,80.9229472 59.2320335,83.9758016 57.6110263,90.0815104 Z" id="Path-67-Copy-5" fill="#FFCBA3"></path>
        <path d="M80.9615195,87.5048331 C81.3308516,87.3509447 81.7550056,87.5255963 81.908894,87.8949284 C82.0499584,88.2334829 81.9149578,88.6181029 81.6069984,88.7983884 L81.5187986,88.8423029 L77.787,90.396 L81.5343913,92.0612543 C81.8695475,92.2102126 82.0358418,92.5823738 81.9360637,92.9249905 L81.9021816,93.017509 C81.7532233,93.3526652 81.3810621,93.5189595 81.0384454,93.4191814 L80.9459268,93.3852993 L75.662394,91.0370625 C75.117684,90.7949692 75.0921663,90.0521246 75.5747076,89.7587133 L75.6779867,89.7063051 L80.9615195,87.5048331 Z" id="Path" fill="#F3A577" fill-rule="nonzero"></path>
        <path d="M36.755722,87.5048331 C36.3863899,87.3509447 35.9622359,87.5255963 35.8083475,87.8949284 C35.6672832,88.2334829 35.8022837,88.6181029 36.1102432,88.7983884 L36.1984429,88.8423029 L39.9295103,90.396 L36.1828502,92.0612543 C35.847694,92.2102126 35.6813997,92.5823738 35.7811778,92.9249905 L35.8150599,93.017509 C35.9640182,93.3526652 36.3361794,93.5189595 36.6787961,93.4191814 L36.7713147,93.3852993 L42.0548475,91.0370625 C42.5995575,90.7949692 42.6250752,90.0521246 42.1425339,89.7587133 L42.0392548,89.7063051 L36.755722,87.5048331 Z" id="Path" fill="#F3A577" fill-rule="nonzero"></path>
        <path d="M27.8022233,66.0120832 L34.2909716,66.0120832 C38.0920146,66.0120832 41.1733687,69.0934373 41.1733687,72.8944803 L41.1733687,79.3832285 C41.1733687,83.1842715 38.0920146,86.2656256 34.2909716,86.2656256 L27.8022233,86.2656256 C24.0011804,86.2656256 20.9198263,83.1842715 20.9198263,79.3832285 L20.9198263,72.8944803 C20.9198263,69.0934373 24.0011804,66.0120832 27.8022233,66.0120832 Z" id="Rectangle-Copy-18" fill="#3D3D3D"></path>
        <path d="M83.7196121,65.2782592 L89.3277716,65.2782592 C93.1288146,65.2782592 96.2101687,68.3596133 96.2101687,72.1606563 L96.2101687,79.3832285 C96.2101687,83.1842715 93.1288146,86.2656256 89.3277716,86.2656256 L83.7196121,86.2656256 C79.9185692,86.2656256 76.8372151,83.1842715 76.8372151,79.3832285 L76.8372151,72.1606563 C76.8372151,68.3596133 79.9185692,65.2782592 83.7196121,65.2782592 Z" id="Rectangle-Copy-29" fill="#3D3D3D"></path>
        <path d="M49.8973269,77.8430487 C56.5086579,75.9113783 62.8787062,75.9113783 68.9518285,77.8599569 C70.1095363,78.2314108 70.7469211,79.4710413 70.3754673,80.6287492 C70.0040134,81.7864571 68.7643829,82.4238418 67.606675,82.052388 C62.3907927,80.3788572 56.9178266,80.3788572 51.1321338,82.0692962 C49.9650877,82.4102787 48.7425891,81.7406219 48.4016066,80.5735759 C48.0606241,79.4065299 48.7302808,78.1840312 49.8973269,77.8430487 Z" id="Path" fill="#3D3D3D" fill-rule="nonzero"></path>
    </g>
</svg>