<?xml version="1.0" encoding="UTF-8"?>
<svg width="118px" height="175px" viewBox="0 0 118 175" version="1.1" xmlns="http://www.w3.org/2000/svg" xmlns:xlink="http://www.w3.org/1999/xlink">
    <title>Zari - Cropped</title>
    <g id="Zari---Cropped" stroke="none" stroke-width="1" fill="none" fill-rule="evenodd">
        <path d="M52.1511989,108.659482 C54.5476729,109.828321 55.5817926,112.67076 54.5325896,115.092957 L54.4202935,115.334505 L35.8202812,152.72155 C35.5081988,153.348853 35.1290256,153.929527 34.693807,154.456466 C35.1991566,155.747015 34.6676265,157.239275 33.4144211,157.905616 L25.6443282,162.037048 C24.294255,162.754895 22.6178747,162.242374 21.900028,160.892301 C21.5799026,160.290232 21.5044647,159.62327 21.6388763,159.005364 L16.2492494,159.858511 C14.7390221,160.097707 13.3208339,159.067333 13.0816374,157.557106 C12.8424409,156.046879 13.872815,154.62869 15.3830423,154.389494 L24.7974105,152.897818 L45.442531,110.955894 C46.664524,108.473277 49.6641767,107.44648 52.1511989,108.659482 Z" id="Mask" fill="#D88669"></path>
        <path d="M52.1511989,108.659482 C54.5476729,109.828321 55.5817926,112.67076 54.5325896,115.092957 L54.4202935,115.334505 L35.8202812,152.72155 C35.634111,153.095762 35.4240658,153.453381 35.1924902,153.792898 L26.4551466,149.531 L45.442531,110.955894 C46.664524,108.473277 49.6641767,107.44648 52.1511989,108.659482 Z" id="Path" fill="#1CB0F6"></path>
        <path d="M65.5818128,108.659482 C63.1853387,109.828321 62.1512191,112.67076 63.200422,115.092957 L63.3127182,115.334505 L81.9127304,152.72155 C82.2248128,153.348853 82.6039861,153.929527 83.0392047,154.456466 C82.533855,155.747015 83.0653852,157.239275 84.3185906,157.905616 L92.0886835,162.037048 C93.4387567,162.754895 95.115137,162.242374 95.8329836,160.892301 C96.1531091,160.290232 96.2285469,159.62327 96.0941354,159.005364 L101.483762,159.858511 C102.99399,160.097707 104.412178,159.067333 104.651374,157.557106 C104.890571,156.046879 103.860197,154.62869 102.349969,154.389494 L92.9356012,152.897818 L72.2904807,110.955894 C71.0684876,108.473277 68.068835,107.44648 65.5818128,108.659482 Z" id="Mask" fill="#D88669"></path>
        <path d="M65.5818128,108.659482 C67.9997511,107.480175 70.9022358,108.417961 72.1845821,110.752396 L72.2904807,110.955894 L90.9077853,148.78 L82.0997853,153.076 L81.9127304,152.72155 L63.3127182,115.334505 L63.200422,115.092957 C62.1512191,112.67076 63.1853387,109.828321 65.5818128,108.659482 Z" id="Path" fill="#1CB0F6"></path>
        <ellipse id="hips" fill="#FFB7E3" cx="58.7250561" cy="141.313231" rx="23.8132069" ry="23.7308083"></ellipse>
        <path d="M43.9756995,143.290798 L73.6392099,143.290798 C76.2786456,143.290798 78.418331,145.430483 78.418331,148.069919 L78.418331,196.355522 C78.418331,198.994958 76.2786456,201.134643 73.6392099,201.134643 L43.9756995,201.134643 C41.3362638,201.134643 39.1965784,198.994958 39.1965784,196.355522 L39.1965784,148.069919 C39.1965784,145.430483 41.3362638,143.290798 43.9756995,143.290798 Z" id="Rectangle" fill="#FFB7E3"></path>
        <path d="M58.4526563,147.227266 C59.0805781,147.227266 59.5896094,147.736297 59.5896094,148.364219 L59.5896094,201.151328 L57.3157031,201.151328 L57.3157031,148.364219 C57.3157031,147.736297 57.8247344,147.227266 58.4526563,147.227266 Z" id="Rectangle" fill="#FFA1DA"></path>
        <path d="M55.6914844,146.090313 L60.8889844,146.090313 C61.5169062,146.090313 62.0259375,146.599344 62.0259375,147.227266 C62.0259375,147.855187 61.5169062,148.364219 60.8889844,148.364219 L55.6914844,148.364219 C55.0635625,148.364219 54.5545312,147.855187 54.5545312,147.227266 C54.5545312,146.599344 55.0635625,146.090313 55.6914844,146.090313 Z" id="Rectangle" fill="#FFA1DA"></path>
        <path d="M64.9219365,93.9145777 L73.9824548,112.348046 C75.5080956,115.451936 74.2286719,119.204912 71.1247819,120.730553 C70.2652045,121.153057 69.320166,121.37276 68.3623648,121.37276 L50.2413283,121.37276 C46.7827574,121.37276 43.9790317,118.569034 43.9790317,115.110463 C43.9790317,114.152662 44.1987342,113.207623 44.6212383,112.348046 L53.6817566,93.9145777 C55.2073975,90.8106878 58.9603737,89.531264 62.0642636,91.0569049 C63.306457,91.6674745 64.3113669,92.6723844 64.9219365,93.9145777 Z" id="Mask" fill="#1CB0F6"></path>
        <polygon id="Rectangle" fill="#FF86D0" points="45.7884696 117.252828 71.8264398 117.252828 71.8264398 121.537557 45.7884696 121.537557"></polygon>
        <path d="M71.9242578,94.8403976 L67.3702412,94.8403976 C65.8229858,94.8403976 64.5686874,96.094696 64.5686874,97.6419514 C64.5686874,97.7856618 64.5797452,97.9291591 64.6017628,98.0711728 L67.0290096,113.726914 C67.2406714,115.092133 68.4159587,116.099247 69.7974879,116.099247 L76.7787513,116.099247 C78.3260067,116.099247 79.5803051,114.844948 79.5803051,113.297693 C79.5803051,113.016376 79.5379339,112.736663 79.4546172,112.467967 L74.6001237,96.8122255 C74.2365374,95.6396597 73.1519,94.8403976 71.9242578,94.8403976 Z" id="Rectangle-Copy-3" fill="#FFB7E3"></path>
        <path d="M51.1443812,94.8403976 L67.4593119,94.8403976 C70.3262852,94.8403976 72.6504262,97.1645387 72.6504262,100.031512 C72.6504262,102.898485 70.3262852,105.222626 67.4593119,105.222626 L51.1443812,105.222626 C48.2774079,105.222626 45.9532669,102.898485 45.9532669,100.031512 C45.9532669,97.1645387 48.2774079,94.8403976 51.1443812,94.8403976 Z" id="Rectangle-Copy-31" fill="#FFB7E3"></path>
        <path d="M58.8898534,22 C79.1862038,22 95.6396467,38.4534429 95.6396467,58.7497934 L95.6396467,62.7049281 C95.6396467,83.0012785 79.1862038,99.4547215 58.8898534,99.4547215 C38.5935029,99.4547215 22.14006,83.0012785 22.14006,62.7049281 L22.14006,58.7497934 C22.14006,38.4534429 38.5935029,22 58.8898534,22 Z" id="Mask" fill="#FFB7E3"></path>
        <path d="M85.3795652,68.5593109 C86.2409255,68.9732435 86.6036373,70.0070726 86.1897047,70.8684329 C78.761883,86.3251287 64.6778864,95.8411762 42.3969032,95.5544816 C40.4041029,94.5523537 38.5151787,93.3739446 36.7504062,92.0399615 C37.0124748,91.9169021 37.3081571,91.8574305 37.6167381,91.8803622 C61.36518,93.6451853 75.695758,84.7155732 83.0704432,69.3694503 C83.4843758,68.50809 84.5182049,68.1453782 85.3795652,68.5593109 Z" id="Path" fill="#FF9BD8"></path>
        <path d="M58.9392928,30.3881818 C75.0944596,30.3881818 88.1908099,43.4845321 88.1908099,59.6396989 C88.1908099,75.7948657 75.0944596,88.8912161 58.9392928,88.8912161 C42.784126,88.8912161 29.6877756,75.7948657 29.6877756,59.6396989 C29.6877756,43.4845321 42.784126,30.3881818 58.9392928,30.3881818 Z" id="Mask" fill="#E18E70"></path>
        <path d="M61.0685884,55.8087692 C58.7915732,58.7331502 59.3170522,62.9478435 62.2422786,65.22255 C64.1705517,66.7220084 66.6602456,67.0041915 68.7855262,66.1847206 L68.7759691,66.2149976 L68.9533009,66.1165246 L68.9533009,66.1165246 C69.3897788,65.9355631 69.8105713,65.7057929 70.2062628,65.4296085 L71.3093985,64.8371783 C72.3848652,64.2664094 73.3773472,63.7605827 74.2870468,63.3193196 C74.7619206,63.1572758 75.2125128,62.9422264 75.6322376,62.6822574 C75.790291,62.6002214 75.9175082,62.5151134 76.0142052,62.4267139 C77.7223839,61.2002063 78.8293135,59.1924916 78.8149511,56.9309577 C78.7910512,53.226141 75.7667461,50.2430992 72.0598359,50.2679908 C67.6554622,50.2979084 63.8257631,52.2677173 61.0685884,55.8087692 Z" id="Path" fill="#FFFFFF" fill-rule="nonzero"></path>
        <path d="M66.8825214,53.6410777 C69.3399271,53.6410777 71.332048,55.6331986 71.332048,58.0906043 L71.332048,60.2329689 C71.332048,62.6903745 69.3399271,64.6824954 66.8825214,64.6824954 C64.4251158,64.6824954 62.4329949,62.6903745 62.4329949,60.2329689 L62.4329949,58.0906043 C62.4329949,58.0037725 62.4354821,57.9175217 62.4403893,57.8319192 C62.5292784,57.8427982 62.6195646,57.8473577 62.7109129,57.8473577 C64.1986828,57.8473577 65.4047587,56.6379203 65.4047587,55.1460038 C65.4047587,54.7335749 65.3125899,54.3427332 65.1477808,53.9930614 C65.6801577,53.7661691 66.2667312,53.6410777 66.8825214,53.6410777 Z" id="Path" fill="#3D3D3D"></path>
        <path d="M57.304389,55.8087692 C59.5814042,58.7331502 59.0559252,62.9478435 56.1306988,65.22255 C54.2024258,66.7220084 51.7127318,67.0041915 49.5874512,66.1847206 L49.5970083,66.2149976 L49.4196765,66.1165246 L49.4196765,66.1165246 C48.9831986,65.9355631 48.5624061,65.7057929 48.1667146,65.4296085 L47.0635789,64.8371783 C45.9881123,64.2664094 44.9956303,63.7605827 44.0859307,63.3193196 C43.6110568,63.1572758 43.1604646,62.9422264 42.7407398,62.6822574 C42.5826864,62.6002214 42.4554693,62.5151134 42.3587722,62.4267139 C40.6505936,61.2002063 39.5436639,59.1924916 39.5580264,56.9309577 C39.5819263,53.226141 42.6062313,50.2430992 46.3131415,50.2679908 C50.7175152,50.2979084 54.5472144,52.2677173 57.304389,55.8087692 Z" id="Path" fill="#FFFFFF" fill-rule="nonzero"></path>
        <path d="M51.7211717,53.6410777 C54.1083658,53.6410777 56.0564829,55.5209893 56.1658552,57.8811446 L56.1706982,58.0906043 L56.1706982,60.2329689 C56.1706982,62.6903745 54.1785774,64.6824954 51.7211717,64.6824954 C49.3339776,64.6824954 47.3858604,62.8025838 47.2764882,60.4424286 L47.2716451,60.2329689 L47.2716451,58.0906043 C47.2716451,57.8694901 47.2877737,57.652143 47.3189185,57.4396753 C47.7314782,57.6985398 48.2186977,57.8473577 48.7405788,57.8473577 C50.2283487,57.8473577 51.4344246,56.6379203 51.4344246,55.1460038 C51.4344246,54.612745 51.2803391,54.1155751 51.0143799,53.6968233 C51.2442836,53.6601862 51.4804961,53.6410777 51.7211717,53.6410777 Z" id="Path" fill="#3D3D3D"></path>
        <path d="M58.9392928,30.3881818 C64.9763145,30.3881818 70.5861905,32.2170098 75.2451264,35.3508713 L74.2198242,36.3902046 L74.2198242,36.3902046 L73.3404098,37.2654085 L73.3404098,37.2654085 L72.6452089,37.943007 L72.6452089,37.943007 L72.1643692,38.4032903 L72.1643692,38.4032903 L71.6693819,38.8694549 L71.6693819,38.8694549 L71.1600334,39.3406783 L71.1600334,39.3406783 L70.6361096,39.8161381 L70.6361096,39.8161381 L70.0973967,40.2950117 L70.0973967,40.2950117 L69.5436809,40.7764768 L69.5436809,40.7764768 L68.9747483,41.2597109 L68.9747483,41.2597109 L68.3903851,41.7438915 C68.2916934,41.8246215 68.1923499,41.9053566 68.0923501,41.9860798 L67.4844399,42.4701381 L67.4844399,42.4701381 L66.8605643,42.9530867 L66.8605643,42.9530867 L66.2205095,43.4341033 L66.2205095,43.4341033 L65.5640618,43.9123654 L65.5640618,43.9123654 L64.8910071,44.3870505 L64.8910071,44.3870505 L64.2011316,44.8573361 L64.2011316,44.8573361 L63.4942215,45.3223998 C62.6594731,45.8616082 61.7895089,46.3884761 60.8828009,46.8971262 L60.0965884,47.3285134 C53.7343303,50.7417265 45.6238283,53.2193794 35.2723432,52.8665309 C33.8143757,52.8168336 32.0241129,52.3219315 30.7509816,51.7925314 C34.1814237,39.4482328 45.5023141,30.3881818 58.9392928,30.3881818 Z" id="Path" fill="#3D3D3D"></path>
        <path d="M25.0281669,40.8258565 L43.1060691,45.4861876 C44.0629936,45.7438293 44.4922649,46.861074 43.9538399,47.6926419 C41.3668988,51.6880302 36.4306248,53.5990047 31.7138964,52.3290846 C26.9971723,51.0591485 23.6731527,46.9241784 23.4209328,42.1643764 C23.3684378,41.1737096 24.0712424,40.5682148 25.0281669,40.8258565 Z" id="Combined-Shape-Copy-69" fill="#3D3D3D" fill-rule="nonzero"></path>
        <path d="M28.077923,41.6415831 C34.2872512,43.1427728 37.0707972,39.7764947 39.9332726,37.445238 C41.8415896,35.8910669 44.1229165,37.2898486 46.7772533,41.6415831 L39.2885226,47.2139838 L29.0044533,45.2708167 C24.2472143,41.8505345 23.9383708,40.64079 28.077923,41.6415831 Z" id="Path-48-Copy-11" fill="#3D3D3D"></path>
        <path d="M37.4162127,60.2422639 L37.5911989,60.225349 L37.9835567,60.1958808 L38.4305335,60.1735694 L38.9298552,60.1600239 L39.4792481,60.1568533 L40.076438,60.165667 C40.4899917,60.175895 40.9338942,60.1951853 41.4051135,60.2256833 C44.3350517,60.4153134 47.310429,60.9982157 50.1698799,62.1019611 C54.2093355,63.6611872 57.668236,66.1340073 60.2835883,69.6603523 L60.5706983,70.056511 L56.4014604,73.0088714 C54.3708717,70.1413327 51.6272467,68.1405968 48.3302144,66.8679454 C45.9961364,65.9669934 43.5205304,65.4820007 41.07516,65.3237326 C40.2190659,65.2683249 39.4315938,65.2578704 38.7345141,65.2796667 L38.2927847,65.2982801 L38.0065388,65.3177045 L37.9474325,65.3232856 L37.4162127,60.2422639 Z" id="Path" fill="#E18E70" fill-rule="nonzero"></path>
        <path d="M84.0656896,60.2422639 L83.8907034,60.225349 L83.4983455,60.1958808 L83.0513688,60.1735694 L82.552047,60.1600239 L82.0026542,60.1568533 L82.0026542,60.1568533 L81.4054643,60.165667 C80.9919106,60.175895 80.5480081,60.1951853 80.0767887,60.2256833 C77.1468506,60.4153134 74.1714732,60.9982157 71.3120223,62.1019611 C67.2725667,63.6611872 63.8136663,66.1340073 61.1983139,69.6603523 L60.911204,70.056511 L65.0804418,73.0088714 C67.1110306,70.1413327 69.8546555,68.1405968 73.1516878,66.8679454 C75.4857659,65.9669934 77.9613718,65.4820007 80.4067423,65.3237326 C81.2628364,65.2683249 82.0503085,65.2578704 82.7473882,65.2796667 L83.1891175,65.2982801 L83.4753634,65.3177045 L83.5344698,65.3232856 L84.0656896,60.2422639 Z" id="Path" fill="#E18E70" fill-rule="nonzero"></path>
        <path d="M59.1370493,71.1095893 C60.6843047,71.1095893 61.938603,69.8706287 61.938603,68.3422934 C61.938603,67.7865351 61.5681496,66.954902 61.0966635,66.1215191 L60.8537484,65.7059509 L60.8537484,65.7059509 L60.6014783,65.2977057 L60.6014783,65.2977057 L60.3473373,64.9043979 L60.3473373,64.9043979 L60.0988093,64.5336423 L60.0988093,64.5336423 L59.7529124,64.0364509 L59.7529124,64.0364509 L59.3812117,63.5235308 L59.3812117,63.5235308 L59.1370493,63.1993199 L59.1370493,63.1993199 L58.8928868,63.5235308 L58.8928868,63.5235308 L58.5211861,64.0364509 L58.5211861,64.0364509 L58.1752893,64.5336423 L58.1752893,64.5336423 L57.9267612,64.9043979 L57.9267612,64.9043979 L57.6726202,65.2977057 L57.6726202,65.2977057 L57.4203502,65.7059509 L57.4203502,65.7059509 L57.177435,66.1215191 C56.7059489,66.954902 56.3354955,67.7865351 56.3354955,68.3422934 C56.3354955,69.8706287 57.5897939,71.1095893 59.1370493,71.1095893 Z" id="Oval-Copy-43" fill="#9E4D31"></path>
        <path d="M62.602546,71.6949151 C62.9163847,71.2424654 63.5375842,71.1300991 63.9900338,71.4439378 C64.4424834,71.7577765 64.5548498,72.3789759 64.2410111,72.8314256 C60.7902482,77.8062627 57.047418,77.8062627 53.9997795,72.7801139 C53.7142794,72.3092688 53.8645313,71.6961298 54.3353764,71.4106298 C54.8062216,71.1251297 55.4193605,71.2753816 55.7048605,71.7462267 C57.9866043,75.5092662 59.9567466,75.5092662 62.602546,71.6949151 Z" id="Path" fill="#9E4D31" fill-rule="nonzero"></path>
        <polygon id="Rectangle" fill="#FFB7E3" points="50.5675907 117.252828 54.0283336 117.252828 54.0283336 124.009516 50.5675907 124.009516"></polygon>
        <polygon id="Rectangle" fill="#FFB7E3" points="63.4217786 117.252828 66.8825214 117.252828 66.8825214 124.009516 63.4217786 124.009516"></polygon>
    </g>
</svg>